<?xml version="1.0" encoding="UTF-8"?><svg id="_レイヤー_2" xmlns="http://www.w3.org/2000/svg" viewBox="0 0 197.93 197.7"><defs><style>.cls-1{fill:#d5d4cd;stroke-width:0px;}</style></defs><g id="_レイヤー_1-2"><path class="cls-1" d="M98.41,0l.03.93-2.95.08.06,2.05,2.3-.06.03.93-2.3.06.08,3.04-1.14.03-.19-6.95,4.09-.11Z"/><path class="cls-1" d="M104.16.16l-.32,6.94-1.14-.05.32-6.94,1.14.05Z"/><path class="cls-1" d="M113.99,3.16c-.13-.37-.34-.66-.64-.88-.29-.22-.65-.35-1.06-.41-.46-.06-.88-.01-1.26.14-.38.16-.7.41-.96.76-.25.35-.41.77-.48,1.27-.07.5-.03.95.12,1.35s.39.74.72.99.72.41,1.18.47c.61.08,1.14-.02,1.57-.31.43-.29.73-.73.89-1.3l-2.59-.35.12-.9,3.8.51-.12.88c-.15.53-.4.99-.77,1.4-.37.41-.82.71-1.34.91-.53.2-1.09.26-1.69.18-.65-.09-1.22-.32-1.71-.69s-.86-.85-1.1-1.43c-.24-.58-.32-1.2-.22-1.88.09-.67.33-1.26.72-1.75.39-.49.87-.85,1.45-1.08s1.19-.3,1.83-.21c.73.1,1.36.37,1.88.81s.87,1,1.04,1.7l-1.36-.18Z"/><path class="cls-1" d="M120.34,9.06c-.45-.43-.76-.95-.93-1.55-.17-.61-.17-1.24,0-1.9.17-.66.48-1.21.92-1.65.44-.44.96-.75,1.56-.9.6-.16,1.22-.16,1.84,0,.63.16,1.17.46,1.62.89.45.43.76.94.93,1.55.17.6.17,1.23,0,1.89-.17.66-.47,1.21-.91,1.66-.44.45-.96.75-1.56.91-.6.16-1.22.16-1.85,0-.63-.16-1.17-.46-1.62-.89ZM123.47,8.98c.4-.11.75-.33,1.04-.66.29-.33.51-.74.63-1.24s.14-.96.04-1.38c-.1-.42-.3-.78-.6-1.07-.3-.29-.67-.49-1.11-.61-.45-.11-.87-.12-1.27,0s-.75.33-1.04.65c-.29.32-.5.73-.63,1.23-.13.5-.14.96-.04,1.39s.3.79.59,1.08c.3.29.67.5,1.11.61.45.11.87.12,1.27,0Z"/><path class="cls-1" d="M140.36,12.44c-.28.22-.63.34-1.04.37s-.88-.07-1.41-.31l-1.15-.52-1.16,2.57-1.04-.47,2.85-6.34,2.19.98c.49.22.86.49,1.12.81.26.32.41.66.45,1.02.04.36-.02.72-.18,1.07-.14.32-.36.59-.64.81ZM139.3,11.78c.28-.09.49-.3.63-.63.31-.69.07-1.22-.71-1.57l-1.15-.52-.93,2.07,1.15.52c.4.18.73.22,1.01.13Z"/><path class="cls-1" d="M146.99,12.44l-3.34,6.09-1-.55,3.34-6.09,1,.55Z"/><path class="cls-1" d="M149.02,20.67l1.97,1.28-.5.77-2.93-1.89,3.77-5.84.96.62-3.27,5.07Z"/><path class="cls-1" d="M157.89,26.47l-2.29-1.8-1.27.81-.93-.74,6.26-3.92,1.04.82-2.35,7.01-.94-.74.49-1.42ZM158.21,25.54l1.11-3.24-2.89,1.83,1.78,1.41Z"/><path class="cls-1" d="M169.45,29.49l-.65.67-1.33-1.29-4.18,4.33-.82-.79,4.18-4.33-1.34-1.29.65-.67,3.49,3.37Z"/><path class="cls-1" d="M172.75,34.43l-1.54,1.33,1.57,1.82-.7.61-1.57-1.82-1.61,1.39,1.76,2.04-.7.61-2.51-2.91,5.27-4.55,2.51,2.91-.71.61-1.76-2.04Z"/><path class="cls-1" d="M173.42,44.62c-.08-.4-.06-.77.06-1.12s.34-.64.67-.87l.71.99c-.23.2-.36.44-.4.72-.04.28.06.58.28.89.23.32.48.52.76.58s.55.02.79-.16c.19-.13.3-.3.35-.5.04-.2.03-.4-.02-.61-.05-.21-.15-.49-.28-.84-.17-.44-.28-.81-.34-1.11-.06-.3-.05-.61.05-.92.1-.31.32-.6.67-.85.33-.23.67-.35,1.03-.36s.71.08,1.05.29c.34.2.65.49.92.88.39.55.57,1.1.55,1.64-.03.54-.26,1.01-.71,1.38l-.73-1.03c.2-.16.3-.39.32-.67.02-.28-.08-.57-.28-.87-.19-.27-.41-.44-.67-.51-.26-.07-.51-.02-.77.16-.17.12-.28.28-.32.46-.04.19-.03.38.02.59.05.21.14.48.26.82.16.45.28.83.34,1.14.06.31.05.62-.05.94-.1.32-.33.6-.68.86-.29.2-.62.32-.98.35s-.73-.05-1.1-.24c-.37-.19-.69-.48-.98-.88-.27-.38-.45-.77-.53-1.17Z"/><path class="cls-1" d="M185.36,54.04c.62.05,1.19.25,1.7.61.51.36.9.83,1.19,1.41.32.67.44,1.34.37,2.02-.08.68-.36,1.28-.85,1.8l-.59-1.23c.25-.32.39-.67.41-1.03s-.06-.74-.24-1.12c-.2-.41-.47-.74-.81-.97-.34-.23-.73-.36-1.17-.37-.44-.02-.89.09-1.35.31-.46.22-.82.51-1.08.86-.26.35-.41.73-.44,1.15-.03.42.05.83.25,1.24.18.38.42.67.72.88.3.21.66.32,1.06.32l.59,1.23c-.71.06-1.36-.1-1.93-.46-.58-.36-1.02-.88-1.34-1.54-.28-.59-.41-1.19-.37-1.81s.23-1.19.58-1.71c.35-.52.83-.93,1.44-1.22.61-.29,1.23-.42,1.86-.37Z"/><path class="cls-1" d="M187.65,69.5l-.96-2.75h-1.5s-.39-1.13-.39-1.13l7.39.05.44,1.25-5.75,4.65-.4-1.13,1.18-.94ZM188.42,68.9l2.68-2.13h-3.42s.75,2.13.75,2.13Z"/><path class="cls-1" d="M196.37,81.11l-6.79,1.5-.25-1.11,4.65-1.03-5.1-1.04-.17-.77,4.19-3.11-4.65,1.03-.25-1.11,6.79-1.5.26,1.2-4.79,3.56,5.85,1.2.26,1.19Z"/><path class="cls-1" d="M194.56,91.21c-.33-.13-.61-.37-.84-.72-.23-.34-.38-.8-.44-1.37l-.13-1.25-2.8.29-.12-1.13,6.91-.73.25,2.39c.06.53.01.99-.13,1.38-.14.39-.36.69-.65.9-.29.21-.63.34-1.02.38-.35.04-.69-.01-1.02-.14ZM194.59,89.96c.22.19.51.27.86.23.76-.08,1.09-.55,1-1.4l-.13-1.25-2.26.24.13,1.25c.04.43.18.74.39.93Z"/><path class="cls-1" d="M192.4,100.11l-.05-2.91-1.43-.48-.02-1.19,7,2.38.02,1.32-6.92,2.6-.02-1.2,1.41-.52ZM193.33,99.77l3.21-1.18-3.25-1.09.04,2.27Z"/><path class="cls-1" d="M197.54,107.62l-6.93-.56.09-1.14,6.93.56-.09,1.14Z"/><path class="cls-1" d="M194.19,117.34c.37-.12.67-.32.9-.61.23-.29.38-.64.45-1.05.08-.45.04-.88-.1-1.26s-.38-.72-.72-.98-.76-.44-1.25-.52c-.49-.08-.95-.06-1.36.08-.41.13-.75.36-1.01.68-.26.32-.44.71-.51,1.16-.1.61-.02,1.14.26,1.58s.7.75,1.27.94l.44-2.57.9.15-.65,3.77-.88-.15c-.52-.16-.98-.44-1.37-.82-.39-.38-.68-.84-.87-1.38-.18-.54-.22-1.1-.12-1.7.11-.64.36-1.21.75-1.69.39-.48.88-.83,1.46-1.05.58-.22,1.21-.27,1.88-.16.67.12,1.24.37,1.72.78.48.4.82.9,1.03,1.49.21.59.26,1.2.15,1.84-.12.73-.42,1.35-.87,1.85-.46.51-1.03.83-1.73.98l.23-1.35Z"/><path class="cls-1" d="M186.49,127.51l.32-1.09,5.94-1.84-4.98-1.45.32-1.09,6.68,1.95-.32,1.09-5.93,1.84,4.97,1.45-.32,1.09-6.68-1.95Z"/><path class="cls-1" d="M184.38,148.99l-.81-.45,1.43-2.58-1.79-1-1.12,2.01-.81-.45,1.12-2.01-2.66-1.48.55-1,6.07,3.38-1.99,3.57Z"/><path class="cls-1" d="M181.31,153.85l-5.8-3.83.63-.95,5.8,3.83-.63.95Z"/><path class="cls-1" d="M173.7,160.76c.38.08.74.04,1.08-.1.34-.14.64-.38.9-.7.29-.36.46-.75.52-1.16.06-.41,0-.81-.16-1.21s-.45-.75-.84-1.06c-.39-.31-.8-.51-1.23-.59-.43-.08-.83-.04-1.22.11s-.72.41-1.01.77c-.39.49-.56.99-.53,1.51s.25,1,.66,1.43l1.62-2.04.71.57-2.38,3-.7-.55c-.38-.39-.65-.85-.81-1.38-.16-.52-.19-1.07-.1-1.62.1-.56.33-1.07.71-1.55.41-.51.9-.88,1.47-1.12s1.17-.31,1.79-.22,1.2.34,1.73.77c.53.42.91.93,1.14,1.51s.29,1.18.19,1.8-.35,1.17-.75,1.68c-.46.58-1.01.98-1.66,1.21-.64.23-1.31.23-1.99.02l.85-1.07Z"/><path class="cls-1" d="M165.38,163.21c.6-.17,1.2-.17,1.81,0,.61.16,1.15.48,1.63.97.48.48.8,1.03.95,1.63.16.61.15,1.21-.02,1.81-.17.6-.49,1.13-.94,1.58-.46.46-.99.77-1.59.94-.6.17-1.2.17-1.8,0-.6-.16-1.14-.48-1.62-.97-.48-.48-.8-1.03-.96-1.63-.16-.61-.16-1.21.02-1.81.17-.6.49-1.13.95-1.59.46-.46.99-.77,1.59-.94ZM163.84,165.94c-.11.4-.09.81.04,1.23s.38.81.74,1.18c.36.36.75.61,1.17.74s.83.14,1.23.04c.4-.11.76-.32,1.09-.65s.54-.69.65-1.09.1-.81-.03-1.23c-.13-.42-.37-.81-.74-1.17-.36-.36-.75-.61-1.17-.75-.42-.13-.83-.15-1.23-.04-.4.11-.77.32-1.09.64s-.54.69-.65,1.09Z"/><path class="cls-1" d="M152.27,178.71c-.04-.35.03-.71.21-1.09.19-.37.51-.72.98-1.05l1.03-.73-1.63-2.3.93-.66,4.01,5.68-1.96,1.38c-.44.31-.86.49-1.27.56-.41.06-.78.02-1.11-.13-.33-.15-.61-.38-.83-.7-.2-.29-.33-.61-.37-.96ZM153.37,178.13c-.06.28.01.57.22.87.44.62,1.01.68,1.71.19l1.03-.73-1.31-1.85-1.03.73c-.35.25-.56.52-.62.8Z"/><path class="cls-1" d="M148.89,184.42l-3.55-5.98.98-.58,3.55,5.98-.98.58Z"/><path class="cls-1" d="M140.77,181.98l-2.1,1.05-.41-.82,3.12-1.56,3.11,6.21-1.02.51-2.7-5.39Z"/><path class="cls-1" d="M131.26,186.67l2.71-1.05-.05-1.5,1.11-.43.19,7.39-1.23.48-4.83-5.6,1.12-.43.98,1.14ZM131.89,187.42l2.22,2.61-.1-3.42-2.12.82Z"/><path class="cls-1" d="M122.79,195.06l-.25-.9,1.78-.49-1.59-5.81,1.1-.3,1.59,5.81,1.79-.49.25.9-4.68,1.28Z"/><path class="cls-1" d="M116.83,195.38l-.36-2.01-2.36.42-.16-.92,2.36-.42-.37-2.1-2.66.47-.16-.92,3.78-.67,1.21,6.85-3.78.67-.16-.92,2.66-.47Z"/><path class="cls-1" d="M107.74,190.74c.39.13.7.34.93.62.24.28.37.62.4,1.02l-1.22.1c-.05-.3-.19-.53-.41-.71s-.53-.25-.91-.22c-.39.03-.69.15-.89.36s-.29.46-.27.76c.02.23.1.42.25.55.15.13.33.23.54.3s.5.13.86.19c.46.08.84.17,1.13.28.29.1.55.27.77.51.22.24.35.58.38,1.01.03.4-.04.76-.21,1.07-.18.31-.44.57-.78.75-.35.19-.75.3-1.23.34-.67.05-1.23-.07-1.69-.37-.46-.3-.73-.74-.82-1.32l1.26-.1c.04.25.18.46.41.62.23.16.53.23.89.2.33-.03.58-.13.78-.31.19-.18.28-.43.25-.74-.02-.21-.1-.38-.24-.51s-.31-.22-.52-.28c-.21-.06-.49-.13-.84-.19-.47-.09-.85-.19-1.15-.29-.3-.1-.56-.28-.79-.52s-.35-.59-.39-1.03c-.03-.35.04-.69.2-1.02.16-.33.42-.6.77-.82s.77-.35,1.26-.39c.47-.04.89,0,1.28.14Z"/><path class="cls-1" d="M93.54,196.19c-.36.51-.83.89-1.39,1.15-.57.26-1.17.36-1.82.3-.74-.06-1.38-.3-1.92-.71-.54-.41-.92-.96-1.12-1.65l1.36.12c.15.38.37.67.68.88.3.21.66.33,1.08.36.46.04.88-.03,1.25-.2.38-.18.68-.45.92-.82.24-.37.38-.81.42-1.32.04-.51-.02-.97-.19-1.37-.17-.4-.42-.72-.77-.96-.34-.24-.74-.38-1.2-.42-.42-.04-.79.02-1.13.17-.33.15-.61.4-.82.75l-1.36-.12c.32-.64.78-1.12,1.38-1.43.61-.31,1.28-.43,2.01-.37.65.06,1.23.26,1.74.61.51.35.9.8,1.17,1.37.27.56.38,1.19.32,1.86-.06.68-.27,1.27-.63,1.78Z"/><path class="cls-1" d="M79.06,190.28l2.85.57.77-1.29,1.17.23-3.81,6.33-1.29-.26-1.07-7.31,1.18.24.21,1.49ZM79.19,191.26l.47,3.39,1.75-2.94-2.23-.45Z"/><path class="cls-1" d="M64.65,191.88l2.16-6.6,1.08.35-1.48,4.52,3.5-3.86.75.25.54,5.19,1.48-4.52,1.08.36-2.16,6.6-1.17-.38-.62-5.94-4.01,4.42-1.16-.38Z"/><path class="cls-1" d="M56.87,185.18c.28-.22.63-.34,1.05-.36.42-.03.88.08,1.4.32l1.15.53,1.18-2.56,1.04.48-2.9,6.32-2.18-1c-.48-.22-.86-.49-1.12-.81s-.41-.66-.44-1.02.03-.72.19-1.07c.15-.32.36-.59.64-.8ZM57.92,185.84c-.28.09-.49.3-.64.63-.32.69-.08,1.22.7,1.57l1.15.53.95-2.06-1.15-.53c-.39-.18-.73-.23-1-.14Z"/><path class="cls-1" d="M50.32,178.76l2.51,1.48,1.15-.97,1.02.6-5.68,4.73-1.14-.67,1.39-7.26,1.03.61-.29,1.48ZM50.12,179.73l-.67,3.36,2.62-2.2-1.96-1.15Z"/><path class="cls-1" d="M41.24,179.35l4.03-5.67.93.66-4.03,5.67-.93-.66Z"/><path class="cls-1" d="M34.6,171.51c-.09.38-.07.74.06,1.08s.35.65.67.92c.35.3.73.49,1.14.56.41.08.81.04,1.21-.12.4-.16.76-.43,1.09-.81.32-.38.53-.78.63-1.21s.07-.83-.07-1.22-.38-.74-.73-1.03c-.47-.4-.97-.6-1.49-.58s-1,.22-1.46.61l1.99,1.69-.59.69-2.91-2.49.58-.68c.41-.36.87-.62,1.4-.76.53-.14,1.07-.16,1.62-.04s1.06.37,1.52.77c.5.42.85.93,1.07,1.51s.27,1.18.16,1.8c-.11.62-.39,1.18-.83,1.7-.44.52-.96.88-1.55,1.08-.59.21-1.19.25-1.8.12-.61-.12-1.16-.39-1.65-.81-.56-.48-.95-1.05-1.15-1.7s-.19-1.31.05-1.99l1.04.89Z"/><path class="cls-1" d="M29.77,159.68l.78.83-1.45,6.05,3.79-3.54.78.83-5.09,4.75-.78-.83,1.44-6.04-3.79,3.54-.78-.83,5.09-4.75Z"/><path class="cls-1" d="M12.37,146.96l.8-.47,1.49,2.55,1.77-1.04-1.16-1.98.8-.47,1.16,1.98,2.62-1.54.58.98-6,3.51-2.07-3.53Z"/><path class="cls-1" d="M9.75,141.84l6.24-3.05.5,1.02-6.25,3.05-.5-1.02Z"/><path class="cls-1" d="M7.68,131.77c-.26.29-.42.62-.47.98-.05.36,0,.74.15,1.13.16.43.41.78.73,1.04.32.26.7.42,1.12.47.43.05.88,0,1.34-.19.47-.18.84-.43,1.13-.76.29-.33.46-.7.52-1.11.06-.41.02-.83-.15-1.26-.22-.58-.56-.99-1.02-1.23-.46-.24-.98-.29-1.57-.16l.93,2.44-.85.32-1.37-3.58.83-.32c.53-.12,1.06-.12,1.6,0s1.02.38,1.45.74c.43.37.75.83.97,1.4.23.61.3,1.22.21,1.83-.09.61-.33,1.16-.72,1.65-.39.49-.9.85-1.54,1.1-.64.24-1.26.31-1.88.21-.62-.1-1.16-.35-1.64-.75-.48-.4-.83-.9-1.06-1.51-.26-.69-.33-1.37-.2-2.04s.47-1.24,1-1.72l.49,1.28Z"/><path class="cls-1" d="M9.81,123.36c-.16.6-.47,1.12-.92,1.56-.45.44-1,.74-1.66.91s-1.29.16-1.89-.01-1.11-.49-1.54-.94c-.43-.45-.72-.99-.88-1.62-.16-.63-.16-1.25,0-1.85.16-.6.47-1.12.91-1.56.45-.44,1-.74,1.66-.9.66-.17,1.29-.16,1.89,0s1.12.48,1.55.94c.43.45.72,1,.88,1.63.16.63.16,1.24,0,1.84ZM8.25,120.64c-.29-.3-.65-.5-1.08-.6s-.89-.09-1.39.04c-.5.13-.91.33-1.23.63s-.54.64-.66,1.04-.11.82,0,1.27c.11.45.31.82.6,1.12.29.3.65.5,1.07.6s.89.09,1.38-.03c.5-.13.91-.33,1.24-.63.33-.29.55-.64.67-1.04s.12-.82,0-1.27c-.11-.45-.31-.82-.61-1.12Z"/><path class="cls-1" d="M3.19,104.16c.33.14.6.39.83.74s.36.81.4,1.38l.1,1.26,2.81-.22.09,1.14-6.93.54-.19-2.39c-.04-.53.02-.99.17-1.37s.38-.68.68-.89c.3-.21.64-.33,1.03-.36.35-.03.69.03,1.02.17ZM3.12,105.41c-.21-.2-.5-.28-.86-.25-.76.06-1.1.52-1.04,1.38l.1,1.26,2.26-.18-.1-1.26c-.03-.43-.16-.75-.37-.94Z"/><path class="cls-1" d="M.02,98.25l6.95.11-.02,1.14-6.95-.11.02-1.14Z"/><path class="cls-1" d="M6.25,92.62l.17-2.34.92.07-.25,3.48-6.93-.49.08-1.14,6.01.43Z"/><path class="cls-1" d="M7.06,82.05l-.48,2.87,1.32.73-.2,1.17-6.46-3.6.22-1.3,7.28-1.31-.2,1.18-1.48.26ZM6.09,82.21l-3.37.58,3,1.66.37-2.24Z"/><path class="cls-1" d="M4.15,70.47l.9.25-.49,1.78,5.81,1.59-.3,1.1-5.81-1.59-.49,1.79-.9-.25,1.28-4.68Z"/><path class="cls-1" d="M6.91,65.18l1.91.72.84-2.25.87.33-.84,2.25,1.99.75.95-2.53.87.33-1.35,3.59-6.52-2.45,1.35-3.59.87.33-.95,2.53Z"/><path class="cls-1" d="M15.53,59.72c-.31.26-.65.43-1.01.49-.36.06-.72,0-1.08-.17l.54-1.1c.28.11.55.11.82,0,.27-.1.48-.33.65-.67.17-.35.22-.67.15-.95s-.25-.49-.52-.62c-.21-.1-.41-.12-.6-.07-.19.06-.37.16-.53.31-.16.15-.36.36-.6.65-.31.35-.58.63-.81.83-.24.2-.51.33-.83.4-.32.07-.68,0-1.07-.19-.36-.18-.63-.42-.81-.73-.18-.31-.27-.66-.25-1.06s.12-.8.33-1.23c.3-.61.69-1.03,1.18-1.27.49-.24,1.01-.25,1.56-.04l-.55,1.13c-.24-.09-.48-.08-.74.04-.26.12-.47.34-.62.66-.14.29-.19.57-.13.83.06.26.23.46.51.59.19.09.38.11.56.05.18-.06.35-.16.51-.3s.36-.35.59-.62c.32-.36.59-.64.83-.84s.52-.34.85-.41c.33-.07.69,0,1.08.19.32.16.58.39.77.69.2.31.3.67.31,1.08.01.41-.09.84-.31,1.28-.2.42-.46.76-.77,1.02Z"/><path class="cls-1" d="M18.09,44.73c-.25-.57-.35-1.17-.28-1.79.07-.62.29-1.19.67-1.72.43-.6.96-1.03,1.59-1.29.63-.26,1.29-.3,1.99-.12l-.8,1.11c-.4-.07-.77-.02-1.1.13-.33.16-.62.4-.87.74-.27.37-.42.77-.47,1.18-.04.41.03.81.23,1.21.2.39.5.74.92,1.04.42.3.84.48,1.27.54.43.06.84,0,1.22-.16.38-.17.7-.44.97-.82.24-.34.39-.69.43-1.06.04-.36-.04-.73-.23-1.09l.8-1.11c.39.6.56,1.24.52,1.92-.04.68-.28,1.32-.71,1.92-.38.53-.85.93-1.41,1.19s-1.15.36-1.78.31c-.62-.06-1.21-.29-1.76-.68-.55-.4-.96-.88-1.21-1.45Z"/><path class="cls-1" d="M30.57,35.31l-1.95,2.16.72,1.32-.8.88-3.5-6.51.88-.98,6.83,2.82-.8.89-1.39-.58ZM29.67,34.93l-3.15-1.33,1.63,3.01,1.52-1.68Z"/><path class="cls-1" d="M36.56,22.08l4.58,5.23-.86.75-3.14-3.58,1.54,4.98-.59.52-4.74-2.18,3.14,3.58-.86.75-4.58-5.23.93-.81,5.43,2.49-1.76-5.7.92-.8Z"/><path class="cls-1" d="M46.3,18.8c.04.35-.03.71-.22,1.08-.19.37-.52.72-.99,1.05l-1.03.72,1.61,2.32-.94.65-3.96-5.71,1.97-1.37c.44-.3.86-.49,1.27-.55.41-.06.78-.01,1.11.14.33.15.6.39.83.71.2.29.32.61.36.96ZM45.18,19.37c.06-.28,0-.57-.21-.87-.43-.62-1-.69-1.71-.2l-1.04.72,1.29,1.86,1.04-.72c.36-.25.57-.51.63-.8Z"/><path class="cls-1" d="M55.14,16.43l-2.55,1.41.25,1.49-1.04.58-1.18-7.3,1.16-.64,5.54,4.89-1.05.58-1.12-1ZM54.42,15.77l-2.55-2.28.56,3.38,1.99-1.1Z"/><path class="cls-1" d="M59.25,8.31l2.83,6.35-1.04.46-2.83-6.35,1.04-.46Z"/><path class="cls-1" d="M69.4,6.6c-.28-.27-.6-.44-.96-.5-.36-.06-.74-.03-1.14.11-.44.15-.79.38-1.06.69-.27.31-.45.68-.52,1.11-.07.43-.02.88.14,1.35.16.47.4.86.72,1.16s.68.49,1.09.56c.41.08.83.04,1.26-.1.59-.2,1.01-.53,1.26-.98.25-.45.33-.97.22-1.56l-2.47.84-.29-.86,3.62-1.24.29.84c.1.53.08,1.07-.06,1.6-.15.53-.41,1-.79,1.42-.38.42-.86.72-1.44.92-.62.21-1.23.26-1.84.15-.61-.11-1.15-.37-1.62-.78-.47-.41-.82-.93-1.04-1.58-.22-.64-.27-1.27-.14-1.89s.4-1.15.81-1.61.93-.8,1.54-1.01c.7-.24,1.38-.28,2.04-.12s1.23.51,1.69,1.06l-1.3.44Z"/><path class="cls-1" d="M82.02,8.48l-1.11.24-4.46-4.34,1.11,5.07-1.11.24-1.49-6.8,1.11-.24,4.46,4.33-1.11-5.06,1.11-.24,1.49,6.8Z"/></g></svg>