<?xml version="1.0" encoding="UTF-8"?><svg id="_レイヤー_2" xmlns="http://www.w3.org/2000/svg" xmlns:xlink="http://www.w3.org/1999/xlink" viewBox="0 0 39.4 38.28"><defs><style>.cls-1{fill:url(#linear-gradient);}.cls-1,.cls-2,.cls-3{stroke-width:0px;}.cls-2{fill:url(#linear-gradient-2);}.cls-3{fill:url(#linear-gradient-3);}</style><linearGradient id="linear-gradient" x1="28.81" y1="10.88" x2="33.73" y2="5.97" gradientUnits="userSpaceOnUse"><stop offset="0" stop-color="#a71095"/><stop offset=".52" stop-color="#7923b6"/><stop offset="1" stop-color="#5134d2"/></linearGradient><linearGradient id="linear-gradient-2" x1="-.2" y1="39.03" x2="36.81" y2="2.02" gradientUnits="userSpaceOnUse"><stop offset="0" stop-color="#f6c65a"/><stop offset=".28" stop-color="#ef5531"/><stop offset=".52" stop-color="#dc1e51"/><stop offset=".75" stop-color="#a71095"/><stop offset="1" stop-color="#5134d2"/></linearGradient><linearGradient id="linear-gradient-3" x1="-.21" y1="39.04" x2="36.8" y2="2.02" xlink:href="#linear-gradient-2"/></defs><g id="_レイヤー_1-2"><path class="cls-1" d="M29.93,6.57c-1.13.39-1.83,1.69-1.52,2.85.3,1.32,1.81,2.17,3.1,1.78,1.28-.3,2.21-1.76,1.77-3.04-.38-1.35-2.05-2.19-3.35-1.59Z"/><path class="cls-2" d="M39.39,14.1c-.09-2.36-.02-4.8-.84-7.05-.94-2.86-3.3-5.19-6.14-6.15C30.05.03,27.51.06,25.04,0c-3.66,0-7.32,0-10.97.02-1.17.05-2.34.03-3.51.16-2.36.19-4.76.91-6.61,2.45-1.67,1.35-2.83,3.25-3.36,5.33C.07,9.96.12,12.04,0,14.09c0,3.43-.02,6.86,0,10.29.13,2.38.05,4.83.95,7.08.99,2.77,3.32,5,6.1,5.93,1.97.7,4.09.84,6.16.83,1.83.07,3.66.03,5.49.04,3.3-.09,6.61.08,9.91-.17,2.71-.19,5.5-1.06,7.46-3.03,2.1-1.94,3.03-4.83,3.19-7.62.25-4.45.09-8.9.14-13.35ZM35.68,27.63c-.11.99-.28,1.98-.68,2.9-.7,1.71-2.2,3.06-3.96,3.61-1.7.6-3.52.56-5.3.66-3.15,0-6.29.1-9.44.01-2.01.04-4.02.01-6.01-.21-2.04-.22-4.08-1.16-5.26-2.89-1.31-1.89-1.33-4.27-1.43-6.48,0-2.75-.04-5.49-.01-8.24.04-1.72-.04-3.44.09-5.15.06-2.23.5-4.69,2.25-6.25,1.88-1.83,4.66-1.99,7.14-2.08,4.22-.09,8.44-.08,12.66-.06,2.43.13,5.1.08,7.15,1.59,1.52,1.09,2.43,2.84,2.69,4.67.3,2.13.24,4.28.25,6.43.06,2.06.05,4.12,0,6.17.02,1.77-.01,3.54-.13,5.31Z"/><path class="cls-3" d="M25.47,11.04c-2.12-1.47-4.82-2.02-7.37-1.62-2.81.43-5.43,2.08-6.96,4.49-1.46,2.24-1.93,5.09-1.25,7.68.62,2.42,2.23,4.56,4.35,5.86,2.12,1.32,4.74,1.84,7.2,1.38,2.9-.48,5.55-2.28,7.03-4.82,1.27-2.14,1.67-4.78,1.07-7.19-.57-2.34-2.07-4.44-4.07-5.78ZM24.97,22.9c-1.12,1.47-2.87,2.43-4.71,2.57-3.04.35-6.18-1.73-6.91-4.73-.51-1.89-.06-4,1.18-5.52,1.01-1.27,2.51-2.12,4.1-2.39,3.04-.55,6.34,1.31,7.3,4.27.68,1.93.29,4.17-.95,5.79Z"/></g></svg>