<?xml version="1.0" encoding="UTF-8"?><svg id="_レイヤー_2" xmlns="http://www.w3.org/2000/svg" viewBox="0 0 96.83 26.66"><defs><style>.cls-1{fill:#fff;stroke-width:0px;}</style></defs><g id="_レイヤー_1-2"><path class="cls-1" d="M6.86.37c-.64-.31-1.44-.52-2.1-.16C2.54,1.3.9,3.42.2,5.78c-.3,1.07-.31,2.3.29,3.27.52.88,1.39,1.65,2.42,1.8.24.07.46-.26.32-.46-.33-.66-.77-1.28-.87-2.03-.25-1.86.21-3.8,1.22-5.38.34-.51.72-1.05,1.29-1.32.07,1.19.03,2.39.04,3.59-.03,3.89.07,7.78-.06,11.66.02,1.18-.46,2.27-.63,3.42.97.05,1.75-.67,2.28-1.4.94-1.31,1.09-2.98,1.11-4.54.04-4.41.04-8.82-.08-13.23.02-.4-.39-.62-.69-.77Z"/><path class="cls-1" d="M96.3,13.41c-.56.43-.46,1.25-.74,1.85-.15.53-.67,1.28-1.3.92-.61-.46-.72-1.29-.84-1.99-.2-2.08-.08-4.17,0-6.25,0-.39.06-.87-.28-1.15-.55-.46-1.25-.7-1.94-.82-.44-.08-.85.2-1.02.59-.91,1.92-1.47,3.98-1.94,6.05-.17-1.67-.2-3.35-.24-5.03.03-.82-.74-1.35-1.46-1.52-.43-.1-1-.22-1.31.19-.96,1.35-1.19,3.07-1.94,4.52.08-1.07.05-2.14.08-3.21,0-.37.05-.78-.14-1.12-.64-.36-1.41-.42-2.14-.43-.1.24-.19.5-.17.77-.02,1.88-.05,3.77-.07,5.65.07,1.25-.31,2.54-1.07,3.53-.28.42-.92.63-1.32.25-.38-.36-.42-.92-.5-1.41-.26-2.41-.02-4.83.05-7.24-.02-.29.09-.63-.13-.86-.55-.47-1.33-.52-2.02-.46-.37.09-.34.54-.45.83-.69-1.06-2.11-1.54-3.3-1.12-1.25.41-2.01,1.61-2.52,2.75-.75,1.91-.82,4.04-.47,6.04-.13.73-.55,1.68-1.41,1.7-.73-.07-1.03-.86-1.17-1.47-.54-2.22.12-4.46.56-6.64.19-.8-.59-1.51-1.36-1.39-.96.12-1.9.33-2.85.5.02-.5.2-1.11-.17-1.52-.44-.48-1.2-.42-1.76-.19-.8.42-1.18,1.46-.93,2.31.11.47.81.73.59,1.27-.59,2.02-1.56,3.92-2.81,5.61,0-2.65,0-5.3.09-7.94-.33-.63-1.23-.67-1.87-.72-.52-.03-.75.49-.65.93-.53-.62-1.2-1.23-2.05-1.29-1.13-.2-2.27.37-2.93,1.28-1.48,1.95-1.76,4.54-1.5,6.91.15.82-.25,1.68-.85,2.23-.44.43-1.19.12-1.38-.41-.43-1.03-.31-2.19-.39-3.28.03-1.89.06-3.79.14-5.68-.59-.56-1.46-.75-2.24-.6-.34.17-.31.54-.32.86-.36-.38-.72-.79-1.2-1.02-1.02-.49-2.32-.34-3.18.41-1.34,1.16-1.93,2.94-2.11,4.67-.15.86-.02,1.76-.35,2.58-.31.8-.74,1.6-1.43,2.14-.3.21-.77.37-1.04.02-.63-.85-.61-1.97-.63-2.98.03-2.45.04-4.91.18-7.36,1.13-.05,2.27.08,3.39-.09.38-.35.37-.9.44-1.37-1.19-.44-2.51-.22-3.75-.32-.04-1.04.1-2.08.09-3.11-.35-.49-1.04-.51-1.57-.69-.39-.07-1.07-.24-1.19.29-.16,1.11-.13,2.24-.16,3.37-.73,0-1.45-.05-2.17-.09-.93-.18-1.24,1.26-.84,1.86.95.09,1.91.04,2.86.13,0,1.68-.03,3.36-.03,5.04.12,1.64-.84,3.13-1.94,4.26.04-.88-.05-1.81-.63-2.51-.94-1.15-2.26-1.89-3.44-2.77.47-.65.97-1.31,1.22-2.09.11-.51.17-1.21-.38-1.49-.83-.31-1.81-.11-2.47.47-1.09.85-1.45,2.63-.39,3.65,0,.05-.01.16-.01.22-1.07,1.72-1.89,3.63-3.27,5.15-.11.06-.32.18-.43.24-.22-.23-.4-.52-.4-.85-.22-2.4.08-4.82.02-7.23-.11-.73-.91-1.06-1.49-1.36-.87-.46-1.91-.04-2.53.64-1.43,1.44-1.9,3.48-2.69,5.28,0-1.84.04-3.69,0-5.53-.68-.32-1.63-.83-2.32-.36-.11,2.14-.03,4.28-.09,6.43.14,1.54-.23,3.15.26,4.65.37.85,1.47.69,2.2.53.39-2.39,1.01-4.77,2.04-6.96.55-1.07,1.13-2.17,2.08-2.94.03,2.91-.54,5.86.11,8.74h.04c.17.65.7,1.27,1.42,1.26,1.13.01,1.97-.89,2.67-1.68,1.15-1.45,2.04-3.09,2.97-4.68.2-.16.34-.73.64-.35,1.01.92,2.4,1.84,2.4,3.36.07.74-.49,1.58-1.29,1.53-.82-.1-1.43-.73-2.15-1.07-.53.37-1.01.87-1.11,1.54-.1.48.42.7.77.88,1.65.66,3.62.69,5.2-.19,1.47-.8,2.35-2.3,3.07-3.75.16,1.21.37,2.49,1.18,3.45.67.81,1.94,1.21,2.89.65,1.05-.61,1.65-1.72,2.16-2.78.39,1.35,1.31,2.77,2.82,2.98,1.69.25,3.19-.93,4-2.31.14,1.39,1.52,2.53,2.92,2.29,1.03-.14,1.76-1,2.19-1.89.51,1.02,1.51,1.89,2.71,1.89,1.36.08,2.58-.77,3.35-1.83,0,.38.02.77.02,1.15-1.39,1.26-2.85,2.47-4.08,3.89-.83.97-1.42,2.32-.96,3.59.45,1.3,1.94,1.88,3.21,1.89,1.7-.07,3.17-1.39,3.65-2.98.76-2.23.48-4.61.5-6.92,2.03-2.28,3.59-4.96,4.64-7.82.66-.04,1.32-.05,1.97-.06-.46,2.16-.9,4.46-.22,6.63.38,1.26,1.52,2.38,2.89,2.4,1.11.04,2.02-.84,2.48-1.77.57.98,1.58,1.82,2.77,1.76,1.54.05,2.81-1.07,3.55-2.33.2,1.35,1.48,2.48,2.87,2.29,1.05,0,1.67-1,2.1-1.82.03.48.06.96.12,1.43.72.45,1.6.43,2.41.34.2-.08.37-.28.36-.51.1-1.84.08-3.72.68-5.48.35-1.02.63-2.15,1.4-2.94.11,2.14.13,4.3.56,6.41.11.6.39,1.22.97,1.51.56.24,1.33.27,1.75-.24.01-2.69.66-5.41,1.91-7.79-.02,1.86-.1,3.74.14,5.59.17,1.06.49,2.21,1.37,2.9.76.61,1.92.83,2.76.25.95-.65,1.28-1.85,1.48-2.93.05-.43.11-1.15-.49-1.18ZM43.82,12.61c-.15,1.2-.41,2.5-1.28,3.4-.36.4-.99.6-1.49.33-.56-.34-.79-1-.95-1.61-.31-1.46-.24-2.99.02-4.45.22-.94.58-2.07,1.59-2.41.69-.25,1.44.21,1.72.84.57,1.22.43,2.6.39,3.91ZM54.55,15.27c-.34.67-1.06,1.35-1.88,1.09-.77-.35-.99-1.27-1.16-2.02-.21-1.62-.17-3.31.38-4.86.26-.64.64-1.3,1.3-1.6.53-.23,1.2-.09,1.56.38.53.69.55,1.6.6,2.43.03,1.55-.1,3.17-.8,4.58ZM54.95,24.57c-.37.94-1.78,1.35-2.48.55-.57-.74-.24-1.72.13-2.47.75-1.4,1.91-2.51,3.02-3.62-.03,1.86.1,3.81-.67,5.54ZM74.61,15.28c-.34.59-.96,1.21-1.71,1.07-.54-.18-.9-.68-1.06-1.21-.48-1.56-.4-3.24-.14-4.83.18-.95.51-2.07,1.47-2.5.55-.19,1.22-.08,1.59.4.54.7.61,1.62.66,2.47.05,1.56-.06,3.21-.83,4.6Z"/></g></svg>