<?xml version="1.0" encoding="UTF-8"?><svg id="_レイヤー_2" xmlns="http://www.w3.org/2000/svg" viewBox="0 0 2259.2 145.8"><defs><style>.cls-1{fill:none;}.cls-1,.cls-2{stroke-width:0px;}.cls-2{fill:#b8b7af;}</style></defs><g id="_レイヤー_1-2"><path class="cls-2" d="M60.8,20.4H14.8v39.4h44.4v14H14.8v66H0V6.4h60.8v14Z"/><path class="cls-2" d="M111.6,6.4v133.4h-14.8V6.4h14.8Z"/><path class="cls-2" d="M224.8,72.8h55.6v3.2c0,14.8-4.4,30.8-12.8,42.2-4,5.4-19,24-49.6,24-39.6,0-69.2-30.2-69.2-69S178.6,4.2,218.4,4.2c12.8,0,27.8,3.2,40.8,13.2,6,4.6,11.6,10.6,15.4,15.8l-11,10c-3.8-5.4-8.2-10.2-12.6-13.8-6.4-5.2-16.4-11.2-32.4-11.2-32.2,0-54.6,24.2-54.6,55.2,0,36.4,29,54.8,54.2,54.8,17.8,0,33.2-9,40.8-22.4,2.4-4.2,5-10.6,5.4-19h-39.6v-14Z"/><path class="cls-2" d="M310.4,73.2c0-39.8,31-69,69.4-69s69.4,29.2,69.4,69-30.8,69-69.4,69-69.4-29.4-69.4-69ZM325.6,73.2c0,30.6,24.2,55,54.2,55s54.2-24.4,54.2-55-24.2-55-54.2-55-54.2,24.4-54.2,55Z"/><path class="cls-2" d="M567.2,6.4c13.4,0,24.6,1.6,33.6,9.4,9.8,8.4,12.2,20.2,12.2,28.6,0,18.8-11.8,37.4-42.2,37.4h-13v58h-14.8V6.4h24.2ZM557.8,67.8h12.2c17.6,0,28.2-8.8,28.2-24.2,0-21.2-19.8-23.2-29.4-23.2h-11v47.4Z"/><path class="cls-2" d="M659,6.4v133.4h-14.8V6.4h14.8Z"/><path class="cls-2" d="M718.2,6.4v119.4h36.8v14h-51.6V6.4h14.8Z"/><path class="cls-2" d="M858.6,102.2h-56.8l-16,37.6h-16.4L830.8,0l59.8,139.8h-16.4l-15.6-37.6ZM852.8,88.2l-22.4-53.4-22.8,53.4h45.2Z"/><path class="cls-2" d="M943.2,20.4v119.4h-14.8V20.4h-32.4V6.4h79.6v14h-32.4Z"/><path class="cls-2" d="M1074.8,20.4h-54.4v39.6h52.8v14h-52.8v51.8h54.4v14h-69.2V6.4h69.2v14Z"/><path class="cls-2" d="M1171.6,32.8c-1.8-3.6-4.8-7.6-7.8-10-2.6-2-7.4-4.6-15-4.6-13.2,0-22.4,8.2-22.4,20.6,0,5.2,1.4,8.2,5,11.6,4,4,9,6.2,14,8.4l12.8,5.6c7.8,3.4,15,7,20.6,12.6,6.8,6.8,9.6,14.6,9.6,24.2,0,24.6-18.2,41-42.2,41-8.8,0-19.8-1.8-29-10.8-6.6-6.4-10.6-15.6-12.4-23.6l14.4-4c1,7,4.2,13,8,17,5.8,5.8,12.4,7.4,19.2,7.4,18.2,0,26.8-13,26.8-26.4,0-6-1.8-11.2-6.6-15.6-3.8-3.6-9-6-16-9.2l-12-5.6c-5.2-2.4-11.8-5.2-17.8-11-5.8-5.6-9.2-11.8-9.2-21.8,0-20.6,15.8-34.4,37.4-34.4,8.2,0,14.8,1.6,21.4,6,5.4,3.6,10,9,13,14.8l-11.8,7.8Z"/><path class="cls-2" d="M1384.2,35.8c-4.2-4.2-10.6-9.2-17.4-12.4-7-3.2-15.2-5.2-23-5.2-30.8,0-53.6,24.8-53.6,55.6,0,36.2,29.4,54.4,53.8,54.4,9,0,17.8-2.6,24.8-6.2,7.6-3.8,13-8.8,15.4-11.2v18.4c-14.8,10.6-30.2,13-40.2,13-39.6,0-69-30-69-68.6s29.8-69.4,69.8-69.4c8,0,23.4,1,39.4,13.2v18.4Z"/><path class="cls-2" d="M1414.2,73.2c0-39.8,31-69,69.4-69s69.4,29.2,69.4,69-30.8,69-69.4,69-69.4-29.4-69.4-69ZM1429.4,73.2c0,30.6,24.2,55,54.2,55s54.2-24.4,54.2-55-24.2-55-54.2-55-54.2,24.4-54.2,55Z"/><path class="cls-2" d="M1590.2,139.8V.8l104,109V6.4h14.8v139.4l-104-109v103h-14.8Z"/><path class="cls-2" d="M1855.4,35.8c-4.2-4.2-10.6-9.2-17.4-12.4-7-3.2-15.2-5.2-23-5.2-30.8,0-53.6,24.8-53.6,55.6,0,36.2,29.4,54.4,53.8,54.4,9,0,17.8-2.6,24.8-6.2,7.6-3.8,13-8.8,15.4-11.2v18.4c-14.8,10.6-30.2,13-40.2,13-39.6,0-69-30-69-68.6s29.8-69.4,69.8-69.4c8,0,23.4,1,39.4,13.2v18.4Z"/><path class="cls-2" d="M1961.8,20.4h-54.4v39.6h52.8v14h-52.8v51.8h54.4v14h-69.2V6.4h69.2v14Z"/><path class="cls-2" d="M2023.2,6.4c13.4,0,24.6,1.6,33.6,9.4,9.8,8.4,12.2,20.2,12.2,28.6,0,18.8-11.8,37.4-42.2,37.4h-13v58h-14.8V6.4h24.2ZM2013.8,67.8h12.2c17.6,0,28.2-8.8,28.2-24.2,0-21.2-19.8-23.2-29.4-23.2h-11v47.4Z"/><path class="cls-2" d="M2133,20.4v119.4h-14.8V20.4h-32.4V6.4h79.6v14h-32.4Z"/><rect class="cls-1" width="2259.2" height="145.8"/></g></svg>