<?xml version="1.0" encoding="UTF-8"?><svg id="_レイヤー_2" xmlns="http://www.w3.org/2000/svg" viewBox="0 0 768 820"><defs><style>.cls-1{fill:none;}.cls-1,.cls-2,.cls-3,.cls-4{stroke-width:0px;}.cls-2{fill:#231815;}.cls-3{fill:#004b84;}.cls-4{fill:#fff;}</style></defs><g id="_レイヤー_1-2"><g id="pay_ico-diner"><g id="pay_ico-diner-2"><path class="cls-4" d="M761.32,635.34c0,27.65-22.95,49.99-51.23,49.99H57.92c-28.18,0-51.11-22.34-51.11-49.99V184.64c0-27.59,22.93-49.95,51.11-49.95h652.16c28.28,0,51.23,22.36,51.23,49.95v450.7Z"/><path class="cls-3" d="M11.14,184.64v450.7c.06,25.19,20.85,45.64,46.78,45.64h652.2c25.92,0,46.75-20.45,46.8-45.64V184.64c-.04-25.15-20.87-45.59-46.8-45.59H57.92c-25.92,0-46.71,20.45-46.78,45.59M57.92,689.66c-30.56-.04-55.52-24.17-55.52-54.32V184.64c0-30.07,24.96-54.22,55.52-54.3h652.2c30.56.08,55.4,24.23,55.48,54.3v450.7c-.08,30.15-24.92,54.28-55.48,54.32H57.92Z"/><path class="cls-3" d="M413.89,442.47c71.29.31,136.56-58.23,136.56-129.52,0-77.84-65.27-131.72-136.56-131.7h-61.47c-72.19-.02-131.64,53.9-131.64,131.7,0,71.29,59.45,129.83,131.64,129.52h61.47Z"/><path class="cls-4" d="M379.75,382.38v-141.42c28.52,10.86,48.73,38.31,48.73,70.7s-20.2,59.76-48.73,70.72M276.94,311.66c.04-32.39,20.24-59.8,48.71-70.7v141.38c-28.46-10.97-48.67-38.43-48.71-70.68M352.73,192.09c-66.02.06-119.49,53.53-119.57,119.57.08,65.98,53.55,119.47,119.57,119.47s119.51-53.49,119.51-119.47-53.49-119.51-119.51-119.57"/><path class="cls-2" d="M89.59,532.28c0,10.7,7.49,11.84,14.2,11.84,29.7,0,39.51-22.36,39.51-42.81,0-25.7-16.54-44.19-43.09-44.19-5.6,0-8.12.37-10.62.49v74.67ZM76.08,467.95c0-12.35-6.43-11.58-12.63-11.68v-3.56c5.41.26,10.82.26,16.26.26s13.59-.26,23.72-.26c35.54,0,54.89,23.72,54.89,47.98,0,13.71-7.89,47.89-56.5,47.89-7,0-13.53-.3-20.08-.3-6.08,0-12.09.16-18.29.3v-3.68c8.28-.77,12.21-1.08,12.63-10.38v-66.57Z"/><path class="cls-2" d="M177.91,464.57c-3.6,0-6.65-3.25-6.65-6.84,0-3.38,3.17-6.57,6.65-6.57s6.71,2.91,6.71,6.57-3.09,6.84-6.71,6.84M163.22,544.9h2.56c3.8,0,6.59,0,6.59-4.46v-37.25c0-6.04-2.01-6.88-7.1-9.62v-2.1c6.43-2.08,14.06-4.6,14.65-4.98.96-.55,1.83-.73,2.44-.73.71,0,.98.87.98,1.91v52.78c0,4.46,3.09,4.46,6.86,4.46h2.38v3.68c-4.66,0-9.5-.31-14.41-.31s-9.89.16-14.95.31v-3.68Z"/><path class="cls-2" d="M205.66,503.99c0-5.03-1.57-6.41-8.1-9.01v-2.58c5.92-1.87,11.62-3.78,18.23-6.63.47,0,.77.29.77,1.38v8.91c7.87-5.53,14.61-10.3,23.76-10.3,11.76,0,15.83,8.53,15.83,19.25v35.44c0,4.46,3.05,4.46,6.88,4.46h2.48v3.66c-4.88,0-9.64-.28-14.53-.28s-9.97.16-14.85.28v-3.66h2.42c3.87,0,6.61,0,6.61-4.46v-35.58c0-7.85-4.84-11.74-12.63-11.74-4.42,0-11.39,3.6-15.97,6.65v40.67c0,4.46,3.05,4.46,6.9,4.46h2.5v3.66c-4.82,0-9.62-.28-14.61-.28s-9.81.16-14.69.28v-3.66h2.4c3.8,0,6.59,0,6.59-4.46v-36.46Z"/><path class="cls-2" d="M300.25,506.23c3.4,0,3.76-1.83,3.76-3.42,0-7-4.17-12.68-11.84-12.68-8.38,0-14.18,6.18-15.81,16.09h23.89ZM275.98,510.61c-.28,1.2-.28,3.36,0,7.96.71,13.04,9.13,23.8,20.12,23.8,7.55,0,13.47-4.21,18.51-9.16l2.06,1.87c-6.41,8.34-14.18,15.48-25.53,15.48-21.75,0-26.25-21.12-26.25-29.91,0-26.9,18.23-34.91,27.73-34.91,11.17,0,23.15,7,23.28,21.59,0,.81,0,1.63-.12,2.46l-1.28.81h-38.51Z"/><path class="cls-2" d="M319.05,544.9h3.76c3.72,0,6.51,0,6.51-4.46v-38.6c0-4.27-5.05-5.13-7.14-6.25v-2.03c10.07-4.23,15.63-7.81,16.78-7.81.83,0,1.26.41,1.26,1.81v12.33h.31c3.42-5.33,9.24-14.14,17.54-14.14,3.48,0,7.73,2.36,7.73,7.26,0,3.7-2.5,7.02-6.35,7.02-4.27,0-4.27-3.32-9.07-3.32-2.34,0-10.03,3.17-10.03,11.41v32.31c0,4.46,2.77,4.46,6.57,4.46h7.67v3.68c-7.49-.14-13.29-.31-19.14-.31s-11.43.16-16.4.31v-3.68Z"/><path class="cls-2" d="M371.94,529.44c1.77,8.99,7.24,16.75,17.37,16.75,8.06,0,11.01-4.92,11.01-9.73,0-16.19-29.89-11.03-29.89-33.08,0-7.77,6.12-17.62,21.26-17.62,4.37,0,10.3,1.18,15.69,3.99l.96,13.96h-3.11c-1.49-8.63-6.27-13.57-15.04-13.57-5.53,0-10.74,3.11-10.74,9.07,0,16.07,31.9,11.09,31.9,32.66,0,9.09-7.32,18.7-23.66,18.7-5.41,0-11.88-1.83-16.74-4.68l-1.57-15.73,2.56-.71Z"/><path class="cls-2" d="M535.39,477.54h-3.4c-2.69-16.09-14.08-22.52-29.42-22.52s-38.76,10.54-38.76,43.5c0,27.75,19.82,47.67,40.85,47.67,13.67,0,24.94-9.34,27.67-23.72l3.17.79-3.17,19.98c-5.7,3.66-21.26,7.32-30.34,7.32-32.19,0-52.47-20.69-52.47-51.6,0-28.18,25.15-48.46,52.04-48.46,11.13,0,21.89,3.76,32.47,7.3l1.34,19.73Z"/><path class="cls-2" d="M540.26,544.9h2.71c3.82,0,6.55,0,6.55-4.46v-76.46c0-8.97-2.08-9.22-7.22-10.78v-2.14c5.41-1.89,11.25-4.31,14.06-5.92,1.49-.92,2.67-1.57,3.01-1.57.85,0,1.18.83,1.18,1.97v94.89c0,4.46,3.03,4.46,6.78,4.46h2.4v3.68c-4.66,0-9.5-.31-14.47-.31s-9.81.16-14.99.31v-3.68Z"/><path class="cls-2" d="M628.47,540.96c0,2.46,1.53,2.67,3.85,2.67,1.67,0,3.7-.2,5.55-.2v2.93c-5.92.55-17.23,3.42-19.9,4.21l-.55-.39v-11.19c-8.24,6.73-14.57,11.58-24.35,11.58-7.41,0-15.1-4.84-15.1-16.28v-35.22c0-3.58-.55-6.92-8.26-7.61v-2.65c4.98-.2,15.95-1,17.68-1,1.59,0,1.59,1,1.59,4.01v35.42c0,4.15,0,15.93,11.96,15.93,4.64,0,10.8-3.56,16.62-8.36v-36.93c0-2.83-6.71-4.33-11.56-5.68v-2.46c12.33-.85,19.96-1.93,21.32-1.93,1.14,0,1.14,1,1.14,2.52v50.62Z"/><path class="cls-2" d="M655.81,533.06c0,5.11,4.96,13.94,14.1,13.94,14.75,0,20.89-14.42,20.89-26.57,0-14.91-11.21-27.3-21.87-27.3-5.11,0-9.32,3.32-13.12,6.57v33.37ZM655.81,495.6c5.49-4.6,12.98-9.85,20.43-9.85,15.99,0,25.61,13.94,25.61,28.85,0,17.97-13.31,35.95-32.88,35.95-10.19,0-15.5-3.3-19.04-4.82l-4.15,3.24-2.87-1.59c1.2-8.04,1.91-15.97,1.91-24.48v-58.92c0-8.97-2.03-9.22-7.28-10.78v-2.14c5.45-1.89,11.23-4.31,14.18-5.92,1.42-.92,2.6-1.59,3.03-1.59.75,0,1.06.83,1.06,1.99v50.05Z"/><path class="cls-2" d="M63.36,628.35h1.08c2.67,0,5.47-.33,5.47-4.27v-39.08c0-3.91-2.81-4.31-5.47-4.31h-1.08v-2.18c2.87,0,7.37.26,11.15.26s8.06-.26,11.68-.26v2.18h-1.2c-2.56,0-5.39.41-5.39,4.31v39.08c0,3.95,2.83,4.27,5.39,4.27h1.2v2.28c-3.7,0-8.12-.31-11.92-.31-3.6,0-8.04.31-10.9.31v-2.28Z"/><path class="cls-2" d="M85.8,630.28v-1.59h-.77c-2.62,0-5.88-.43-5.88-4.62v-39.08c0-4.15,3.26-4.6,5.88-4.6h.77v-1.61c-3.46,0-7.73.26-11.29.26s-8.08-.26-10.8-.26v1.61h.59c2.75,0,5.88.45,5.88,4.6v39.08c0,4.19-3.13,4.62-5.88,4.62h-.59v1.59c2.73,0,7.08-.28,10.56-.28,3.74,0,8.04.28,11.54.28M86.21,631.01c-3.76,0-8.14-.39-11.94-.39-3.6,0-8.04.39-10.89.39h-.35v-2.95h1.26c2.81-.02,5.29-.3,5.29-3.99v-39.08c0-3.68-2.48-3.91-5.29-3.95h-1.26v-2.95h.35c2.85,0,7.41.35,11.13.35s8.06-.35,11.7-.35h.26v2.95h-1.44c-2.69.04-5.17.26-5.17,3.95v39.08c0,3.68,2.48,3.97,5.17,3.99h1.44v2.95h-.26Z"/><path class="cls-2" d="M137.43,615.89l.16-.12v-28.02c0-6.14-4.19-7.06-6.47-7.06h-1.69v-2.2c3.56,0,6.96.28,10.42.28,3.09,0,6.18-.28,9.28-.28v2.2h-1.16c-3.09,0-6.71.61-6.71,9.48v34.06c0,2.52.16,5.23.55,7.49h-2.87l-38.45-42.89v30.84c0,6.49,1.24,8.67,7.04,8.67h1.24v2.3c-3.21,0-6.39-.33-9.64-.33s-6.84.33-10.21.33v-2.3h1.08c5.21,0,6.75-3.48,6.75-9.48v-31.47c0-4.15-3.48-6.69-6.92-6.69h-.92v-2.2c2.93,0,5.76.28,8.61.28,2.22,0,4.46-.28,6.73-.28l33.18,37.4Z"/><path class="cls-2" d="M137.29,615.77h0l-.06-.06.06.06ZM137.41,615.89l.29-.18-.29.18ZM138.93,631.45h2.48c-.33-2.28-.41-4.82-.41-7.22v-34.06c0-8.95,3.78-9.79,6.96-9.79h.73v-1.61c-2.87,0-5.84.26-8.85.26-3.4,0-6.67-.26-10.07-.26v1.61h1.38c2.24,0,6.67,1.02,6.67,7.37v28.24l-.14.14-.29.2-33.16-37.56c-2.22,0-4.37.26-6.73.26-2.73,0-5.49-.26-8.24-.26v1.61h.63c3.64,0,7.16,2.67,7.16,7v31.49c0,6.04-1.65,9.81-7.1,9.81h-.69v1.59c3.28,0,6.57-.28,9.85-.28,3.09,0,6.14.28,9.24.28v-1.59h-.83c-5.92,0-7.39-2.52-7.39-9.01v-31.6l38.8,43.38ZM141.78,632.02l-3.03-.08-37.99-42.26v29.99c.14,6.49,1.02,8.32,6.75,8.4h1.59v2.93h-.37c-3.19,0-6.41-.37-9.62-.37-3.4,0-6.84.37-10.21.37h-.2v-2.93h1.26c4.96-.04,6.35-3.22,6.47-9.2v-31.49c-.06-3.97-3.34-6.35-6.53-6.35h-1.2v-2.93h.2c3.01,0,5.8.33,8.61.33,2.26,0,4.44-.33,6.98-.12l32.8,36.95v-27.51c-.06-5.98-4.05-6.67-6.12-6.71h-1.99v-2.93h.31c3.52,0,6.92.33,10.38.33,3.11,0,6.16-.33,9.28-.33h.35v2.93h-1.51c-3.07.08-6.23.37-6.31,9.14v34.06c0,2.52.08,5.15.49,7.47l.06.33h-.43Z"/><path class="cls-2" d="M160.32,582.23c-5.6,0-5.78,1.28-6.98,6.75h-2.2c.24-2.1.61-4.17.85-6.31.26-2.1.47-4.19.47-6.47h1.73c.63,2.38,2.5,2.28,4.64,2.28h38.47c1.97,0,3.85-.08,4.05-2.42l1.75.41c-.28,2.01-.63,3.99-.77,6.02-.08,1.99-.08,4.05-.08,6.04l-2.36.83c-.12-2.73-.49-7.14-5.55-7.14h-12.25v39.76c0,5.76,2.65,6.37,6.25,6.37h1.4v2.28c-2.89,0-8.18-.33-12.19-.33-4.52,0-9.7.33-12.59.33v-2.28h1.42c4.11,0,6.23-.33,6.23-6.27v-39.86h-12.29Z"/><path class="cls-2" d="M189.77,631.01c-2.95,0-8.2-.39-12.25-.39-4.46,0-9.64.39-12.59.39h-.2v-2.95h1.67c4.11-.06,5.78-.12,5.88-5.96v-39.55h-11.94v-.69h12.55v40.24c0,6.04-2.38,6.59-6.49,6.59h-1.12v1.59c3.01,0,7.98-.28,12.25-.28,3.95,0,8.97.28,11.9.28v-1.59h-1.08c-3.58,0-6.55-.87-6.55-6.69v-40.14h12.55c5.07.04,5.78,4.29,5.86,7.1l1.67-.63c0-1.97,0-3.95.06-5.86.28-1.93.57-3.76.77-5.76l-1.12-.2c-.39,2.24-2.44,2.34-4.27,2.28h-39.08c-1.61,0-3.54-.04-4.29-2.12h-1.18c0,2.03-.12,3.99-.49,6.02-.2,2.08-.49,3.99-.75,6h1.57c1-5.27,1.61-6.92,7.24-6.84v.69c-5.55.1-5.49.98-6.61,6.51l-.06.24h-2.93l.08-.35c.26-2.12.67-4.15.9-6.39.3-2.03.37-4.09.37-6.35v-.24h2.48l.04.18c.51,1.91,1.91,1.93,3.64,1.93h39.08c2.1,0,3.64-.02,3.72-2.01v-.33l.35.1,2.1.26-.08.39c-.28,2.03-.57,4.03-.73,6.04-.16,1.95-.16,3.99-.16,5.98v.22l-.16.08-2.75,1-.06-.47c-.12-2.77-.39-6.82-5.19-6.82h-11.82v39.45c0,5.58,2.24,6,5.82,6.06h1.75v2.95h-.33Z"/><path class="cls-2" d="M205.52,628.35h1.04c2.62,0,5.57-.33,5.57-4.27v-39.08c0-3.91-2.95-4.31-5.57-4.31h-1.04v-2.18c4.52,0,12.29.26,18.58.26s14.06-.26,19.15-.26c-.12,3.17-.06,8.14.18,11.39l-2.32.57c-.24-4.86-1.22-8.73-8.95-8.73h-10.44v19.59h8.83c4.46,0,5.49-2.62,5.92-6.59h2.22c-.1,2.93-.18,5.8-.18,8.77s.08,5.7.18,8.52l-2.22.45c-.43-4.5-.63-7.41-5.86-7.41h-8.89v17.4c0,4.92,4.27,4.92,9.03,4.92,8.99,0,12.96-.71,15.18-9.18l2.16.53c-.96,4.01-1.97,7.85-2.58,11.88-4.7,0-13.33-.31-20.06-.31s-15.73.31-19.92.31v-2.28Z"/><path class="cls-2" d="M245.17,630.28c.71-3.78,1.53-7.49,2.42-11.35l-1.49-.24c-2.14,8.28-6.51,9.07-15.36,8.99-4.7,0-9.42,0-9.46-5.21v-17.64h9.36c5.19-.12,5.76,2.97,6.02,7.28l1.69-.33c-.16-2.73-.16-5.51-.16-8.28s0-5.62.16-8.38h-1.69c-.37,3.85-1.59,6.61-6.08,6.57h-9.3v-20.28h10.86c7.71-.08,8.93,4.07,9.34,8.63l1.53-.35c-.1-2.24-.24-4.88-.24-7.43,0-1.2.08-2.44.08-3.48-5.02,0-12.61.26-18.76.26s-13.63-.26-18.25-.26v1.61h.71c2.62,0,5.82.45,5.82,4.6v39.08c0,4.19-3.19,4.62-5.82,4.62h-.71v1.59c4.37,0,12.94-.28,19.59-.28s14.89.28,19.74.28M245.48,631.01c-4.66,0-13.33-.39-20.04-.39s-15.73.39-19.94.39h-.3v-2.95h1.36c2.77-.02,5.23-.3,5.23-3.99v-39.08c0-3.68-2.46-3.91-5.23-3.95h-1.36v-2.95h.3c4.54,0,12.35.35,18.6.35s14.1-.35,19.19-.35h.37l-.08.43c-.08,1.06-.08,2.38-.08,3.74,0,2.6.08,5.49.2,7.63v.22l-.2.06-2.62.73v-.45c-.53-4.8-1.12-8.28-8.71-8.34h-10.21v18.88h8.65c4.29-.04,5.03-2.34,5.55-6.33v-.24h2.89v.3c-.14,2.97-.26,5.8-.26,8.77,0,2.77.12,5.7.26,8.52v.24l-.26.06-2.62.49v-.33c-.53-4.54-.59-7.14-5.49-7.14h-8.71v17.11c0,4.5,3.95,4.5,8.81,4.5,8.99-.08,12.61-.47,14.91-8.81l.06-.29h.28l2.4.69-.16.26c-.85,3.97-1.81,7.85-2.48,11.9l-.04.28h-.24Z"/><path class="cls-2" d="M267.72,603.72h3.62c7.43,0,11.5-2.79,11.5-11.66,0-6.59-4.27-10.89-10.97-10.89-2.2,0-3.17.22-4.15.29v22.26ZM258.1,586.34c0-5.45-2.97-5.66-5.23-5.66h-1.38v-2.2c2.32,0,7.04.28,11.56.28s8.04-.28,12.13-.28c9.32,0,17.64,2.5,17.64,13.12,0,6.75-4.37,10.78-10.34,13.2l12.76,19.06c2.08,3.17,3.64,4.09,7.3,4.46v2.3c-2.48,0-4.86-.33-7.37-.33-2.36,0-4.7.33-7.04.33-5.78-7.55-10.66-15.62-15.48-24.17h-4.92v15.89c0,5.88,2.66,5.98,6.12,5.98h1.32v2.3c-4.27,0-8.55-.33-12.84-.33-3.62,0-7.14.33-10.84.33v-2.3h1.38c2.67,0,5.23-1.24,5.23-3.97v-38.03Z"/><path class="cls-2" d="M271.37,603.44c7.28-.08,11.13-2.62,11.13-11.37,0-6.47-4.13-10.6-10.66-10.6-1.95,0-2.85.18-3.74.26v21.71h3.28ZM267.65,604.01h-.3v-22.83l.3-.04c1-.08,2.06-.3,4.19-.3,6.82,0,11.33,4.44,11.33,11.23,0,8.93-4.29,11.94-11.8,11.94h-3.72ZM267.65,606.07h5.13l.16.2c4.8,8.5,9.7,16.68,15.18,24.01,2.32,0,4.68-.28,7.08-.28s4.62.28,6.98.28v-1.63c-3.48-.39-5.17-1.46-7.16-4.58l-13.06-19.41.37-.16c5.86-2.34,10.27-6.29,10.27-12.9,0-10.34-8.14-12.76-17.46-12.82-4.03,0-7.65.26-12.07.26s-8.89-.26-11.21-.26v1.61h1.04c2.24,0,5.6.39,5.6,5.96v38.03c0,3.01-2.91,4.31-5.6,4.31h-1.04v1.59c3.52,0,6.92-.28,10.4-.28,4.21,0,8.46.28,12.59.28v-1.59h-.98c-3.5,0-6.53-.39-6.53-6.35v-16.28h.3ZM302.52,631.01c-2.48,0-4.82-.39-7.32-.39s-4.66.39-7.34.24c-5.7-7.59-10.58-15.61-15.42-24.17h-4.33v15.65c.06,5.7,2.22,5.66,5.78,5.72h1.67v2.95h-.41c-4.27,0-8.63-.39-12.88-.39-3.48,0-7.04.39-10.8.39h-.28v-2.95h1.73c2.6-.02,4.84-1.28,4.9-3.68v-38.03c-.12-5.27-2.66-5.23-4.9-5.31h-1.73v-2.95h.28c2.34,0,7.08.35,11.62.35s7.98-.35,12.07-.35c9.38.1,18.07,2.69,18.07,13.51,0,6.78-4.48,11.01-10.21,13.29l12.57,18.8c2.14,3.07,3.32,3.89,7,4.37l.24.08v2.87h-.28Z"/><path class="cls-2" d="M353.29,615.89l.1-.12v-28.02c0-6.14-4.23-7.06-6.47-7.06h-1.65v-2.2c3.48,0,6.88.28,10.4.28,3.13,0,6.12-.28,9.22-.28v2.2h-1.1c-3.11,0-6.71.61-6.71,9.48v34.06c0,2.52.02,5.23.51,7.49h-2.87l-38.49-42.89v30.84c0,6.49,1.34,8.67,7.06,8.67h1.32v2.3c-3.22,0-6.51-.33-9.75-.33s-6.73.33-10.13.33v-2.3h1.02c5.19,0,6.71-3.48,6.71-9.48v-31.47c0-4.15-3.32-6.69-6.78-6.69h-.96v-2.2c2.81,0,5.76.28,8.61.28,2.22,0,4.44-.28,6.65-.28l33.31,37.4Z"/><path class="cls-2" d="M353.04,615.77h0v-.06.06ZM353.29,615.89l.22-.18-.22.18ZM354.71,631.45h2.42c-.2-2.28-.31-4.82-.31-7.22v-34.06c0-8.95,3.78-9.79,6.96-9.79h.73v-1.61c-2.93,0-5.84.26-8.85.26-3.38,0-6.73-.26-10.15-.26v1.61h1.4c2.3,0,6.75,1.02,6.75,7.37l-.08,28.24-.08.14-.22.22-33.31-37.58c-2.22,0-4.35.26-6.65.26-2.79,0-5.53-.26-8.28-.26v1.61h.63c3.52,0,7.14,2.67,7.14,7v31.49c0,6.04-1.67,9.81-7.08,9.81h-.69v1.59c3.21,0,6.57-.28,9.81-.28s6.25.28,9.32.28v-1.59h-.89c-5.84,0-7.41-2.52-7.41-9.01v-31.6l38.84,43.38ZM357.58,632.02l-3.09-.08-37.84-42.26v29.99c.06,6.49.98,8.32,6.63,8.4h1.65v2.93h-.33c-3.28,0-6.51-.37-9.75-.37s-6.73.37-10.13.37h-.3v-2.93h1.32c5.07-.04,6.39-3.22,6.45-9.2v-31.49c-.06-3.97-3.26-6.35-6.51-6.35h-1.26v-2.93h.3c2.89,0,5.82.33,8.61.33,2.22,0,4.35-.33,6.9-.22l32.82,37.05v-27.51c0-5.98-4.05-6.69-6.12-6.71h-1.99v-2.93h.37c3.46,0,6.94.33,10.38.33,3.13,0,6.12-.33,9.22-.33h.41v2.93h-1.51c-3.07.08-6.31.37-6.41,9.14v34.06c0,2.52.1,5.15.51,7.47l.06.33h-.37Z"/><path class="cls-2" d="M387.84,586.82h-.2l-6.9,21.16h13.9l-6.8-21.16ZM376.93,619.92c-.73,2.54-1.63,4.52-1.63,5.82,0,2.28,3.13,2.6,5.49,2.6h.9v2.28c-2.97-.14-6.06-.3-9.07-.3-2.73,0-5.31.16-8.1.3v-2.28h.49c2.93,0,5.43-1.75,6.49-4.86l11.96-34.3c1.04-2.75,2.28-6.41,2.83-9.24,2.36-.79,5.41-2.28,6.67-3.19.35-.04.49-.16.69-.16.18,0,.37,0,.53.24.2.61.33,1.24.67,1.87l13.75,39.06c.9,2.58,1.81,5.33,2.75,7.63.9,2.12,2.42,2.95,4.98,2.95h.39v2.28c-3.4-.14-6.78-.3-10.32-.3s-7.32.16-11.21.3v-2.28h.83c1.69,0,4.58-.28,4.58-2.14,0-.94-.61-3.07-1.4-5.49l-2.97-8.52h-16.99l-2.32,7.73Z"/><path class="cls-2" d="M387.51,586.88h.12-.12ZM381.21,607.69h13.04l-6.55-20.08-6.49,20.08ZM380.35,608.3l7.12-21.79h.37v.3l-.14.02.14-.02v-.3h.2l7.1,21.79h-14.79ZM395.57,630.28c3.68-.18,7.28-.28,10.84-.28s6.71.1,9.95.28v-1.59h-.04c-2.6.06-4.35-.94-5.19-3.19-1.04-2.24-1.95-5.05-2.77-7.63l-13.86-39.08c-.22-.59-.37-1.28-.65-1.85h-.2c-.12,0-.22,0-.47.04-1.44.96-4.52,2.44-6.63,3.05-.47,2.87-1.79,6.51-2.75,9.28l-11.96,34.34c-1.2,3.22-3.74,5.05-6.84,5.05h-.12v1.59c2.62-.18,5.13-.28,7.73-.28,2.89,0,5.9.1,8.75.28v-1.59h-.57c-2.36-.04-5.82-.31-5.9-2.95,0-1.4.92-3.4,1.63-5.9l.41.08-.41-.08,2.48-8.04h17.54l2.93,8.87c.81,2.42,1.55,4.46,1.55,5.53-.16,2.32-3.34,2.44-4.98,2.48h-.47v1.59ZM416.75,631.01c-3.42-.16-6.8-.39-10.34-.39s-7.32.22-11.21.39h-.26v-2.97h1.1c1.69,0,4.25-.37,4.25-1.83,0-.81-.63-2.89-1.4-5.31l-2.89-8.4h-16.46l-2.3,7.57c-.75,2.52-1.73,4.52-1.67,5.68,0,1.83,2.87,2.3,5.23,2.3h1.24v2.97h-.35c-2.97-.16-6.06-.39-9.07-.39-2.67,0-5.31.22-8.04.39h-.37v-2.97h.79c2.79,0,5.07-1.65,6.25-4.64l11.92-34.3c.98-2.75,2.3-6.45,3.05-9.4,2.2-.86,5.27-2.34,6.67-3.24.22-.14.49-.24.75-.24.14,0,.59.1.73.49.24.61.55,1.24.75,1.93l13.77,39.02c.92,2.58,1.81,5.37,2.71,7.61.98,2.03,2.24,2.77,4.7,2.77h.81v2.97h-.39Z"/><path class="cls-2" d="M419.97,582.23c-5.51,0-5.76,1.28-6.9,6.75h-2.22c.24-2.1.73-4.17.86-6.31.22-2.1.49-4.19.49-6.47h1.79c.57,2.38,2.44,2.28,4.48,2.28h38.58c1.99,0,3.85-.08,4.05-2.42l1.73.41c-.31,2.01-.59,3.99-.81,6.02-.16,1.99-.16,4.05-.16,6.04l-2.2.83c-.18-2.73-.55-7.14-5.55-7.14h-12.31v39.76c0,5.76,2.75,6.37,6.31,6.37h1.38v2.28c-2.87,0-8.1-.33-12.19-.33-4.48,0-9.64.33-12.63.33v-2.28h1.46c4.17,0,6.19-.33,6.19-6.27v-39.86h-12.33Z"/><path class="cls-2" d="M449.5,631.01c-2.93,0-8.12-.39-12.25-.39-4.44,0-9.58.39-12.59.39h-.26v-2.95h1.73c4.17-.06,5.84-.12,5.9-5.96v-39.55h-12.04v-.69h12.68v40.24c0,6.04-2.42,6.59-6.53,6.59h-1.12v1.59c2.89,0,7.98-.28,12.25-.28,4.03,0,8.95.28,11.86.28v-1.59h-1.02c-3.62,0-6.53-.87-6.53-6.69v-40.14h12.53c5.01.04,5.72,4.29,5.84,7.1l1.67-.63c0-1.97,0-3.95.12-5.86.16-1.89.49-3.76.79-5.76l-1.12-.2c-.41,2.24-2.54,2.34-4.35,2.28h-38.86c-1.87,0-3.76-.04-4.5-2.12h-1.14c0,2.03-.14,3.99-.61,6.02-.12,2.08-.37,3.99-.73,6h1.63c.92-5.27,1.59-6.96,7.14-6.84v.69c-5.47.1-5.35.98-6.53,6.51l-.08.24h-2.89l.14-.35c.24-2.12.59-4.15.79-6.39.24-2.03.41-4.09.41-6.35v-.24h2.4l.1.18c.51,1.91,1.85,1.93,3.87,1.93h38.86c2.06,0,3.6-.02,3.64-2.01v-.33l.45.1,2.14.26v.39c-.39,2.03-.75,4.03-.85,6.04-.2,1.95-.2,3.99-.2,5.98v.22l-.26.08-2.63,1v-.47c-.22-2.77-.55-6.82-5.23-6.82h-11.84v39.45c.04,5.58,2.3,6,5.84,6.06h1.71v2.95h-.3Z"/><path class="cls-2" d="M465.63,628.35h1.06c2.71,0,5.43-.33,5.43-4.27v-39.08c0-3.91-2.73-4.31-5.43-4.31h-1.06v-2.18c2.91,0,7.34.26,10.97.26s8.3-.26,11.78-.26v2.18h-1.02c-2.67,0-5.45.41-5.45,4.31v39.08c0,3.95,2.79,4.27,5.45,4.27h1.02v2.28c-3.54,0-8.06-.31-11.78-.31s-8.06.31-10.97.31v-2.28Z"/><path class="cls-2" d="M488.05,630.28v-1.59h-.69c-2.65,0-5.8-.43-5.8-4.62v-39.08c0-4.15,3.15-4.6,5.8-4.6h.69v-1.61c-3.46,0-7.73.26-11.43.26s-7.79-.26-10.68-.26v1.61h.75c2.6,0,5.82.45,5.82,4.6v39.08c0,4.19-3.22,4.62-5.82,4.62h-.75v1.59c2.89,0,7.04-.28,10.68-.28s7.85.28,11.43.28M488.4,631.01c-3.64,0-8.08-.39-11.78-.39s-8.12.39-10.99.39h-.43v-2.95h1.49c2.67-.02,5.15-.3,5.19-3.99v-39.08c-.04-3.68-2.52-3.91-5.19-3.95h-1.49v-2.95h.43c2.87,0,7.34.35,10.99.35s8.28-.35,11.78-.35h.33v2.95h-1.36c-2.77.04-5.29.26-5.29,3.95v39.08c0,3.68,2.52,3.97,5.29,3.99h1.36v2.95h-.33Z"/><path class="cls-2" d="M519.4,628.47c14.47,0,16.99-12.76,16.99-23.64s-5.9-24.21-18.37-24.21-16.93,11.7-16.93,21.67c0,13.43,6.06,26.19,18.31,26.19M518.2,577.36c15.93,0,28.59,9.87,28.59,25.82,0,17.11-12.27,28.55-28.18,28.55s-27.98-10.8-27.98-26.84,12-27.53,27.57-27.53"/><path class="cls-2" d="M500.8,602.28c.06-9.99,3.87-21.99,17.21-21.99,12.68.08,18.6,13.57,18.64,24.54-.04,10.89-2.52,23.93-17.25,23.93v-.59c14.12,0,16.58-12.45,16.64-23.34,0-10.86-5.84-23.87-18.03-23.87s-16.56,11.43-16.7,21.32c.08,13.39,6.18,25.88,18.09,25.88v.59c-12.49,0-18.54-12.98-18.6-26.47M490.29,604.88c.12-15.77,12.29-27.79,27.91-27.83v.67c-15.4,0-27.22,11.88-27.22,27.16s11.88,26.51,27.63,26.57c15.73-.06,27.83-11.27,27.89-28.28-.06-15.79-12.49-25.45-28.3-25.45v-.67c16.05,0,28.97,9.99,28.97,26.12,0,17.29-12.47,28.81-28.57,28.85-16.03-.04-28.2-10.82-28.32-27.14"/><path class="cls-2" d="M597.18,615.89l.12-.12v-28.02c0-6.14-4.15-7.06-6.53-7.06h-1.59v-2.2c3.54,0,6.96.28,10.44.28,3.07,0,6.18-.28,9.24-.28v2.2h-1.08c-3.3,0-6.71.61-6.71,9.48v34.06c0,2.52.02,5.23.43,7.49h-2.79l-38.51-42.89v30.84c0,6.49,1.2,8.67,6.94,8.67h1.38v2.3c-3.28,0-6.51-.33-9.68-.33-3.4,0-6.82.33-10.13.33v-2.3h1.04c5.21,0,6.75-3.48,6.75-9.48v-31.47c0-4.15-3.48-6.69-6.84-6.69h-.96v-2.2c2.85,0,5.72.28,8.65.28,2.14,0,4.33-.28,6.59-.28l33.24,37.4Z"/><path class="cls-2" d="M597.02,615.77h0l-.08-.06.08.06ZM597.16,615.89l.33-.18-.33.18ZM598.7,631.45h2.38c-.22-2.28-.3-4.82-.3-7.22v-34.06c0-8.95,3.7-9.79,7.02-9.79h.71v-1.61c-2.93,0-5.86.26-8.97.26-3.34,0-6.59-.26-10.09-.26v1.61h1.32c2.42,0,6.9,1.02,6.9,7.37l-.08,28.24-.1.14-.33.22-33.22-37.58c-2.26,0-4.42.26-6.61.26-2.85,0-5.53-.26-8.36-.26v1.61h.69c3.56,0,7.2,2.67,7.2,7v31.49c0,6.04-1.67,9.81-7.14,9.81h-.75v1.59c3.32,0,6.61-.28,9.87-.28s6.29.28,9.36.28v-1.59h-1.02c-5.82,0-7.3-2.52-7.3-9.01v-31.6l38.84,43.38ZM601.49,632.02l-3.01-.08-37.94-42.26v29.99c.1,6.49,1,8.32,6.63,8.36h1.67v2.97h-.33c-3.28,0-6.49-.37-9.68-.37-3.4,0-6.82.37-10.13.37h-.31v-2.97h1.32c4.88,0,6.35-3.17,6.43-9.16v-31.49c0-3.97-3.28-6.35-6.49-6.35h-1.26v-2.93h.31c2.85,0,5.78.33,8.63.33,2.2,0,4.35-.33,6.84-.12l32.86,36.95v-27.51c0-5.98-3.99-6.67-6.25-6.71h-1.89v-2.93h.33c3.52,0,6.94.33,10.34.33,3.19,0,6.16-.33,9.32-.33h.33v2.93h-1.38c-3.26.08-6.39.37-6.47,9.14v34.06c0,2.52.08,5.15.55,7.47l.04.33h-.43Z"/><path class="cls-2" d="M631.75,586.82h-.1l-6.98,21.16h14l-6.92-21.16ZM620.84,619.92c-.75,2.54-1.67,4.52-1.67,5.82,0,2.28,3.15,2.6,5.64,2.6h.77v2.28c-2.93-.14-6.04-.3-8.93-.3s-5.37.16-8.14.3v-2.28h.41c2.95,0,5.49-1.75,6.49-4.86l11.96-34.3c1.04-2.75,2.36-6.41,2.85-9.24,2.34-.79,5.41-2.28,6.82-3.19.14-.04.35-.16.61-.16.22,0,.33,0,.43.24.2.61.51,1.24.71,1.87l13.81,39.06c.83,2.58,1.73,5.33,2.65,7.63.92,2.12,2.54,2.95,5.01,2.95h.45v2.28c-3.32-.14-6.71-.3-10.38-.3s-7.3.16-11.13.3v-2.28h.81c1.63,0,4.6-.28,4.6-2.14,0-.94-.69-3.07-1.4-5.49l-3.01-8.52h-16.95l-2.4,7.73Z"/><path class="cls-2" d="M631.38,586.88h.26-.26ZM625.14,607.69h13.02l-6.47-20.04-6.55,20.04ZM624.22,608.3l7.16-21.79h.37v.3l-.06.02.06-.02v-.3h.33l6.94,21.79h-14.79ZM639.54,630.28c3.66-.18,7.26-.28,10.78-.28s6.82.1,10.07.28v-1.59h-.18c-2.56,0-4.27-.94-5.19-3.19-1-2.24-1.93-5.05-2.73-7.63l-13.81-39.08c-.26-.59-.45-1.28-.61-1.81v-.04h-.22c-.26,0-.33,0-.47.12-1.47.87-4.5,2.36-6.65,2.97-.53,2.87-1.79,6.51-2.81,9.28l-11.88,34.34c-1.2,3.22-3.85,5.05-6.92,5.05h-.06v1.59c2.65-.18,5.15-.28,7.79-.28,2.79,0,5.78.1,8.71.28v-1.59h-.55c-2.38-.04-5.86-.31-5.98-2.95.08-1.4.96-3.4,1.71-5.9l.3.08-.3-.08,2.4-8.04h17.46l3.05,8.87c.77,2.42,1.53,4.46,1.53,5.53-.14,2.32-3.34,2.44-4.96,2.48h-.47v1.59ZM660.62,631.01c-3.34-.14-6.63-.39-10.3-.39s-7.3.24-11.13.39h-.35v-2.95h1.16c1.77,0,4.27-.39,4.27-1.85,0-.81-.65-2.89-1.49-5.31l-2.79-8.4h-16.5l-2.3,7.57c-.83,2.54-1.73,4.52-1.73,5.68,0,1.83,2.85,2.32,5.33,2.32h1.02v2.95h-.24c-2.93-.14-6.08-.39-8.93-.39s-5.37.24-8.18.39h-.28v-2.95h.73c2.83-.02,5.25-1.67,6.23-4.66l12-34.3c1-2.75,2.36-6.45,2.93-9.4,2.38-.86,5.41-2.34,6.8-3.24.22-.14.43-.24.77-.24.22,0,.51.1.71.49.31.61.49,1.24.73,1.93l13.73,39.02c.87,2.58,1.73,5.37,2.77,7.61.94,2.03,2.2,2.77,4.62,2.79h.83v2.95h-.43Z"/><path class="cls-2" d="M679.52,623.28c0,3.03,2.12,3.89,4.44,4.23,3.03.24,6.49.24,9.93-.12,3.09-.51,5.76-2.22,7.24-4.11,1.08-1.59,1.85-3.72,2.18-5.39h2.18c-.81,4.31-1.81,8.48-2.66,12.74-6.65,0-13.25-.31-19.74-.31s-13.22.31-19.82.31v-2.28h1.06c2.75,0,5.59-.33,5.59-4.96v-38.39c0-3.91-2.85-4.31-5.59-4.31h-1.06v-2.18c4.03,0,7.91.26,11.88.26s7.53-.26,11.39-.26v2.18h-2.01c-2.81,0-5,.1-5,4.07v38.53Z"/><path class="cls-2" d="M702.44,630.28c.85-4.05,1.81-8.04,2.58-12.04h-1.46c-.41,1.63-1.12,3.66-2.2,5.25-1.51,1.99-4.21,3.83-7.45,4.19-1.91.14-3.93.33-5.8.33-1.4,0-2.81-.06-4.23-.22-2.42-.22-4.68-1.36-4.68-4.5v-38.51c0-4.19,2.6-4.37,5.35-4.37h1.61v-1.61c-3.78,0-7.41.26-10.99.26-3.95,0-7.73-.26-11.5-.26v1.61h.61c2.66,0,5.96.45,5.96,4.54v38.45c0,4.88-3.3,5.31-5.96,5.31h-.61v1.59c6.39,0,12.76-.28,19.37-.28s12.94.28,19.39.28M702.8,631.01c-6.65,0-13.2-.39-19.76-.39s-13.16.39-19.76.39h-.2v-2.95h1.2c2.75-.02,5.33-.28,5.33-4.68v-38.45c0-3.62-2.58-3.85-5.33-3.89h-1.2v-2.95h.2c4.03,0,7.87.35,11.88.35,3.7,0,7.47-.35,11.33-.35h.24v2.95h-2.2c-2.83.08-4.62-.08-4.72,3.72v38.51c0,2.79,1.89,3.48,4.09,3.91,1.38.12,2.79.16,4.19.16,1.87,0,3.82-.16,5.76-.35,3.03-.41,5.6-2.08,6.92-3.91,1.08-1.59,1.73-3.58,2.3-5.23l.06-.3h2.71l-.06.43c-.81,4.25-1.77,8.4-2.64,12.78l-.06.24h-.28Z"/><path class="cls-2" d="M703.33,584.2h.85c1.04,0,1.59-.77,1.59-1.95,0-1.28-.75-1.73-1.63-1.73h-.81v3.68ZM700.75,588.4v-.37c.87-.12,1.08-.12,1.08-.75v-5.8c0-.85-.06-1.1-1.04-1.1v-.35h3.99c1.42,0,2.67.59,2.67,2.1,0,1.1-.73,2.01-1.87,2.36l1.2,1.77c.67.83,1.38,1.65,1.81,1.87v.26h-1.51c-.79,0-1.38-1.57-2.93-3.6h-.81v2.58c0,.53.16.53,1.08.65v.37h-3.66ZM704.59,590.57c3.56,0,6.21-2.95,6.21-6.37s-2.54-6.41-6.21-6.41-6.25,3.05-6.25,6.41,2.75,6.37,6.25,6.37M704.59,576.33c4.54,0,7.87,3.48,7.87,7.87s-3.34,7.85-7.87,7.85-7.83-3.42-7.83-7.85,3.34-7.87,7.83-7.87"/></g><rect class="cls-1" width="768" height="820"/></g></g></svg>