<?xml version="1.0" encoding="UTF-8"?><svg id="_レイヤー_2" xmlns="http://www.w3.org/2000/svg" xmlns:xlink="http://www.w3.org/1999/xlink" viewBox="0 0 884 820"><defs><style>.cls-1{clip-path:url(#clippath);}.cls-2{fill:none;}.cls-2,.cls-3,.cls-4,.cls-5,.cls-6,.cls-7,.cls-8{stroke-width:0px;}.cls-3{fill:url(#_名称未設定グラデーション_3-2);}.cls-9{clip-path:url(#clippath-1);}.cls-10{clip-path:url(#clippath-4);}.cls-11{clip-path:url(#clippath-3);}.cls-12{clip-path:url(#clippath-2);}.cls-4{fill:url(#_名称未設定グラデーション_2);}.cls-5{fill:url(#_名称未設定グラデーション_5);}.cls-6{fill:url(#_名称未設定グラデーション_4);}.cls-7{fill:url(#_名称未設定グラデーション_3);}.cls-8{fill:#fff;}</style><clipPath id="clippath"><path id="SVGID" class="cls-2" d="M640.24,421.98v51.78h56.83c1.7,0,5.12-.41,6.71-.74,10.93-2.31,20.06-11.96,20.06-25.14s-9.13-22.91-20.06-25.29c-1.59-.37-5.01-.61-6.71-.61h-56.83Z"/></clipPath><linearGradient id="_名称未設定グラデーション_3" x1="-421.18" y1="3357.03" x2="-399.4" y2="3357.03" gradientTransform="translate(5289.24 -36990.06) scale(11.15)" gradientUnits="userSpaceOnUse"><stop offset="0" stop-color="#007940"/><stop offset=".25" stop-color="#19893b"/><stop offset=".75" stop-color="#49a834"/><stop offset="1" stop-color="#5cb531"/></linearGradient><clipPath id="clippath-1"><path id="SVGID-2" class="cls-2" d="M690.43,115.79c-54.17,0-98.04,43.98-98.04,98.13v101.81h138.77c3.2,0,7.1.24,9.52.31,31.5,1.7,54.56,17.73,54.56,45.7,0,22.02-15.81,40.84-44.52,45.13v1.15c31.76,2.14,56.09,19.65,56.09,47.22,0,29.84-26.64,49.07-62.34,49.07h-152.08v199.89h143.76c54.26,0,98.11-43.85,98.11-98.02V115.79h-143.83Z"/></clipPath><linearGradient id="_名称未設定グラデーション_2" x1="-421.01" y1="3353.36" x2="-399.23" y2="3353.36" gradientTransform="translate(5279.62 -36923.64) scale(11.13)" gradientUnits="userSpaceOnUse"><stop offset="0" stop-color="#007940"/><stop offset=".25" stop-color="#19893b"/><stop offset=".75" stop-color="#49a834"/><stop offset="1" stop-color="#5cb531"/><stop offset="1" stop-color="#5cb531"/></linearGradient><clipPath id="clippath-2"><path id="SVGID-3" class="cls-2" d="M640.24,344.98v47.75h51.54c1.9,0,4.6-.26,5.66-.41,10.56-1.83,19.71-10.56,19.71-23.39s-9.15-21.63-19.71-23.48c-1.07-.09-3.77-.46-5.66-.46h-51.54Z"/></clipPath><linearGradient id="_名称未設定グラデーション_3-2" x1="-421.19" y1="3350.36" x2="-399.41" y2="3350.36" gradientTransform="translate(5290.82 -37006.11) scale(11.16)" xlink:href="#_名称未設定グラデーション_3"/><clipPath id="clippath-3"><path id="SVGID-4" class="cls-2" d="M147.84,115.79c-54.24,0-98.08,43.98-98.08,98.13v242.13c27.47,13.4,55.83,22.04,84.71,22.04,34.09,0,52.6-20.67,52.6-48.55v-113.81h84.4v113.81c0,44.5-27.4,80.2-121.06,80.2-56.52,0-100.65-12.18-100.65-12.18v206.64h143.72c54.21,0,98.15-43.85,98.15-98.02V115.79h-143.78Z"/></clipPath><linearGradient id="_名称未設定グラデーション_4" x1="-468.08" y1="3357.32" x2="-446.3" y2="3357.32" gradientTransform="translate(5341.2 -37545.13) scale(11.31)" gradientUnits="userSpaceOnUse"><stop offset="0" stop-color="#1f286f"/><stop offset=".12" stop-color="#1a3279"/><stop offset=".71" stop-color="#075ea9"/><stop offset="1" stop-color="#006fbc"/></linearGradient><clipPath id="clippath-4"><path id="SVGID-5" class="cls-2" d="M419.09,115.79c-54.17,0-98.13,43.98-98.13,98.13v128.38c24.83-21.3,67.87-34.7,137.77-31.52,37.25,1.63,76.89,11.65,76.89,11.65v41.52c-19.78-10-43.63-19.36-74.25-21.63-52.91-4.03-84.86,21.83-84.86,67.72s31.95,71.68,84.86,67.7c30.62-2.35,54.72-11.89,74.25-21.69v41.52s-39.64,10.04-76.89,11.74c-69.9,3.09-112.94-10.19-137.77-31.5v226.4h143.85c54.3,0,98.15-43.85,98.15-98.02V115.79h-143.87Z"/></clipPath><linearGradient id="_名称未設定グラデーション_5" x1="-443.63" y1="3349.82" x2="-421.85" y2="3349.82" gradientTransform="translate(5192.76 -36387.1) scale(10.98)" gradientUnits="userSpaceOnUse"><stop offset="0" stop-color="#6c2c2f"/><stop offset=".41" stop-color="#a31733"/><stop offset=".8" stop-color="#d30637"/><stop offset="1" stop-color="#e60039"/></linearGradient></defs><g id="_レイヤー_1-2"><g id="pay_ico-jcb"><g id="pay_ico-jcb-2"><path class="cls-8" d="M883.36,612.67c0,75.82-61.42,137.33-137.4,137.33H.64V207.31C.64,131.42,62.15,70,137.9,70h745.46v542.67Z"/><g class="cls-1"><rect class="cls-7" x="640.24" y="421.98" width="83.6" height="51.78"/></g><g class="cls-9"><rect class="cls-4" x="592.39" y="115.79" width="241.86" height="588.41"/></g><g class="cls-12"><rect class="cls-3" x="640.24" y="344.98" width="76.91" height="47.75"/></g><g class="cls-11"><rect class="cls-6" x="49.76" y="115.79" width="241.86" height="588.41"/></g><g class="cls-10"><rect class="cls-5" x="320.96" y="115.79" width="242" height="588.41"/></g></g><rect class="cls-2" width="884" height="820"/></g></g></svg>