<?xml version="1.0" encoding="UTF-8"?><svg id="_レイヤー_2" xmlns="http://www.w3.org/2000/svg" xmlns:xlink="http://www.w3.org/1999/xlink" viewBox="0 0 880 820"><defs><style>.cls-1{fill:#e57f12;}.cls-1,.cls-2,.cls-3,.cls-4,.cls-5{stroke-width:0px;}.cls-6{clip-path:url(#clippath);}.cls-2{fill:none;}.cls-3{fill:#231815;}.cls-4{fill:url(#_名称未設定グラデーション_9);}.cls-5{fill:#fff;}</style><clipPath id="clippath"><path id="SVGID" class="cls-2" d="M393.96,365.05c0,37.25,30.15,67.38,67.32,67.38s67.39-30.13,67.39-67.38-30.09-67.3-67.39-67.3-67.32,30.11-67.32,67.3"/></clipPath><linearGradient id="_名称未設定グラデーション_9" x1="-932.29" y1="2118.73" x2="-911.94" y2="2118.73" gradientTransform="translate(9484.78 -3538.48) rotate(-90) scale(4.26 -4.26)" gradientUnits="userSpaceOnUse"><stop offset="0" stop-color="#eaa017"/><stop offset=".24" stop-color="#e99b16"/><stop offset=".51" stop-color="#e78d14"/><stop offset=".62" stop-color="#e68613"/><stop offset=".76" stop-color="#e47d11"/><stop offset="1" stop-color="#e27110"/></linearGradient></defs><g id="_レイヤー_1-2"><g id="pay_ico-discover"><g id="pay_ico-discover-2"><polygon class="cls-5" points="6.65 134.31 875.13 134.27 875.13 687.39 6.81 687.41 6.65 134.31"/><path class="cls-1" d="M871.09,441.02s-237.33,167.41-671.9,242.36h671.9v-242.36Z"/><path class="cls-3" d="M79.1,301.27h-36.11v126.67h35.97c19.19,0,33.08-4.5,45.17-14.57,14.42-12.04,22.97-30.03,22.97-48.67,0-37.33-27.91-63.44-68-63.44M107.99,396.49c-7.81,7.08-17.86,10.01-33.77,10.01h-6.61v-83.62h6.61c15.91,0,25.66,2.79,33.77,10.21,8.59,7.55,13.71,19.33,13.71,31.48s-5.13,24.35-13.71,31.92"/><rect class="cls-3" x="158.44" y="301.28" width="24.74" height="126.67"/><path class="cls-3" d="M224.3,334.07c0-8.06,7.79-14.1,18.39-14.1,7.47,0,13.51,3.05,20.04,10.23l12.78-16.85c-10.54-9.28-23.28-14.06-37.13-14.06-22.42,0-39.45,15.54-39.45,36.32,0,17.42,8,26.31,31.07,34.63,9.74,3.48,14.59,5.72,17.09,7.22,4.88,3.19,7.32,7.79,7.32,13.12,0,10.21-8.06,17.84-19.1,17.84-11.72,0-21.26-5.88-26.92-16.85l-15.91,15.36c11.29,16.64,25.07,24.07,43.78,24.07,25.59,0,43.68-17.07,43.68-41.55,0-20.14-8.34-29.24-36.48-39.49-14.75-5.53-19.17-9.11-19.17-15.91"/><path class="cls-3" d="M354.52,321.11c11.74,0,20.67,4.21,30.93,14.14v-28.93c-10.78-5.51-19.76-7.79-30.38-7.79-37.33,0-67.36,29.4-67.36,66.21s29.2,66.1,66.82,66.1c10.64,0,19.76-2.12,30.93-7.39v-29.07c-9.89,9.89-18.62,13.82-29.73,13.82-24.9,0-42.52-18.01-42.52-43.62s18.07-43.46,41.32-43.46"/><polygon class="cls-3" points="581.24 386.38 547.47 301.27 520.53 301.27 574.18 431.14 587.51 431.14 642.1 301.27 615.43 301.27 581.24 386.38"/><polygon class="cls-3" points="653.35 427.95 723.28 427.95 723.28 406.5 677.87 406.5 677.87 372.34 721.63 372.34 721.63 350.92 677.87 350.92 677.87 322.88 723.28 322.88 723.28 301.27 653.35 301.27 653.35 427.95"/><path class="cls-3" d="M821.09,338.74c0-23.66-16.34-37.46-44.9-37.46h-36.46v126.65h24.58v-50.86h3.32l34.12,50.86h30.4l-39.9-53.37c18.6-3.72,28.85-16.46,28.85-35.83M771.53,359.68h-7.22v-38.39h7.65c15.34,0,23.85,6.51,23.85,18.76s-8.5,19.63-24.27,19.63"/><path class="cls-3" d="M836.87,306.11c0-2.18-1.59-3.38-4.23-3.38h-3.62v11.09h2.69v-4.35l3.09,4.35h3.21l-3.6-4.64c1.63-.33,2.46-1.55,2.46-3.07M832.13,307.64h-.43v-2.95h.51c1.3,0,2.03.59,2.03,1.49,0,1-.73,1.46-2.12,1.46"/><path class="cls-3" d="M833.12,298.54c-5.31,0-9.6,4.37-9.6,9.73s4.29,9.71,9.6,9.71,9.62-4.35,9.62-9.71-4.27-9.73-9.62-9.73M833.12,316.22c-4.33,0-7.75-3.58-7.75-7.95s3.42-8.02,7.75-8.02,7.73,3.64,7.73,8.02-3.5,7.95-7.73,7.95"/><g class="cls-6"><rect class="cls-4" x="374.77" y="272.08" width="186.03" height="186.02" transform="translate(-122.97 309.2) rotate(-32.57)"/></g><path class="cls-3" d="M877.58,689.64H2.42V130.36h875.15v559.28ZM9.1,682.97h861.8V137.03H9.1v545.93Z"/></g><rect class="cls-2" width="880" height="820"/></g></g></svg>