<?xml version="1.0" encoding="UTF-8"?><svg id="_レイヤー_2" xmlns="http://www.w3.org/2000/svg" viewBox="0 0 765 820"><defs><style>.cls-1{fill:none;}.cls-1,.cls-2,.cls-3,.cls-4,.cls-5{stroke-width:0px;}.cls-2{fill:#231815;}.cls-3{fill:#f5a400;}.cls-4{fill:#e60615;}.cls-5{fill:#ec6700;}</style></defs><g id="_レイヤー_1-2"><g id="pay_ico-master"><g id="master"><path class="cls-2" d="M131.3,646.16c-2.19-2.2-4.79-3.9-7.8-5.12-3.01-1.22-6.31-1.83-9.88-1.83-1.89,0-3.86.16-5.9.49-2.04.33-4.04.9-6,1.73-1.96.83-3.82,1.97-5.59,3.43-1.77,1.46-3.31,3.3-4.61,5.51-2.11-3.48-4.96-6.21-8.56-8.19-3.6-1.98-7.72-2.97-12.35-2.97-1.56,0-3.17.14-4.83.42-1.66.28-3.32.77-4.96,1.47-1.64.7-3.21,1.64-4.71,2.84-1.49,1.2-2.85,2.71-4.07,4.54v-7.63h-13.14v62.51h13.26v-34.65c0-2.65.42-5.01,1.26-7.08.84-2.07,1.97-3.79,3.38-5.19,1.41-1.39,3.06-2.45,4.96-3.16,1.89-.72,3.92-1.08,6.06-1.08,4.46,0,7.93,1.41,10.39,4.24,2.46,2.83,3.69,6.87,3.69,12.14v34.78h13.26v-34.65c0-2.65.42-5.01,1.26-7.08.84-2.07,1.97-3.79,3.38-5.19,1.41-1.39,3.06-2.45,4.96-3.16,1.89-.72,3.92-1.08,6.06-1.08,4.46,0,7.93,1.41,10.39,4.24,2.46,2.83,3.69,6.87,3.69,12.14v34.78h13.26v-39.28c0-3.65-.6-7-1.8-10.05-1.2-3.04-2.9-5.67-5.08-7.86Z"/><path class="cls-2" d="M201.24,648.41c-2.18-2.78-4.87-5.01-8.09-6.69-3.22-1.67-7.07-2.51-11.55-2.51s-8.48.82-12.27,2.45c-3.78,1.63-7.09,3.9-9.92,6.82-2.83,2.91-5.05,6.38-6.66,10.41-1.61,4.02-2.41,8.43-2.41,13.21s.8,9.19,2.41,13.21c1.61,4.02,3.83,7.49,6.66,10.41,2.83,2.91,6.13,5.19,9.92,6.82,3.78,1.63,7.87,2.45,12.27,2.45s8.33-.83,11.55-2.48c3.22-1.65,5.92-3.87,8.09-6.66v7.5h13.64v-62.51h-13.64v7.57ZM200.72,680.06c-.91,2.44-2.2,4.55-3.85,6.33-1.65,1.78-3.63,3.19-5.94,4.21-2.31,1.02-4.87,1.53-7.7,1.53s-5.6-.53-7.93-1.6c-2.33-1.07-4.3-2.5-5.91-4.31-1.61-1.81-2.85-3.93-3.72-6.36-.87-2.44-1.31-5.02-1.31-7.77s.43-5.33,1.31-7.76c.87-2.44,2.11-4.56,3.72-6.36,1.61-1.8,3.58-3.24,5.91-4.31,2.33-1.07,4.97-1.6,7.93-1.6s5.39.51,7.7,1.53c2.31,1.02,4.28,2.43,5.94,4.21,1.65,1.78,2.94,3.89,3.85,6.33.91,2.44,1.37,5.09,1.37,7.96s-.46,5.53-1.37,7.96Z"/><path class="cls-2" d="M277.57,672c-3.83-2.98-9.16-4.97-15.99-5.97l-6.46-.98c-1.44-.22-2.79-.47-4.05-.75-1.26-.28-2.35-.66-3.26-1.14-.91-.48-1.64-1.09-2.19-1.83-.55-.74-.82-1.65-.82-2.74,0-2.22,1.03-4.01,3.1-5.38,2.07-1.37,4.97-2.05,8.71-2.05,1.96,0,3.88.17,5.77.52,1.89.35,3.69.78,5.38,1.31,1.7.52,3.24,1.1,4.63,1.73,1.39.63,2.57,1.23,3.52,1.79l5.87-10.64c-3.26-2.09-7.07-3.71-11.42-4.86-4.35-1.15-8.98-1.73-13.9-1.73-4,0-7.59.47-10.77,1.4-3.18.94-5.88,2.26-8.12,3.98-2.24,1.72-3.96,3.82-5.15,6.3-1.2,2.48-1.79,5.26-1.79,8.35,0,5.05,1.79,9.13,5.38,12.23,3.59,3.11,8.86,5.14,15.82,6.1l6.53.85c3.74.52,6.48,1.36,8.22,2.51,1.74,1.15,2.61,2.62,2.61,4.4,0,2.35-1.2,4.21-3.59,5.58-2.39,1.37-5.94,2.06-10.64,2.06-2.57,0-4.86-.17-6.88-.52-2.02-.35-3.87-.82-5.55-1.4-1.68-.59-3.18-1.26-4.5-2.02-1.33-.76-2.56-1.58-3.69-2.45l-6.33,10.24c2.26,1.7,4.63,3.07,7.11,4.11,2.48,1.04,4.92,1.86,7.31,2.45,2.39.59,4.65.98,6.79,1.17,2.13.2,4,.29,5.61.29,4.48,0,8.49-.5,12.04-1.5,3.55-1,6.53-2.4,8.94-4.21,2.41-1.8,4.26-3.96,5.55-6.46,1.28-2.5,1.92-5.25,1.92-8.25,0-5.35-1.91-9.52-5.74-12.5Z"/><path class="cls-2" d="M405.26,648.31c-2.59-2.89-5.7-5.13-9.33-6.72-3.63-1.59-7.62-2.38-11.97-2.38-4.61,0-8.82.79-12.63,2.38-3.81,1.59-7.08,3.83-9.82,6.72-2.74,2.89-4.87,6.36-6.4,10.41-1.52,4.05-2.28,8.5-2.28,13.38s.78,9.46,2.35,13.51c1.57,4.05,3.76,7.5,6.59,10.37,2.83,2.87,6.2,5.09,10.11,6.66,3.92,1.57,8.22,2.35,12.92,2.35s9.26-.65,13.54-1.96c4.28-1.31,8.34-3.59,12.17-6.85l-6.79-9.72c-2.61,2.09-5.49,3.71-8.65,4.86-3.15,1.15-6.3,1.73-9.43,1.73-2.22,0-4.35-.3-6.39-.91-2.05-.61-3.89-1.55-5.55-2.84-1.65-1.28-3.07-2.93-4.24-4.93-1.17-2-1.98-4.42-2.41-7.24h46.2c.09-.78.15-1.61.2-2.48.04-.87.06-1.74.06-2.61,0-4.87-.73-9.32-2.19-13.34-1.46-4.02-3.48-7.48-6.07-10.37ZM367.12,666.75c.35-2.26.96-4.34,1.83-6.23.87-1.89,1.99-3.52,3.36-4.89,1.37-1.37,3-2.42,4.89-3.17,1.89-.74,4.06-1.11,6.49-1.11,4.35,0,7.9,1.35,10.64,4.05,2.74,2.7,4.48,6.48,5.22,11.35h-32.43Z"/><path class="cls-2" d="M586.45,648.41c-2.18-2.78-4.87-5.01-8.09-6.69-3.22-1.67-7.07-2.51-11.55-2.51s-8.48.82-12.27,2.45c-3.78,1.63-7.09,3.9-9.92,6.82-2.83,2.91-5.05,6.38-6.66,10.41-1.61,4.02-2.41,8.43-2.41,13.21s.81,9.19,2.41,13.21c1.61,4.02,3.83,7.49,6.66,10.41,2.83,2.91,6.13,5.19,9.92,6.82,3.78,1.63,7.87,2.45,12.27,2.45s8.33-.83,11.55-2.48c3.22-1.65,5.92-3.87,8.09-6.66v7.5h13.64v-62.51h-13.64v7.57ZM585.93,680.06c-.91,2.44-2.2,4.55-3.85,6.33-1.65,1.78-3.63,3.19-5.94,4.21-2.31,1.02-4.87,1.53-7.7,1.53s-5.6-.53-7.93-1.6c-2.33-1.07-4.3-2.5-5.91-4.31-1.61-1.81-2.85-3.93-3.72-6.36-.87-2.44-1.31-5.02-1.31-7.77s.43-5.33,1.31-7.76c.87-2.44,2.11-4.56,3.72-6.36,1.61-1.8,3.58-3.24,5.91-4.31,2.33-1.07,4.97-1.6,7.93-1.6s5.39.51,7.7,1.53c2.31,1.02,4.28,2.43,5.94,4.21,1.65,1.78,2.94,3.89,3.85,6.33.91,2.44,1.37,5.09,1.37,7.96s-.46,5.53-1.37,7.96Z"/><path class="cls-2" d="M336.05,690.89c-2.2.83-4.36,1.24-6.49,1.24-1.39,0-2.69-.22-3.88-.65-1.2-.43-2.24-1.12-3.13-2.05-.89-.93-1.6-2.14-2.12-3.62-.52-1.48-.78-3.26-.78-5.35v-27.21h21.9v-12.4h-21.9v-18.92h-13.7v18.92h-12.46v12.4h12.46v27.47c0,8.31,1.97,14.43,5.91,18.37,3.94,3.94,9.45,5.91,16.54,5.91,3.96,0,7.51-.61,10.67-1.83,2.08-.8,4.02-1.73,5.83-2.74l-4.66-11.42c-1.32.71-2.7,1.34-4.17,1.89Z"/><path class="cls-2" d="M459.17,639.21c-3.83,0-7.29.7-10.38,2.09-3.09,1.39-5.68,4.74-7.76,7.75v-8.2h-12.38v62.51h12.51v-34.39c0-2.65.37-5.02,1.11-7.11.74-2.09,1.76-3.85,3.07-5.29,1.3-1.44,2.87-2.52,4.7-3.26,1.83-.74,3.83-1.11,6-1.11,1.65,0,3.44.2,5.35.59.98.2,1.89.45,2.74.74l4.03-13.05c-1.09-.35-2.2-.64-3.35-.84-1.68-.28-3.56-.42-5.64-.42Z"/><path class="cls-2" d="M648.75,639.21c-3.83,0-7.29.7-10.38,2.09-3.09,1.39-5.68,4.74-7.76,7.75v-8.2h-12.38v62.51h12.51v-34.39c0-2.65.37-5.02,1.11-7.11.74-2.09,1.76-3.85,3.07-5.29,1.3-1.44,2.87-2.52,4.7-3.26,1.83-.74,3.83-1.11,6-1.11,1.65,0,3.44.2,5.35.59.98.2,1.89.45,2.74.74l4.03-13.05c-1.09-.35-2.2-.64-3.35-.84-1.68-.28-3.56-.42-5.64-.42Z"/><path class="cls-2" d="M712.45,615.43v32.98c-2.18-2.78-4.87-5.01-8.09-6.69-3.22-1.67-7.07-2.51-11.55-2.51s-8.48.82-12.27,2.45c-3.79,1.63-7.09,3.9-9.92,6.82-2.83,2.91-5.05,6.38-6.66,10.41-1.61,4.02-2.41,8.43-2.41,13.21s.8,9.19,2.41,13.21c1.61,4.02,3.83,7.49,6.66,10.41,2.83,2.91,6.13,5.19,9.92,6.82,3.78,1.63,7.87,2.45,12.27,2.45s8.33-.83,11.55-2.48c3.22-1.65,5.92-3.87,8.09-6.66v7.5h13.64v-87.92h-13.64ZM711.93,680.06c-.91,2.44-2.2,4.55-3.85,6.33-1.65,1.78-3.63,3.19-5.94,4.21-2.31,1.02-4.87,1.53-7.7,1.53s-5.6-.53-7.93-1.6c-2.33-1.07-4.3-2.5-5.91-4.31-1.61-1.81-2.85-3.93-3.72-6.36-.87-2.44-1.31-5.02-1.31-7.77s.43-5.33,1.31-7.76c.87-2.44,2.11-4.56,3.72-6.36,1.61-1.8,3.58-3.24,5.91-4.31,2.33-1.07,4.97-1.6,7.93-1.6s5.39.51,7.7,1.53c2.31,1.02,4.28,2.43,5.94,4.21,1.65,1.78,2.94,3.89,3.85,6.33.91,2.44,1.37,5.09,1.37,7.96s-.46,5.53-1.37,7.96Z"/><path class="cls-2" d="M491.81,657.65c1.74-1.76,3.81-3.13,6.2-4.11,2.39-.98,4.98-1.47,7.77-1.47h0c3.06,0,5.91.49,8.54,1.47,2.54.95,4.75,2.27,6.62,3.94l6.57-10.92c-2.46-1.97-5.23-3.58-8.32-4.84-4.11-1.67-8.58-2.51-13.41-2.51s-9.3.84-13.41,2.51c-4.11,1.67-7.66,3.98-10.64,6.92-2.98,2.94-5.32,6.41-7.01,10.41-1.7,4-2.55,8.35-2.55,13.05s.85,9.05,2.55,13.05c1.7,4,4.03,7.47,7.01,10.41,2.98,2.94,6.52,5.24,10.64,6.92,4.11,1.67,8.58,2.51,13.41,2.51s9.3-.84,13.41-2.51c3.08-1.26,5.86-2.87,8.32-4.83l-6.57-10.92c-1.87,1.68-4.07,3-6.62,3.94-2.63.98-5.48,1.47-8.54,1.47h0c-2.78,0-5.37-.49-7.77-1.47-2.39-.98-4.46-2.35-6.2-4.11-1.74-1.76-3.11-3.87-4.11-6.33-1-2.46-1.5-5.17-1.5-8.12s.5-5.67,1.5-8.12c1-2.46,2.37-4.57,4.11-6.33Z"/><path class="cls-2" d="M754.82,694.2c.91,0,1.76.17,2.55.5.8.34,1.49.79,2.08,1.37.59.58,1.06,1.25,1.4,2.02.34.77.51,1.6.51,2.48s-.17,1.69-.51,2.47c-.34.78-.81,1.45-1.4,2.04-.59.58-1.28,1.04-2.08,1.38-.79.34-1.65.5-2.55.5s-1.79-.17-2.6-.5c-.8-.34-1.5-.79-2.09-1.38-.59-.58-1.06-1.26-1.39-2.04-.34-.78-.5-1.6-.5-2.47s.17-1.71.5-2.48c.34-.77.8-1.45,1.39-2.02.59-.58,1.29-1.03,2.09-1.37.8-.34,1.67-.5,2.6-.5ZM754.82,705.18c.63,0,1.23-.12,1.79-.36.56-.24,1.04-.57,1.45-.99.41-.42.74-.9.97-1.46.24-.56.35-1.16.35-1.8s-.12-1.23-.35-1.8c-.24-.56-.56-1.05-.97-1.46-.41-.41-.9-.74-1.45-.98-.56-.24-1.15-.36-1.79-.36s-1.26.12-1.82.36c-.56.24-1.05.57-1.47.98-.42.41-.74.9-.98,1.46-.24.56-.35,1.16-.35,1.8s.12,1.24.35,1.8c.24.56.56,1.05.98,1.46.42.42.91.75,1.47.99.56.24,1.17.36,1.82.36ZM755.19,697.74c.78,0,1.36.17,1.77.52.4.35.6.81.6,1.38,0,.45-.14.83-.43,1.13-.29.3-.71.49-1.26.59l1.76,2.03h-1.9l-1.58-1.97h-.18v1.97h-1.59v-5.65h2.81ZM753.97,699.12v1.04h1.19c.25,0,.44-.04.57-.11.13-.08.2-.21.2-.4,0-.18-.07-.31-.2-.4-.13-.09-.32-.13-.57-.13h-1.19Z"/><path class="cls-4" d="M292.61,348.63c0-74.89,34.99-141.57,89.46-184.72-40.17-31.82-90.91-50.87-146.13-50.87C105.83,113.04.35,218.52.35,348.63s105.48,235.59,235.59,235.59c55.22,0,105.97-19.05,146.13-50.87-54.47-43.15-89.46-109.83-89.46-184.72Z"/><path class="cls-5" d="M292.61,348.63c0,74.89,34.99,141.57,89.46,184.72,54.47-43.15,89.46-109.83,89.46-184.72s-34.99-141.57-89.46-184.72c-54.47,43.15-89.46,109.83-89.46,184.72Z"/><path class="cls-3" d="M747.82,476.07v-6.9h-2.79v-1.9h7.64v1.9h-2.79v6.9h-2.06ZM762.59,476.07v-6.1l-1.98,5.26h-2.18l-1.98-5.25v6.09h-2.06v-8.79h2.95l2.18,5.63,2.17-5.63h2.95v8.79h-2.06Z"/><path class="cls-3" d="M528.21,113.04c-55.22,0-105.97,19.05-146.13,50.87,54.47,43.15,89.46,109.83,89.46,184.72s-34.99,141.57-89.46,184.72c40.17,31.82,90.91,50.87,146.13,50.87,130.11,0,235.59-105.48,235.59-235.59s-105.48-235.59-235.59-235.59Z"/></g><rect class="cls-1" width="765" height="820"/></g></g></svg>