<?xml version="1.0" encoding="UTF-8"?><svg id="_レイヤー_2" xmlns="http://www.w3.org/2000/svg" viewBox="0 0 598 820"><defs><style>.cls-1{fill:#0071bd;}.cls-1,.cls-2,.cls-3{stroke-width:0px;}.cls-2{fill:none;}.cls-3{fill:#fff;}</style></defs><g id="_レイヤー_1-2"><g id="pay_ico-amex"><g id="pay_ico-amex-2"><path class="cls-1" d="M563.33,484.32v-49.62h32.78V112.24H.6v228.9l24.09-26.07-6.25,86.21H.6v306.47h595.51v-174.25c-.89.54-31.78.76-32.78,1.24v-50.42Z"/><path class="cls-3" d="M596.25,533.42v-98.71H231.12l-9.58,13.53-9.61-13.53h-105.97v104.64h105.58l9.41-13.83,9.74,13.83h66.28v-23.07h-2.05c8.76,0,16.79-1.66,23.79-4.38v27.44h47.88v-12.72l9.67,12.72h197.26c8.65,0,16.34-2.11,22.74-5.92M522.93,401.32h45.15v-104.7h-49.01v14.66l-9.3-14.66h-42.69v18.93l-8.32-18.93h-68.79c-3.01,0-5.97.22-8.91.63-2.9.37-5.69,1-8.39,1.79-2.09.59-4.12,1.33-6.08,2.18-2.07.91-4.07,1.96-5.99,3.16v-7.75h-224.48l-5.99,17.56-6.06-17.56h-53.52v18.93l-8.28-18.93H19.69L.54,341.55v59.77h29.97l5.77-15.14h10.24l5.84,15.14h234.15v-12.74l9.65,12.74h64.45v-7.19c1.79,1.07,3.64,2,5.53,2.79,1.85.81,3.77,1.46,5.69,2.05,2.68.78,5.34,1.33,8.02,1.7,3.07.44,6.14.65,9.04.65h38.1l5.77-15.14h10.24l5.86,15.14h65.61v-13.05l8.47,13.05Z"/><path class="cls-1" d="M179.45,466.18v-14.25h-55.3v70.18h55.3v-14.25h-39.32v-14.03h38.44v-13.94h-38.44v-13.72h39.32ZM238.82,522.11h20.1l-28.05-35.42,27.9-34.76h-19.58l-17.6,22.85-17.69-22.85h-20.17l28.08,35.07-27.97,35.11h19.58l17.6-23.15,17.8,23.15ZM263.44,451.93v70.18h16.07v-23.46h21.32c15.23,0,24.68-9.91,24.68-23.33s-9.24-23.39-24.05-23.39h-38.03ZM309.42,475.39c0,5.01-3.27,9.04-9.37,9.04h-20.54v-18.25h20.54c6.1,0,9.37,4.07,9.37,9.21M351.98,496.54h8.12l21.54,25.57h20.15l-23.22-26.16c11.87-2.2,18.93-10.63,18.93-21.59,0-13.31-9.24-22.44-24.07-22.44h-37.49v70.18h16.03v-25.57ZM372.04,466.18c6.1,0,9.32,3.7,9.32,8.32s-3.22,8.3-9.32,8.3h-20.06v-16.62h20.06ZM462.78,466.18v-14.25h-55.33v70.18h55.33v-14.25h-39.36v-14.03h38.44v-13.94h-38.44v-13.72h39.36ZM508.98,507.87h-35.81v14.25h34.89c15.12,0,24.16-9.15,24.16-22.04s-8.34-20.17-21.76-20.17h-15.92c-4.25,0-7.21-2.7-7.21-6.93s2.96-6.8,7.21-6.8h30.08l6.32-14.25h-35.5c-15.14,0-24.18,9.19-24.18,21.76s8.52,20.32,21.76,20.32h15.97c4.18,0,7.21,2.72,7.21,7.06,0,4.09-3.03,6.8-7.21,6.8M574.22,507.87h-35.79v14.25h34.89c15.12,0,24.13-9.15,24.13-22.04s-8.28-20.17-21.74-20.17h-15.92c-4.2,0-7.21-2.7-7.21-6.93s3.01-6.8,7.21-6.8h30.08l6.32-14.25h-35.48c-15.14,0-24.16,9.19-24.16,21.76s8.47,20.32,21.74,20.32h15.92c4.2,0,7.21,2.72,7.21,7.06,0,4.09-3.01,6.8-7.21,6.8"/><path class="cls-1" d="M64.59,384.05h17.71l-29.95-70.18h-21.32L.92,384.05h17.36l5.97-15.16h34.31l6.03,15.16ZM35.99,339.36l5.31-14.75,5.42,14.75,6.4,16.12h-23.57l6.43-16.12ZM123.03,384.05h13.94l20.26-56.83v56.83h15.79v-70.18h-26.47l-16.42,47.44-16.4-47.44h-26.68v70.18h15.84v-56.83l20.15,56.83ZM243.02,328.12v-14.25h-55.35v70.18h55.35v-14.25h-39.32v-14.01h38.4v-13.96h-38.4v-13.72h39.32ZM271.88,358.5h8.12l21.59,25.55h20.08l-23.22-26.14c11.94-2.2,18.91-10.67,18.91-21.56,0-13.33-9.21-22.48-24-22.48h-37.51v70.18h16.03v-25.55ZM291.92,328.12c6.12,0,9.34,3.7,9.34,8.34s-3.22,8.32-9.34,8.32h-20.04v-16.66h20.04ZM327.3,384.05h16.08v-70.18h-16.08v70.18ZM386.96,384.05h.63l6.62-14.31h-4.62c-11.83,0-18.75-7.41-18.75-20.15v-1.22c0-11.33,6.32-19.84,18.56-19.84h17.71v-14.66h-19.06c-21.3,0-33.24,14.55-33.24,34.39v1.44c0,20.32,11.94,34.18,32.15,34.35M461.06,384.05h17.73l-29.99-70.18h-21.32l-30.1,70.18h17.38l5.99-15.16h34.28l6.03,15.16ZM432.48,339.36l5.29-14.75,5.45,14.75,6.38,16.12h-23.57l6.45-16.12ZM502.66,341.16l27.47,42.89h19.84v-70.18h-15.94v46.35l-4.29-6.84-25.51-39.51h-20.74v70.18h15.97v-47.88l3.2,4.99Z"/></g><rect class="cls-2" width="598" height="820"/></g></g></svg>