<?xml version="1.0" encoding="UTF-8"?><svg id="_レイヤー_2" xmlns="http://www.w3.org/2000/svg" viewBox="0 0 1568 820"><defs><style>.cls-1{fill:#3e3a39;}.cls-1,.cls-2,.cls-3{stroke-width:0px;}.cls-2{fill:none;}.cls-3{fill:#d82738;}</style></defs><g id="_レイヤー_1-2"><g id="pay_ico-paypay"><path class="cls-1" d="M1117.68,286.97h-69.62c-6.35,0-11.5,5.15-11.5,11.49v219.32h49.03v-78.48s14.29.03,32.09.03c47.46,0,90.45-29.6,90.45-79.76s-43-72.6-90.45-72.6M1085.6,415.73v-105.18s15.12.05,32.09.05c24.05,0,50.59,18.26,50.59,49.55s-26.54,55.61-50.59,55.61-32.09-.03-32.09-.03M1291.64,344.96c-37.11,0-56.16,9.11-56.16,9.11l4.54,13.76s13.98-6.48,41.35-6.48c30.43,0,36.62,14.78,36.62,34.93l-.39,9c-6.52-1.92-21.75-4.44-37.36-4.44-23.19,0-61.51,14.31-61.51,60.99s33.75,58.96,57.71,58.96c19.76,0,31.8-6.1,41.56-12.15v9.12h48.98v-121.49c0-38.42-38.21-51.33-75.33-51.33M1293.73,499.13c-21.3,0-36.58-15.69-36.58-38.88s20.43-36.87,39.06-36.87c9.39,0,18.33,2.6,21.79,5.56v59.45c-6,5.22-13,10.73-24.27,10.73M1481.49,538.75c-14.89,32.9-39.4,37.2-50.36,38.46-11.5,1.33-23.84.79-23.84.79v-26.9c21.84,0,33.73,1.7,46.61-23.84l8.73-22.17-80.47-160.15h51.41l52.77,106.46,46.66-106.44h33.42s-70.04,160.89-84.93,193.79M557.03,286.97h-69.62c-6.36,0-11.5,5.15-11.5,11.49v219.32h49.04v-78.48s14.29.03,32.08.03c47.46,0,90.45-29.6,90.45-79.76s-43-72.6-90.45-72.6M524.94,415.73v-105.18s15.12.05,32.08.05c24.05,0,50.58,18.26,50.58,49.55s-26.53,55.61-50.58,55.61-32.08-.03-32.08-.03M730.99,344.96c-37.12,0-56.16,9.11-56.16,9.11l4.54,13.76s13.98-6.48,41.36-6.48c30.42,0,36.61,14.78,36.61,34.93l-.39,9c-6.51-1.92-21.75-4.44-37.37-4.44-23.19,0-61.51,14.31-61.51,60.99s33.75,58.96,57.71,58.96c19.76,0,31.79-6.1,41.55-12.15v9.12h48.99v-121.49c0-38.42-38.21-51.33-75.33-51.33M733.06,499.13c-21.29,0-36.58-15.69-36.58-38.88s20.43-36.87,39.06-36.87c9.38,0,18.33,2.6,21.78,5.56v59.45c-6,5.22-12.99,10.73-24.27,10.73M920.83,538.75c-14.89,32.9-39.41,37.2-50.36,38.46-11.5,1.33-23.84.79-23.84.79v-26.9c21.84,0,33.73,1.7,46.6-23.84l8.75-22.17-80.49-160.15h51.41l52.77,106.46,46.66-106.44h33.41s-70.04,160.89-84.92,193.79"/><path class="cls-3" d="M78.11,606.47h-18.42c-31.96,0-58.11-26.15-58.11-58.11v-211.87c52.14-5.26,100.77-5.16,143.41-1.01l-66.89,270.98M314.42,423.3c9.21-37.53-51.3-72.26-148.2-85.36l-35.18,146.34c81.21,3.85,173.47-20.6,183.38-60.98M336.41,213.53H59.69c-30.91,0-56.3,24.48-57.95,54.99,231.69-6.54,344.38,74.06,326.68,154.42-15.93,72.35-89.43,100.1-208.88,109.2l-17.86,74.32h234.74c31.95,0,58.09-26.15,58.09-58.09v-276.73c0-31.95-26.14-58.1-58.09-58.1"/><rect class="cls-2" width="1568" height="820"/></g></g></svg>