<?xml version="1.0" encoding="UTF-8"?><svg id="_レイヤー_2" xmlns="http://www.w3.org/2000/svg" viewBox="0 0 956.94 820"><defs><style>.cls-1{fill:none;}.cls-1,.cls-2,.cls-3{stroke-width:0px;}.cls-2{fill:#f9b900;}.cls-3{fill:#002c7d;}</style></defs><g id="_レイヤー_1-2"><g id="pay_ico-visa"><g id="visa"><rect class="cls-2" x="6.39" y="619.34" width="944.15" height="84.67"/><rect class="cls-3" x="6.39" y="115.99" width="944.15" height="84.67"/><path class="cls-3" d="M384.34,293.91l-97.6,232.7h-63.6l-48.01-185.69c-2.88-11.39-5.38-15.62-14.27-20.43-14.44-7.89-38.36-15.22-59.38-19.8l1.46-6.77h102.42c13.05,0,24.77,8.67,27.73,23.74l25.33,134.61,62.62-158.35h63.3M633.61,450.66c.26-61.42-84.88-64.78-84.32-92.29.15-8.3,8.12-17.16,25.51-19.47,8.58-1.07,32.37-1.98,59.38,10.39l10.56-49.29c-14.51-5.25-33.2-10.28-56.39-10.28-59.42,0-101.26,31.56-101.61,76.87-.41,33.48,29.84,52.17,52.67,63.34,23.46,11.37,31.3,18.73,31.17,28.86-.07,15.62-18.73,22.54-35.98,22.83-30.28.5-47.79-8.17-61.84-14.7l-10.91,50.97c14.11,6.49,40.03,12.07,67,12.37,63.23,0,104.55-31.28,104.77-79.59M790.75,526.61h55.63l-48.66-232.7h-51.3c-11.57,0-21.35,6.75-25.68,17.06l-90.26,215.64h63.25l12.46-34.76h77.26l7.3,34.76ZM723.51,444.21l31.69-87.41,18.25,87.41h-49.95ZM470.3,293.91l-49.75,232.7h-60.18l49.75-232.7h60.18Z"/></g><rect class="cls-1" width="956.94" height="820"/></g></g></svg>