<?xml version="1.0" encoding="UTF-8"?><svg id="_レイヤー_2" xmlns="http://www.w3.org/2000/svg" viewBox="0 0 95 95"><defs><style>.cls-1{fill:none;}.cls-1,.cls-2{stroke-width:0px;}.cls-2{fill:#fff;}</style></defs><g id="_レイヤー_1-2"><path class="cls-2" d="M50.3.69l-.02.93-2.95-.05-.03,2.05,2.3.04-.02.93-2.3-.04-.05,3.04-1.14-.02.11-6.95,4.09.07Z"/><path class="cls-2" d="M59.83,2.32l-1.76,6.72-1.1-.29,1.76-6.72,1.1.29Z"/><path class="cls-2" d="M71.75,9.78c.02-.39-.06-.74-.25-1.06-.19-.31-.46-.58-.82-.79-.4-.23-.8-.35-1.22-.36-.42,0-.81.11-1.17.33s-.68.55-.93.98c-.25.43-.39.86-.41,1.3-.02.43.07.83.28,1.19s.51.66.9.89c.54.31,1.06.42,1.57.32.51-.1.95-.39,1.33-.86l-2.25-1.32.46-.78,3.3,1.94-.45.77c-.34.43-.75.76-1.25.99-.5.23-1.03.34-1.59.32-.57-.02-1.11-.18-1.63-.49-.56-.33-1-.76-1.31-1.3-.31-.53-.47-1.12-.47-1.74,0-.63.17-1.23.52-1.82.34-.59.79-1.03,1.34-1.34.55-.31,1.13-.45,1.75-.44.62.01,1.21.18,1.77.51.64.37,1.11.86,1.43,1.47.31.61.41,1.26.3,1.97l-1.18-.69Z"/><path class="cls-2" d="M76.99,20.09c-.12-.61-.08-1.21.13-1.81.21-.59.57-1.11,1.09-1.55.52-.44,1.08-.72,1.7-.82s1.22-.05,1.8.16c.58.22,1.08.57,1.5,1.06.42.5.7,1.05.82,1.66s.08,1.21-.13,1.8c-.21.59-.57,1.1-1.09,1.54-.52.44-1.09.72-1.7.83-.62.11-1.22.06-1.8-.16s-1.09-.57-1.51-1.07c-.42-.49-.69-1.04-.81-1.65ZM79.59,21.84c.39.14.8.16,1.23.06s.84-.31,1.23-.65c.39-.33.67-.7.83-1.11.16-.41.21-.81.13-1.22-.08-.41-.26-.79-.56-1.14-.3-.35-.64-.6-1.03-.74-.39-.14-.8-.16-1.23-.07-.43.1-.83.31-1.23.64-.39.33-.67.7-.83,1.11-.17.41-.21.82-.14,1.23s.26.79.56,1.14c.3.35.64.59,1.04.73Z"/><path class="cls-2" d="M90.98,42.19c-.34-.11-.64-.33-.89-.65-.26-.33-.44-.77-.54-1.34l-.22-1.24-2.78.5-.2-1.12,6.84-1.22.42,2.36c.09.53.08.99-.03,1.38s-.31.71-.59.95c-.28.24-.6.39-.98.46-.35.06-.69.04-1.03-.07ZM90.93,40.94c.23.18.52.23.88.17.75-.13,1.05-.62.9-1.47l-.22-1.24-2.23.4.22,1.24c.08.43.23.73.46.9Z"/><path class="cls-2" d="M94.15,51.63l-6.93-.51.08-1.14,6.93.51-.08,1.14Z"/><path class="cls-2" d="M86.48,59.7l-.71,2.24-.88-.28,1.06-3.33,6.62,2.1-.35,1.09-5.75-1.83Z"/><path class="cls-2" d="M80.86,72.02l1.63-2.41-.89-1.21.67-.99,4.36,5.97-.74,1.09-7.16-1.84.67-.99,1.46.38ZM81.81,72.27l3.31.88-2.03-2.76-1.27,1.88Z"/><path class="cls-2" d="M74.86,85.74l-.58-.73,1.44-1.16-3.77-4.69.89-.71,3.77,4.69,1.45-1.16.58.73-3.78,3.04Z"/><path class="cls-2" d="M65.8,89.8l-.79-1.88-2.21.93-.36-.86,2.21-.93-.82-1.96-2.49,1.04-.36-.86,3.54-1.48,2.69,6.42-3.54,1.48-.36-.86,2.49-1.04Z"/><path class="cls-2" d="M53.09,87.39c.39.12.71.32.95.59.25.27.39.61.43,1.01l-1.21.13c-.06-.29-.2-.53-.43-.7-.23-.17-.53-.23-.91-.19-.39.04-.69.17-.88.38-.2.21-.28.47-.25.77.03.23.11.41.27.54.15.13.33.22.54.28.21.06.5.11.87.17.46.07.84.15,1.14.24s.56.25.78.49.37.57.41,1c.04.4-.02.76-.18,1.08s-.42.58-.76.78-.75.32-1.22.38c-.67.07-1.24-.03-1.7-.32-.46-.29-.75-.72-.86-1.3l1.25-.14c.05.25.19.45.43.61.24.15.54.21.89.17.32-.04.58-.15.77-.34.19-.19.26-.44.23-.75-.02-.21-.11-.38-.25-.5-.14-.12-.32-.21-.53-.27-.21-.06-.49-.11-.84-.17-.47-.08-.86-.16-1.16-.25-.3-.09-.57-.26-.8-.5-.23-.24-.37-.58-.42-1.02-.04-.35.02-.69.17-1.03s.4-.61.74-.84c.34-.23.75-.37,1.25-.43.46-.05.89-.02,1.28.1Z"/><path class="cls-2" d="M31.89,90.32c-.51.37-1.07.58-1.69.64-.62.06-1.22-.04-1.82-.3-.68-.3-1.21-.73-1.59-1.29-.38-.56-.56-1.2-.53-1.92l1.25.55c.02.41.14.76.36,1.05.22.29.52.53.91.69.42.19.84.26,1.25.21.41-.04.79-.2,1.13-.47s.62-.64.82-1.11.29-.92.26-1.36c-.03-.44-.17-.82-.41-1.16s-.58-.6-1-.78c-.38-.17-.76-.24-1.12-.2s-.7.19-1.02.45l-1.25-.55c.51-.51,1.1-.81,1.77-.9s1.35,0,2.03.3c.6.26,1.08.64,1.46,1.14s.59,1.05.67,1.68c.07.62-.03,1.24-.3,1.87-.27.62-.66,1.12-1.17,1.48Z"/><path class="cls-2" d="M18.35,77.2l2.15,1.96,1.33-.71.88.8-6.53,3.46-.97-.89,2.86-6.82.89.81-.59,1.39ZM17.96,78.1l-1.35,3.15,3.02-1.61-1.67-1.53Z"/><path class="cls-2" d="M4.24,66.54l6.12-3.29.54,1-4.2,2.25,5.2-.38.37.7-3.19,4.13,4.19-2.25.54,1-6.12,3.29-.58-1.08,3.65-4.73-5.95.43-.58-1.08Z"/><path class="cls-2" d="M3.69,52.47c.34.11.63.33.89.66s.43.78.52,1.34l.21,1.24,2.78-.46.19,1.12-6.86,1.14-.39-2.37c-.09-.53-.07-.99.05-1.38.12-.4.32-.71.6-.94.28-.23.61-.38.99-.44.35-.06.69-.03,1.03.08ZM3.73,53.72c-.23-.18-.52-.24-.88-.18-.75.12-1.05.61-.91,1.46l.21,1.24,2.24-.37-.21-1.24c-.07-.43-.22-.73-.45-.91Z"/><path class="cls-2" d="M6.54,40.44l-.4,2.88,1.34.69-.16,1.18-6.55-3.42.18-1.31,7.24-1.51-.17,1.19-1.47.3ZM5.58,40.62l-3.35.68,3.04,1.57.31-2.25Z"/><path class="cls-2" d="M4.41,28.64l6.39,2.73-.45,1.05-6.39-2.73.45-1.05Z"/><path class="cls-2" d="M13.55,17.94c-.38-.08-.74-.05-1.08.09-.34.14-.64.37-.9.7-.29.36-.47.74-.53,1.15-.07.41-.01.81.16,1.21.17.4.45.75.84,1.07.39.31.8.51,1.22.59.43.08.83.05,1.22-.1s.72-.41,1.01-.76c.39-.48.57-.98.54-1.5s-.25-1-.65-1.44l-1.64,2.03-.71-.57,2.4-2.98.69.56c.38.4.64.86.8,1.38.16.53.19,1.07.09,1.62-.1.56-.34,1.07-.72,1.54-.41.51-.9.88-1.48,1.11-.58.23-1.17.3-1.79.21s-1.19-.35-1.72-.78c-.53-.43-.91-.93-1.13-1.52-.22-.58-.28-1.18-.18-1.8.1-.61.36-1.17.76-1.68.46-.58,1.02-.98,1.66-1.2s1.31-.22,1.99,0l-.86,1.07Z"/><path class="cls-2" d="M28.35,12.29l-.96.61-5.68-2.54,2.78,4.38-.96.61-3.73-5.87.96-.61,5.67,2.53-2.78-4.37.96-.61,3.73,5.87Z"/><rect class="cls-1" width="95" height="95"/></g></svg>