<?xml version="1.0" encoding="UTF-8"?><svg id="_レイヤー_2" xmlns="http://www.w3.org/2000/svg" viewBox="0 0 95 95"><defs><style>.cls-1{fill:none;}.cls-1,.cls-2{stroke-width:0px;}.cls-2{fill:#fff;}</style></defs><g id="_レイヤー_1-2"><path class="cls-2" d="M50.39.64l-.02.93-2.95-.05-.03,2.05,2.3.04-.02.93-2.3-.04-.05,3.04-1.14-.02.11-6.95,4.09.07Z"/><path class="cls-2" d="M59.18,2.07l-1.65,6.75-1.11-.27,1.65-6.75,1.11.27Z"/><path class="cls-2" d="M66.98,12.61l-.13-3.2-.77-.4-1.29,2.47-1.01-.53,3.21-6.16,2.13,1.11c.47.25.83.54,1.07.87.24.34.37.69.39,1.05.02.36-.06.72-.24,1.06-.21.4-.52.71-.92.91-.41.21-.88.24-1.43.11l.2,3.35-1.21-.63ZM66.49,8.19l1.12.58c.38.2.71.25,1,.16.29-.09.52-.29.69-.61s.2-.62.11-.9c-.1-.28-.33-.52-.72-.72l-1.12-.58-1.08,2.07Z"/><path class="cls-2" d="M74.26,17.6c-.16-.38-.21-.75-.16-1.11.05-.36.22-.69.49-.98l.88.84c-.19.24-.27.5-.25.78.02.28.17.56.44.82.29.27.57.41.86.43.29.01.54-.09.75-.3.16-.17.24-.35.25-.55,0-.2-.04-.4-.13-.6-.09-.2-.24-.46-.43-.77-.25-.4-.43-.74-.55-1.03-.12-.29-.16-.59-.13-.92s.2-.65.5-.96c.28-.29.59-.47.94-.55.35-.08.71-.05,1.08.08s.73.36,1.07.69c.49.46.77.97.85,1.51.08.54-.07,1.04-.44,1.5l-.91-.87c.16-.2.22-.44.19-.72-.04-.28-.18-.55-.44-.8-.24-.23-.49-.35-.75-.37s-.5.08-.72.31c-.15.15-.22.33-.22.51s.04.38.13.58.23.45.41.75c.25.41.43.76.55,1.05.12.29.17.6.13.93s-.2.66-.51.97c-.24.26-.54.43-.9.53-.35.1-.73.09-1.12-.03-.39-.11-.77-.34-1.13-.68-.34-.32-.59-.67-.74-1.05Z"/><path class="cls-2" d="M89.03,25.58l-.8.48-.95-1.59-5.17,3.09-.58-.98,5.17-3.09-.95-1.6.8-.48,2.49,4.16Z"/><path class="cls-2" d="M94.46,46.44l-.93.07-.14-1.85-6,.45-.08-1.14,6-.45-.14-1.85.93-.07.36,4.84Z"/><path class="cls-2" d="M86.43,56.7l3.04-1.02.17-.85-2.73-.55.23-1.12,6.81,1.38-.47,2.35c-.11.52-.29.95-.54,1.27-.26.33-.56.55-.9.67-.34.12-.7.14-1.08.06-.44-.09-.82-.3-1.13-.63-.31-.33-.48-.78-.5-1.34l-3.16,1.12.27-1.33ZM90.53,55.01l-.25,1.24c-.08.42-.04.75.12,1.01.17.25.43.42.78.49s.65.02.89-.15c.24-.17.41-.47.49-.89l.25-1.23-2.28-.46Z"/><path class="cls-2" d="M89.69,68.1l-6.28-2.97.49-1.03,6.28,2.97-.49,1.03Z"/><path class="cls-2" d="M78.54,74.98l1.85-2.25-.78-1.29.76-.92,3.79,6.34-.84,1.02-6.96-2.5.76-.93,1.41.52ZM79.46,75.32l3.21,1.18-1.77-2.93-1.44,1.75Z"/><path class="cls-2" d="M71.29,80.82l-1.92,1.35-.53-.75,2.85-2.01,4.01,5.68-.93.66-3.48-4.93Z"/><path class="cls-2" d="M52.55,87.25l2.01,2.5.86-.14-.43-2.75,1.13-.18,1.08,6.87-2.37.37c-.53.08-.99.06-1.38-.07s-.71-.33-.94-.61c-.23-.28-.37-.61-.43-.99-.07-.45,0-.88.2-1.28.2-.41.56-.72,1.08-.94l-2.15-2.58,1.34-.21ZM55.57,90.51l-1.25.2c-.42.07-.72.22-.9.47-.18.24-.24.54-.19.9.06.36.21.62.45.78.24.17.58.22,1.01.15l1.24-.2-.36-2.3Z"/><path class="cls-2" d="M42.94,93.37l.23-2.03-2.38-.27.11-.92,2.38.27.24-2.12-2.68-.3.11-.92,3.82.43-.79,6.92-3.82-.43.1-.92,2.68.3Z"/><path class="cls-2" d="M33.65,85.31c.29.29.47.61.56.97s.05.72-.09,1.09l-1.13-.45c.09-.29.07-.56-.05-.82-.12-.26-.36-.46-.71-.6-.37-.15-.69-.17-.96-.08-.28.09-.47.28-.58.56-.09.22-.09.42-.02.61s.19.36.35.51.39.34.69.56c.38.28.67.53.89.75.22.22.37.49.46.8.09.32.05.67-.11,1.08-.15.37-.37.66-.67.86-.3.2-.64.31-1.04.33-.39.01-.81-.07-1.25-.24-.62-.25-1.07-.61-1.35-1.09s-.32-.99-.15-1.55l1.17.47c-.08.24-.04.49.09.74.14.25.37.44.71.57.3.12.58.14.84.07s.44-.26.56-.55c.08-.2.08-.38.01-.56-.07-.18-.18-.34-.34-.49-.16-.15-.38-.33-.67-.55-.38-.29-.68-.55-.9-.77-.22-.23-.38-.5-.47-.82-.09-.32-.05-.68.11-1.09.13-.33.34-.6.64-.82.29-.22.64-.35,1.05-.39s.84.03,1.3.21c.43.17.79.41,1.08.7Z"/><path class="cls-2" d="M20.19,84.65l1.24-1.62-1.91-1.45.56-.74,1.91,1.45,1.29-1.7-2.15-1.63.56-.74,3.06,2.33-4.21,5.54-3.06-2.33.56-.74,2.15,1.64Z"/><path class="cls-2" d="M14.9,70.82l-1.24,2.96.53.69,2.21-1.69.69.91-5.53,4.21-1.46-1.91c-.32-.42-.52-.84-.6-1.25-.08-.41-.04-.78.09-1.11.14-.34.36-.62.67-.85.36-.27.77-.42,1.22-.43.45-.02.9.15,1.34.51l1.25-3.11.82,1.08ZM13.46,75.02l-.76-1c-.26-.34-.54-.53-.84-.57s-.59.04-.88.26-.45.47-.48.77c-.03.29.08.61.35.96l.76,1,1.85-1.41Z"/><path class="cls-2" d="M2.34,60.97h7.42s.46,1.24.46,1.24l-5.59,4.89-.43-1.14,4.69-3.96-6.14.09-.42-1.12Z"/><path class="cls-2" d="M6.03,48.56l.17,2.91,1.45.42.07,1.19-7.09-2.08-.08-1.32,6.8-2.89.07,1.2-1.39.58ZM5.12,48.94l-3.16,1.32,3.29.95-.13-2.27Z"/><path class="cls-2" d="M2.22,34.74l.91.21-.41,1.8,5.87,1.34-.25,1.11-5.87-1.34-.41,1.81-.91-.21,1.08-4.73Z"/><path class="cls-2" d="M5.55,26.36l6.24,3.06-.5,1.02-6.24-3.06.5-1.02Z"/><path class="cls-2" d="M15.77,22.45c-.58.21-1.19.26-1.8.14-.62-.12-1.18-.4-1.7-.84-.51-.45-.87-.96-1.07-1.56-.2-.59-.24-1.19-.11-1.8s.4-1.16.83-1.65c.43-.49.93-.85,1.52-1.06.58-.21,1.18-.26,1.8-.14s1.18.4,1.69.84c.51.45.87.96,1.08,1.56s.24,1.19.12,1.8c-.13.61-.4,1.16-.83,1.65-.42.49-.93.84-1.51,1.05ZM17.11,19.61c.08-.41.04-.82-.13-1.23-.16-.41-.44-.78-.82-1.12s-.79-.55-1.22-.65c-.42-.1-.83-.08-1.23.06-.39.14-.74.38-1.04.73-.3.35-.49.72-.57,1.13-.08.41-.04.81.12,1.22.16.41.43.78.82,1.12s.79.56,1.22.66c.43.1.84.09,1.23-.05s.74-.38,1.04-.72c.3-.35.49-.73.57-1.14Z"/><path class="cls-2" d="M29.21,11.83l-.97.59-5.62-2.66,2.69,4.44-.97.59-3.61-5.95.98-.59,5.62,2.65-2.68-4.43.98-.59,3.6,5.95Z"/><rect class="cls-1" width="95" height="95"/></g></svg>