<?xml version="1.0" encoding="UTF-8"?><svg id="_レイヤー_2" xmlns="http://www.w3.org/2000/svg" viewBox="0 0 223.22 48.99"><defs><style>.cls-1{fill:#3da1d2;}.cls-1,.cls-2{stroke-width:0px;}.cls-2{fill:#42413b;}</style></defs><g id="_レイヤー_1-2"><path class="cls-2" d="M26.69,0v2.28h-13.34C7.24,2.28,2.28,7.24,2.28,13.34v5.16l-2.28,2.08v-7.24C0,5.97,5.97,0,13.34,0h13.34ZM2.28,32.92c0-6.11,4.95-11.06,11.06-11.06h4.13v-2.28h-4.13c-7.37,0-13.34,5.97-13.34,13.35v8.96h2.28v-8.96ZM24.41,30.49v5.16c0,6.11-4.95,11.06-11.06,11.06H0v2.28h13.34c7.37,0,13.34-5.97,13.34-13.35v-7.24l-2.28,2.08ZM24.41,16.07c0,6.11-4.95,11.06-11.06,11.06h-4.13v2.28h4.13c7.37,0,13.34-5.97,13.34-13.34V7.11h-2.28v8.95Z"/><rect class="cls-2" x="141.14" y="14.94" width="2.08" height="18.76"/><polygon class="cls-2" points="151.64 14.94 149.56 14.94 149.56 33.7 151.64 33.7 158.82 33.7 158.82 31.81 151.64 31.81 151.64 14.94"/><polygon class="cls-2" points="43.22 33.7 45.3 33.7 45.3 25.28 52.75 25.28 52.75 23.39 45.3 23.39 45.3 16.84 52.75 16.84 52.75 14.94 43.22 14.94 43.22 33.7"/><path class="cls-2" d="M73.82,24.75v1.75h9.24c-.87,3.35-3.86,5.7-7.56,5.7-4.44,0-7.82-3.42-7.82-7.7v-.02c0-4.62,3.58-7.8,7.82-7.8,2.65,0,4.95,1.22,6.36,3.16h2.48c-1.62-3.15-4.92-5.23-8.84-5.23-5.36,0-9.9,3.98-9.9,9.76v.02c0,5.35,4.28,9.63,9.9,9.63s9.68-3.99,9.89-9.28h-11.58Z"/><path class="cls-2" d="M130.77,14.94h-6.34v18.76h2.08v-7.37h4.25c3.15,0,5.7-2.36,5.7-5.7s-2.55-5.7-5.7-5.7ZM130.6,24.44h-4.08v-7.6h4.08c2.1,0,3.8,1.44,3.8,3.8s-1.7,3.8-3.8,3.8Z"/><polygon class="cls-2" points="196.19 33.7 206.59 33.7 206.59 31.81 198.27 31.81 198.27 25.28 206.59 25.28 206.59 23.39 198.27 23.39 198.27 16.84 206.59 16.84 206.59 14.94 196.19 14.94 196.19 33.7"/><polygon class="cls-1" points="169.49 14.94 161.66 33.7 163.91 33.7 170.44 17.36 176.97 33.7 179.23 33.7 171.4 14.94 169.49 14.94"/><polygon class="cls-2" points="180.24 16.84 184.88 16.84 184.88 33.7 186.96 33.7 186.96 16.84 191.6 16.84 191.6 14.94 180.24 14.94 180.24 16.84"/><path class="cls-2" d="M218.66,23.41c-2.84-.96-4.69-1.52-4.67-3.8,0-1.95,1.55-3.22,3.42-3.22,2.48,0,3.09,1.85,3.32,3.07h2.08c-.3-3.55-2.99-4.85-5.33-4.85-2.86,0-5.63,1.85-5.58,5.17,0,3.55,3.27,4.51,4.79,4.97,2.18.71,4.44,1.29,4.44,3.93,0,2.08-1.8,3.57-3.75,3.57-1.17,0-3.45-.66-3.75-3.78h-2.1c.13,3.57,2.74,5.55,5.88,5.55,3.5,0,5.81-2.43,5.81-5.5,0-3.45-2.79-4.44-4.56-5.12Z"/><path class="cls-2" d="M99.56,14.62c-5.26,0-9.7,3.98-9.7,9.76v.02c0,5.35,4.2,9.63,9.7,9.63s9.71-4.2,9.71-9.7-4.25-9.71-9.71-9.71ZM99.56,32.13c-4.32,0-7.62-3.45-7.62-7.75v-.02c0-4.65,3.49-7.85,7.62-7.85s7.62,3.39,7.62,7.81-3.32,7.81-7.62,7.81Z"/><rect class="cls-2" x="58.1" y="14.94" width="2.08" height="18.76"/></g></svg>