<?xml version="1.0" encoding="UTF-8"?><svg id="_レイヤー_2" xmlns="http://www.w3.org/2000/svg" viewBox="0 0 180 155.04"><defs><style>.cls-1{fill:#3da1d2;}.cls-1,.cls-2{stroke-width:0px;}.cls-2{fill:#fff;}</style></defs><g id="_レイヤー_1-2"><path class="cls-2" d="M121.66,0v5.42h-31.66c-14.49,0-26.24,11.75-26.24,26.24v12.24l-5.41,4.94v-17.18c0-17.48,14.17-31.66,31.66-31.66h31.66ZM63.76,78.11c0-14.49,11.75-26.24,26.24-26.24h9.79v-5.42h-9.79c-17.48,0-31.66,14.17-31.66,31.66v21.24h5.41v-21.24ZM116.24,72.33v12.23c0,14.49-11.75,26.24-26.24,26.24h-31.66v5.41h31.66c17.48,0,31.66-14.17,31.66-31.66v-17.18l-5.42,4.94ZM116.24,38.12c0,14.49-11.75,26.24-26.24,26.24h-9.79v5.42h9.79c17.48,0,31.66-14.17,31.66-31.66v-21.25h-5.42v21.25Z"/><rect class="cls-2" x="97.92" y="135.95" width="2.08" height="18.76"/><polygon class="cls-2" points="108.43 135.95 106.34 135.95 106.34 154.71 108.43 154.71 115.6 154.71 115.6 152.82 108.43 152.82 108.43 135.95"/><polygon class="cls-2" points="0 154.71 2.08 154.71 2.08 146.29 9.53 146.29 9.53 144.4 2.08 144.4 2.08 137.85 9.53 137.85 9.53 135.95 0 135.95 0 154.71"/><path class="cls-2" d="M30.61,145.76v1.75h9.24c-.88,3.35-3.86,5.7-7.56,5.7-4.43,0-7.82-3.42-7.82-7.7v-.02c0-4.62,3.58-7.8,7.82-7.8,2.65,0,4.95,1.22,6.36,3.16h2.48c-1.62-3.15-4.92-5.23-8.84-5.23-5.36,0-9.9,3.98-9.9,9.76v.02c0,5.35,4.28,9.63,9.9,9.63s9.68-3.99,9.89-9.28h-11.58Z"/><path class="cls-2" d="M87.55,135.95h-6.34v18.76h2.08v-7.37h4.25c3.15,0,5.7-2.37,5.7-5.7s-2.55-5.7-5.7-5.7ZM87.38,145.45h-4.08v-7.6h4.08c2.1,0,3.8,1.44,3.8,3.8s-1.7,3.8-3.8,3.8Z"/><polygon class="cls-2" points="152.97 154.71 163.37 154.71 163.37 152.82 155.05 152.82 155.05 146.29 163.37 146.29 163.37 144.4 155.05 144.4 155.05 137.85 163.37 137.85 163.37 135.95 152.97 135.95 152.97 154.71"/><polygon class="cls-1" points="126.27 135.95 118.44 154.71 120.69 154.71 127.22 138.37 133.75 154.71 136.01 154.71 128.18 135.95 126.27 135.95"/><polygon class="cls-2" points="137.02 137.85 141.66 137.85 141.66 154.71 143.74 154.71 143.74 137.85 148.38 137.85 148.38 135.95 137.02 135.95 137.02 137.85"/><path class="cls-2" d="M175.44,144.42c-2.84-.96-4.69-1.52-4.66-3.8,0-1.95,1.55-3.22,3.42-3.22,2.48,0,3.09,1.85,3.32,3.07h2.08c-.3-3.55-2.99-4.85-5.33-4.85-2.86,0-5.63,1.85-5.58,5.17,0,3.55,3.27,4.51,4.79,4.97,2.18.71,4.44,1.29,4.44,3.93,0,2.08-1.8,3.57-3.75,3.57-1.17,0-3.45-.66-3.75-3.78h-2.1c.13,3.58,2.74,5.55,5.88,5.55,3.5,0,5.81-2.43,5.81-5.5,0-3.45-2.79-4.44-4.56-5.12Z"/><path class="cls-2" d="M56.34,135.63c-5.26,0-9.7,3.98-9.7,9.76v.02c0,5.35,4.2,9.63,9.7,9.63s9.71-4.2,9.71-9.7-4.25-9.71-9.71-9.71ZM56.34,153.14c-4.32,0-7.62-3.45-7.62-7.75v-.02c0-4.65,3.49-7.85,7.62-7.85s7.62,3.39,7.62,7.81-3.32,7.81-7.62,7.81Z"/><rect class="cls-2" x="14.88" y="135.95" width="2.08" height="18.76"/></g></svg>