<?xml version="1.0" encoding="UTF-8"?><svg id="_レイヤー_2" xmlns="http://www.w3.org/2000/svg" viewBox="0 0 63.32 116.22"><defs><style>.cls-1{fill:#42413b;stroke-width:0px;}</style></defs><g id="_レイヤー_1-2"><path class="cls-1" d="M63.32,0v5.42h-31.66c-14.49,0-26.24,11.75-26.24,26.24v12.24l-5.41,4.94v-17.18C0,14.17,14.17,0,31.66,0h31.66ZM5.41,78.11c0-14.49,11.75-26.24,26.24-26.24h9.79v-5.42h-9.79C14.17,46.45,0,60.62,0,78.11v21.24h5.41v-21.24ZM57.9,72.33v12.23c0,14.49-11.75,26.24-26.24,26.24H0v5.41h31.66c17.48,0,31.66-14.17,31.66-31.66v-17.18l-5.42,4.94ZM57.9,38.12c0,14.49-11.75,26.24-26.24,26.24h-9.79v5.42h9.79c17.48,0,31.66-14.17,31.66-31.66v-21.25h-5.42v21.25Z"/></g></svg>