<?xml version="1.0" encoding="UTF-8"?><svg id="_レイヤー_2" xmlns="http://www.w3.org/2000/svg" viewBox="0 0 179.85 190.91"><defs><style>.cls-1{fill:#3da1d2;}.cls-1,.cls-2,.cls-3,.cls-4,.cls-5{stroke-width:0px;}.cls-2{opacity:.1;}.cls-2,.cls-5{fill:#42413b;}.cls-3{fill:#fff;}.cls-4{fill:#b8b7af;}</style></defs><g id="_レイヤー_1-2"><g id="map"><polygon class="cls-1" points="164.24 53.82 164.24 109.13 149.24 124.13 18.2 124.13 18.2 10.64 17.2 10.64 17.2 124.13 0 124.13 0 125.13 17.2 125.13 17.2 153.42 18.2 153.42 18.2 125.13 149.66 125.13 165.24 109.54 165.24 53.82 164.24 53.82"/><path class="cls-5" d="M121.36,78.91h-42.72c-.14,0-.25-.11-.25-.25s.11-.25.25-.25h42.72c.14,0,.25.11.25.25s-.11.25-.25.25Z"/><path class="cls-5" d="M171.96,118.27V10.89h-.5v47.71h-49.47V10.89h-1.25v107.38h-42.1V10.89h-.5v90.41h-36.93V10.89h-.5v90.41H10.54V10.89h-2v179.31h2v-70.68h30.18v70.68h.5v-70.68h36.93v70.68h.5v-70.68h42.1v70.68h1.25v-16.28h49.72v-.25h.25v-54.16h7.9v-1.25h-7.9ZM40.71,118.27H10.54v-16.47h30.18v16.47ZM78.14,118.27h-36.93v-16.47h36.93v16.47ZM171.46,173.42h-49.47v-53.91h49.47v53.91ZM171.46,118.27h-49.47v-59.17h49.47v59.17Z"/><path class="cls-5" d="M33.42,10.33h.54v4.83h-.54v-4.83ZM37.72,10.49v4.62h-.54v-.36h-1.93v.41h-.52v-4.67h2.99ZM35.25,10.96v1.37h1.93v-1.37h-1.93ZM37.18,14.28v-1.47h-1.93v1.47h1.93Z"/><path class="cls-5" d="M36.22,19.84c.48.48,1.21.91,1.89,1.14-.13.1-.29.31-.37.44-.68-.27-1.41-.77-1.92-1.34v1.41h-.53v-1.38c-.51.55-1.22,1.04-1.89,1.31-.08-.13-.24-.32-.35-.43.66-.24,1.37-.66,1.85-1.14h-1.24v-2.03h1.63v-.4h-2.1v-.47h2.1v-.49h.53v.49h2.15v.47h-2.15v.4h1.71v2.03h-1.31ZM34.15,18.64h1.13v-.44h-1.13v.44ZM34.15,19.45h1.13v-.44h-1.13v.44ZM35.82,18.2v.44h1.2v-.44h-1.2ZM37.02,19h-1.2v.44h1.2v-.44Z"/><path class="cls-5" d="M33.94,25.21c-.19-.18-.58-.42-.91-.57l.29-.37c.32.13.72.35.92.53l-.3.41ZM33.15,27.47c.24-.43.58-1.14.83-1.77l.41.29c-.23.58-.52,1.24-.77,1.76l-.46-.28ZM34.19,23.79c-.18-.19-.58-.45-.9-.6l.29-.37c.32.14.73.37.92.57l-.31.41ZM35.32,23.88c-.16.32-.36.6-.55.83-.1-.09-.31-.23-.43-.3.39-.4.71-1.02.88-1.65l.51.11c-.06.19-.12.37-.19.55h2.5v.46h-2.71ZM37.66,25.88c-.02.29-.03.52-.06.73h.49v.44h-.54c-.05.29-.1.44-.18.53-.11.15-.23.19-.4.21-.16.02-.43.02-.69,0,0-.12-.06-.31-.13-.42.26.02.5.03.6.03.09,0,.15-.02.2-.08.04-.04.07-.13.1-.27h-1.86l-.04.25-.49-.04c.07-.37.15-.86.23-1.37h-.49v-.47h.55c.05-.38.1-.76.13-1.1h2.65s0,.17-.01.23c-.01.32-.03.62-.04.87h.44v.47h-.47ZM35.37,25.88c-.03.25-.07.49-.1.73h.68c.03-.21.05-.47.09-.73h-.66ZM35.52,24.76c-.03.21-.05.43-.08.65h.64c.02-.23.04-.45.06-.65h-.62ZM37.13,26.6c.02-.19.04-.43.06-.73h-.72c-.03.26-.05.51-.08.73h.74ZM37.22,25.41c.01-.2.02-.42.03-.65h-.68c-.02.21-.04.43-.06.65h.7Z"/><path class="cls-5" d="M34.31,32.96c.24.38.69.56,1.3.58.61.02,1.83,0,2.52-.04-.06.12-.14.36-.17.52-.62.03-1.72.04-2.35.01-.7-.03-1.17-.21-1.52-.63-.26.23-.52.45-.81.68l-.26-.53c.25-.15.54-.36.8-.57v-1.29h-.7v-.47h1.2v1.74ZM34.05,30.4c-.18-.26-.57-.63-.92-.87l.38-.31c.34.24.75.58.94.84l-.4.34ZM35.86,30.54c.03-.12.05-.25.08-.37h-1.39v-.42h.86c-.07-.16-.19-.35-.31-.49l.4-.15c.17.18.32.42.38.6l-.12.05h.81c.12-.19.26-.47.34-.66l.52.12c-.12.19-.24.38-.34.54h.93v.42h-1.52c-.05.13-.1.26-.15.37h1.24v2.61h-2.6v-2.61h.88ZM37.08,30.91h-1.61v.38h1.61v-.38ZM37.08,31.64h-1.61v.38h1.61v-.38ZM37.08,32.38h-1.61v.38h1.61v-.38Z"/><path class="cls-5" d="M6.23,10.56v.41h-1.09c.12.16.22.32.27.45l-.44.18c-.07-.17-.22-.42-.38-.63h-.31c-.17.24-.35.46-.53.62-.09-.08-.3-.23-.42-.29.12-.09.24-.21.35-.33h-.91c.09.16.16.32.19.44l-.44.18c-.04-.16-.15-.41-.26-.63h-.15c-.16.25-.33.48-.51.65-.1-.07-.3-.21-.42-.27.34-.31.65-.79.83-1.26l.48.13c-.05.12-.1.24-.16.35h1.34v.4c.22-.25.4-.56.51-.87l.49.12c-.05.12-.1.24-.17.36h1.71ZM6.06,13.34s0,.13-.01.2c-.07.75-.14,1.08-.27,1.22-.1.11-.22.15-.38.16-.14.01-.41.02-.69,0,0-.14-.07-.34-.14-.47.25.03.5.03.59.03.09,0,.14,0,.19-.04.07-.07.12-.26.17-.66h-1.51v1.38h-.5v-1.19c-.51.48-1.23.89-1.89,1.12-.08-.12-.22-.31-.33-.4.63-.18,1.32-.52,1.8-.91h-.89l-.05.16-.5-.07c.12-.37.26-.93.35-1.37h1.52v-.46h-1.76v-.43h4v1.31h-1.74v.42h2.05ZM2.41,12.92c-.03.14-.07.28-.1.42h1.2v-.42h-1.1ZM4.01,12.49h1.24v-.46h-1.24v.46Z"/><path class="cls-5" d="M6.27,18.63v.56H1.28v-.56h5Z"/><path class="cls-5" d="M2.74,26.39c-.26.43-.68.91-1.07,1.22-.11-.1-.3-.23-.42-.3.38-.27.77-.72.97-1.08l.52.17ZM6.15,23.84H1.38v-.49h2.1v-.59h.54v.59h2.12v.49ZM4.02,25.96v1.29c0,.27-.06.42-.27.49-.21.07-.53.08-.99.07-.02-.14-.1-.34-.16-.48.33.01.68.01.76,0,.1,0,.13-.02.13-.09v-1.28h-1.46v-1.67h3.52v1.67h-1.52ZM2.54,25.52h2.47v-.78h-2.47v.78ZM5.21,26.23c.35.35.8.85,1.01,1.17l-.5.26c-.19-.32-.63-.83-.98-1.2l.47-.23Z"/><path class="cls-5" d="M2.22,31.57c-.21-.19-.65-.45-1.01-.59l.27-.38c.35.14.8.37,1.03.56l-.29.42ZM2.63,32.32c-.25.58-.55,1.22-.83,1.74l-.46-.31c.26-.43.63-1.14.9-1.77l.39.3v-.15h.52v-2.62l.41.1c.72-.13,1.48-.3,1.96-.47l.4.4c-.63.2-1.49.37-2.26.49v.54h2.52v.48h-.73v1.08h.85v.48h-3.68v-.29ZM2.51,30.13c-.21-.2-.64-.47-.99-.63l.28-.37c.35.14.79.38,1.01.58l-.3.42ZM4.14,32.98c-.31.44-.79.89-1.2,1.17-.1-.09-.31-.27-.43-.35.42-.24.86-.62,1.12-.99l.52.18ZM3.67,32.14h1.29v-1.08h-1.29v1.08ZM5.24,32.8c.38.31.87.75,1.1,1.06l-.47.29c-.21-.31-.68-.77-1.08-1.1l.44-.25Z"/><path class="cls-5" d="M74.77,14.59c.2,0,.24-.14.26-.96.12.09.34.18.48.22-.05.95-.19,1.22-.7,1.22h-.73c-.54,0-.69-.17-.69-.71v-1.83h-.94c-.1,1.16-.35,2.11-1.64,2.63-.06-.13-.2-.31-.32-.41,1.15-.43,1.33-1.25,1.41-2.21h-1.32v-.49h4.83v.49h-1.49v1.83c0,.2.03.23.23.23h.62ZM74.94,11.02h-3.87v-.49h3.87v.49Z"/><path class="cls-5" d="M73.38,17.69c-.26.07-.59.14-.95.19-.26.75-.69,1.64-1.13,2.22l-.52-.26c.43-.52.86-1.31,1.09-1.91-.13.01-.25.01-.38.01-.21,0-.43-.01-.64-.03l-.04-.52c.2.04.46.07.68.07.18,0,.36,0,.54-.02.08-.28.14-.59.15-.86l.59.05c-.04.18-.11.46-.19.74.27-.04.54-.1.78-.18v.49ZM74.04,18.24c-.02.23,0,.41,0,.63,0,.17.02.47.03.76.46.17.82.43,1.09.67l-.28.46c-.21-.19-.47-.41-.79-.59v.14c0,.45-.27.82-.98.82-.62,0-1.12-.27-1.12-.82,0-.5.46-.85,1.12-.85.15,0,.3.01.45.04-.02-.41-.04-.9-.06-1.25h.53ZM73.57,19.95c-.15-.04-.32-.07-.49-.07-.35,0-.59.15-.59.36,0,.23.18.38.55.38.4,0,.53-.23.53-.49,0-.05,0-.11,0-.18ZM75.03,18.45c-.29-.25-.88-.58-1.25-.74l.27-.42c.38.17,1.01.52,1.27.71l-.3.45Z"/><path class="cls-5" d="M74.86,24.61c-.23.08-.53.15-.87.22.15.31.31.65.46.94l-.26.32c-.28-.04-.75-.12-1.09-.16l.04-.41c.24.03.47.05.63.07-.09-.2-.2-.44-.3-.67-.67.09-1.54.1-2.36.04l-.02-.49c.81.08,1.56.07,2.19,0l-.15-.33-.12-.29c-.53.05-1.2.05-1.85-.02l-.03-.49c.63.07,1.19.08,1.69.05l-.04-.09c-.09-.18-.14-.28-.23-.41l.6-.12c.04.17.12.37.19.57.33-.05.58-.11.88-.21l.09.48c-.25.08-.48.13-.8.18l.09.22.18.39c.41-.08.73-.18.97-.26l.1.48ZM71.84,25.67c-.07.17-.12.39-.12.53,0,.37.28.61,1.01.61.46,0,.97-.04,1.35-.12l-.02.54c-.31.05-.85.1-1.32.1-.97,0-1.55-.33-1.55-1.03,0-.23.07-.5.13-.69l.52.05ZM74.56,22.71c.13.18.32.51.44.74l-.33.15c-.13-.27-.26-.52-.43-.75l.32-.14ZM75.14,22.48c.13.18.33.5.46.72l-.33.16c-.14-.27-.27-.5-.44-.74l.32-.15Z"/><path class="cls-5" d="M74.9,29.91c-.3.08-.63.16-.96.22.19.43.47.99.7,1.43l-.3.32c-.26-.05-.79-.13-1.15-.18l.05-.43c.19.02.53.05.7.07-.14-.3-.37-.76-.53-1.13-.67.08-1.42.07-2.25,0l-.02-.54c.77.1,1.46.1,2.05.04-.05-.12-.1-.22-.15-.33-.09-.21-.14-.31-.24-.48l.6-.12c.11.32.21.57.33.85.37-.07.72-.15,1.07-.26l.1.53ZM71.94,31.46c-.08.19-.15.49-.15.65,0,.43.26.7,1.04.7.72,0,1.04-.07,1.42-.14v.55c-.32.06-.72.13-1.42.13-1.03,0-1.58-.4-1.58-1.09,0-.24.06-.55.14-.85l.55.05Z"/><path class="cls-5" d="M71.72,38.77c.24.38.67.55,1.27.58.62.03,1.88.01,2.58-.04-.06.12-.14.35-.17.5-.63.03-1.79.04-2.42.02-.68-.03-1.15-.21-1.49-.63-.26.23-.54.45-.85.68l-.24-.51c.25-.15.55-.36.82-.57v-1.31h-.75v-.47h1.24v1.76ZM71.48,36.23c-.18-.27-.57-.65-.92-.91l.36-.32c.34.24.75.59.94.86l-.38.37ZM72.72,39.05h-.48v-2.81h1.41c-.3-.14-.63-.29-.91-.4l.33-.27c.21.08.47.18.71.28.21-.1.42-.24.6-.37h-2.13v-.4h2.6l.1-.03.31.25c-.29.26-.66.54-1.05.75.14.07.27.13.37.19h.68v2.34c0,.23-.04.35-.2.42-.15.07-.38.07-.74.07-.02-.13-.08-.3-.14-.41.23.01.44,0,.51,0,.06,0,.08-.02.08-.09v-.38h-.82v.85h-.46v-.85h-.79v.86ZM72.72,36.62v.4h.79v-.4h-.79ZM73.51,37.81v-.41h-.79v.41h.79ZM74.79,36.62h-.82v.4h.82v-.4ZM74.79,37.81v-.41h-.82v.41h.82Z"/><path class="cls-5" d="M72.23,41.41c-.1.33-.2.97-.24,1.31.23-.49.75-1.05,1.39-1.05.72,0,1.26.71,1.26,1.86,0,1.49-.92,2.17-2.29,2.42l-.32-.49c1.17-.18,2.04-.61,2.04-1.92,0-.83-.27-1.37-.79-1.37-.65,0-1.23.95-1.28,1.65-.02.17-.02.36.02.61l-.52.04c-.03-.2-.06-.52-.06-.86,0-.5.09-1.23.15-1.71.03-.18.04-.36.04-.5l.59.02Z"/><path class="cls-5" d="M74.04,73.73c-.03.06-.06.15-.07.23-.09.4-.26,1.03-.58,1.45-.34.44-.82.82-1.5,1.06l-.33-.38c.64-.17,1.14-.51,1.46-.92.28-.34.44-.86.49-1.21h-1.93c-.16,0-.32,0-.42.02v-.44c.11.02.3.03.43.03h1.91c.07,0,.17,0,.25-.02l.3.2Z"/><path class="cls-5" d="M74.39,77.99s-.08.1-.1.13c-.12.2-.44.66-.78.89l-.3-.21c.26-.16.51-.45.62-.63-.21,0-1.5,0-1.67,0-.12,0-.26,0-.38.02v-.4c.11.02.26.03.38.03h1.73c.07,0,.21,0,.26-.02l.23.21ZM73.13,78.39c-.02.79-.04,1.43-.89,1.88l-.33-.28c.09-.03.18-.07.29-.14.48-.3.53-.73.53-1.2,0-.09,0-.18-.02-.26h.43Z"/><path class="cls-5" d="M73.72,84.18l-.17.38c-.52-.22-1.73-.49-2.36-.59l.16-.38c.66.1,1.83.38,2.38.59ZM73.57,82.93l-.16.38c-.46-.17-1.44-.4-2-.48l.14-.37c.55.09,1.52.3,2.01.48ZM73.83,81.87l-.16.38c-.46-.17-1.53-.41-2.08-.48l.14-.37c.51.07,1.6.29,2.1.46Z"/><path class="cls-5" d="M71.89,85.73c0,.08-.02.18-.02.29v1.32c0,.1,0,.24.02.32h-.46c0-.06.02-.2.02-.32v-1.32c0-.07,0-.21-.02-.29h.46ZM73.7,85.7c0,.1-.01.22-.01.36v.7c0,.9-.14,1.23-.43,1.56-.25.3-.65.48-.94.57l-.32-.34c.37-.09.71-.24.95-.52.27-.31.32-.62.32-1.3v-.67c0-.14-.01-.26-.02-.36h.46Z"/><path class="cls-5" d="M72.27,92.97c.03-.21.03-.46.03-.61,0-.22,0-1.76,0-2.05,0-.12,0-.34-.03-.49h.5c-.03.15-.03.36-.03.48v2.05c0,.12,0,.4.03.61h-.51Z"/><path class="cls-5" d="M70.3,86.47c-.04.05-.09.1-.11.14-.29.43-.83,1.08-1.39,1.56.24.22.51.48.67.67l-.36.3c-.16-.2-.5-.55-.76-.8-.24-.22-.68-.58-.91-.72l.31-.27c.16.1.46.33.72.55.49-.41.96-.97,1.14-1.26h-2.17c-.16,0-.34.02-.42.02v-.44c.1.02.29.03.42.03h2.28c.13,0,.23-.01.3-.04l.26.25Z"/><path class="cls-5" d="M68.27,93.18c.03-.21.03-.46.03-.61,0-.22,0-1.76,0-2.05,0-.12,0-.34-.03-.49h.5c-.03.15-.03.36-.03.48v2.05c0,.12,0,.4.03.61h-.51Z"/><path class="cls-5" d="M69.8,96.57c-.42-.22-1.06-.47-1.49-.62v1.22c0,.12.02.36.03.5h-.48c.02-.14.03-.35.03-.5v-2.27c0-.12-.01-.31-.04-.44h.48c-.01.13-.03.3-.03.44v.62c.52.16,1.27.44,1.66.63l-.17.43Z"/><path class="cls-5" d="M113.97,12.56c-.19-.18-.58-.42-.91-.57l.29-.37c.32.13.72.35.92.53l-.3.41ZM113.18,14.82c.24-.43.58-1.14.83-1.77l.41.29c-.22.58-.52,1.24-.77,1.76l-.46-.28ZM114.22,11.14c-.18-.19-.58-.44-.89-.6l.29-.37c.32.14.72.37.92.57l-.31.41ZM115.35,11.23c-.17.32-.36.6-.55.83-.1-.09-.31-.23-.43-.3.39-.4.71-1.02.88-1.65l.51.11c-.06.19-.12.37-.19.55h2.5v.46h-2.71ZM117.69,13.23c-.02.29-.03.52-.06.73h.49v.44h-.54c-.05.29-.1.44-.18.53-.11.15-.23.19-.4.21-.16.02-.43.02-.69,0,0-.12-.06-.31-.13-.42.26.02.49.03.6.03.09,0,.15-.02.2-.08.04-.04.07-.13.1-.27h-1.86l-.04.25-.49-.04c.07-.37.15-.86.23-1.37h-.49v-.47h.55c.05-.38.1-.76.13-1.1h2.65s0,.16-.01.23c0,.32-.03.62-.04.87h.44v.47h-.47ZM115.4,13.23c-.03.25-.07.49-.11.73h.68c.03-.21.06-.47.09-.73h-.66ZM115.54,12.11c-.03.21-.05.43-.08.65h.64c.02-.23.04-.45.06-.65h-.62ZM117.16,13.95c.02-.19.04-.43.06-.73h-.72c-.03.26-.05.51-.08.73h.74ZM117.24,12.76c.01-.2.02-.42.03-.65h-.68c-.02.21-.04.43-.06.65h.7Z"/><path class="cls-5" d="M114.03,18.6v.59c0,.66-.09,1.61-.59,2.21-.08-.09-.3-.27-.41-.33.43-.54.48-1.32.48-1.89v-1.04h4.45v.45h-3.94ZM117.7,17.77h-4.16v-1.12h.52v.67h1.27v-.87h.54v.87h1.3v-.67h.54v1.12ZM118.05,20.4h-1.71v1.09h-.54v-1.09h-1.64v-.45h1.64v-.52h-1.37v-.43h3.36v.43h-1.44v.52h1.71v.45Z"/><path class="cls-5" d="M114.32,26.66c.24.38.67.55,1.27.58.62.03,1.88.01,2.58-.04-.05.12-.14.35-.17.5-.63.03-1.79.04-2.42.02-.68-.03-1.15-.21-1.49-.63-.26.23-.54.45-.85.68l-.24-.51c.25-.15.55-.36.82-.57v-1.31h-.75v-.47h1.24v1.76ZM114.08,24.12c-.18-.27-.57-.65-.92-.91l.36-.32c.34.24.75.59.94.86l-.38.37ZM115.32,26.94h-.48v-2.81h1.41c-.3-.14-.63-.29-.91-.4l.33-.27c.21.08.47.18.71.28.21-.1.42-.24.6-.37h-2.13v-.4h2.6l.11-.03.31.25c-.29.26-.66.54-1.05.75.14.07.27.13.37.19h.68v2.34c0,.23-.04.35-.2.42-.15.07-.38.07-.74.07-.02-.13-.08-.3-.14-.41.23.01.44,0,.5,0,.06,0,.08-.02.08-.09v-.38h-.82v.85h-.46v-.85h-.79v.86ZM115.32,24.51v.4h.79v-.4h-.79ZM116.11,25.7v-.41h-.79v.41h.79ZM117.39,24.51h-.82v.4h.82v-.4ZM117.39,25.7v-.41h-.82v.41h.82Z"/><path class="cls-5" d="M114.83,29.3c-.1.34-.2.97-.24,1.31.23-.49.75-1.05,1.39-1.05.72,0,1.26.71,1.26,1.86,0,1.49-.92,2.17-2.29,2.42l-.32-.49c1.16-.18,2.04-.61,2.04-1.92,0-.83-.27-1.37-.79-1.37-.65,0-1.23.95-1.28,1.65-.02.17-.02.36.02.61l-.52.04c-.03-.2-.06-.52-.06-.86,0-.5.09-1.23.15-1.71.03-.18.04-.36.04-.5l.59.02Z"/><path class="cls-5" d="M124.42,60.92h-6c-1.15,0-2.08-.93-2.08-2.08h0c0-1.15.93-2.08,2.08-2.08h6c1.15,0,2.08.93,2.08,2.08h0c0,1.15-.93,2.08-2.08,2.08Z"/><circle class="cls-3" cx="118.56" cy="58.85" r="1.13"/><circle class="cls-3" cx="121.42" cy="58.85" r="1.13"/><circle class="cls-3" cx="124.29" cy="58.85" r="1.13"/><path class="cls-5" d="M124.42,120.97h-6c-1.15,0-2.08-.93-2.08-2.08h0c0-1.15.93-2.08,2.08-2.08h6c1.15,0,2.08.93,2.08,2.08h0c0,1.15-.93,2.08-2.08,2.08Z"/><circle class="cls-3" cx="118.56" cy="118.89" r="1.13"/><circle class="cls-3" cx="121.42" cy="118.89" r="1.13"/><circle class="cls-3" cx="124.29" cy="118.89" r="1.13"/><path class="cls-5" d="M12.54,120.97h-6c-1.15,0-2.08-.93-2.08-2.08h0c0-1.15.93-2.08,2.08-2.08h6c1.15,0,2.08.93,2.08,2.08h0c0,1.15-.93,2.08-2.08,2.08Z"/><path class="cls-3" d="M7.8,118.89c0,.62-.5,1.13-1.13,1.13s-1.13-.5-1.13-1.13.5-1.13,1.13-1.13,1.13.5,1.13,1.13Z"/><path class="cls-3" d="M10.66,118.89c0,.62-.5,1.13-1.13,1.13s-1.13-.5-1.13-1.13.5-1.13,1.13-1.13,1.13.5,1.13,1.13Z"/><path class="cls-3" d="M13.53,118.89c0,.62-.5,1.13-1.13,1.13s-1.13-.5-1.13-1.13.5-1.13,1.13-1.13,1.13.5,1.13,1.13Z"/><path class="cls-5" d="M81.66,120.97h-6c-1.15,0-2.08-.93-2.08-2.08h0c0-1.15.93-2.08,2.08-2.08h6c1.15,0,2.08.93,2.08,2.08h0c0,1.15-.93,2.08-2.08,2.08Z"/><circle class="cls-3" cx="75.79" cy="118.89" r="1.13"/><circle class="cls-3" cx="78.65" cy="118.89" r="1.13"/><circle class="cls-3" cx="81.52" cy="118.89" r="1.13"/><rect class="cls-2" x="24.83" y="59.97" width="8.35" height="37.44"/><rect class="cls-1" x="12.4" y="43.67" width="10.6" height="41.01"/><path class="cls-3" d="M20.1,50.74v.4h-4.8v-.4h2.13v-.34h-1.59v-.37h1.59v-.31h-1.79v-.4h1.79v-.33h.52v.33h1.87v.4h-1.87v.31h1.64v.37h-1.64v.34h2.16ZM19.41,53.52c0,.25-.07.37-.26.44-.2.07-.5.07-.96.07-.02-.12-.09-.3-.15-.41.3.01.64.01.73.01.09,0,.12-.03.12-.11v-.35h-2.35v.88h-.5v-2.62h3.37v2.09ZM16.54,51.81v.32h2.35v-.32h-2.35ZM18.89,52.82v-.33h-2.35v.33h2.35Z"/><path class="cls-3" d="M17.28,58.19c-.21.07-.43.14-.64.2v1.97h-.47v-1.82l-.86.26-.13-.49c.27-.07.62-.17.99-.27v-1.15h-.44c-.07.29-.14.55-.23.76-.08-.07-.27-.18-.37-.23.19-.45.29-1.14.35-1.79l.43.07c-.03.24-.05.47-.09.7h.35v-1.09h.47v1.09h.51v.48h-.51v1.01l.58-.17.07.45ZM20.19,56.21s0,.18,0,.24c-.12,2.47-.22,3.33-.44,3.6-.12.17-.22.21-.4.24-.15.03-.38.02-.62.01,0-.15-.06-.36-.14-.5.23.02.43.02.54.02.09,0,.14-.02.2-.1.16-.18.28-.96.37-3.05h-.15c-.28,1.42-.87,2.86-1.76,3.58-.1-.09-.28-.23-.42-.3.88-.63,1.46-1.94,1.74-3.27h-.37c-.24.92-.72,1.93-1.3,2.44-.09-.09-.26-.22-.4-.29.57-.44,1.02-1.31,1.27-2.15h-.39c-.17.4-.37.74-.59,1.01-.08-.07-.29-.23-.4-.29.45-.48.76-1.26.94-2.08l.46.09c-.06.28-.14.54-.23.8h2.1Z"/><path class="cls-3" d="M16.81,64.94c-.07-.17-.22-.47-.36-.73v2.48h-.48v-2.32c-.17.52-.38,1.01-.6,1.32-.06-.14-.17-.33-.25-.44.33-.46.65-1.27.81-1.97h-.67v-.47h.71v-1.15h.48v1.15h.6v.21h.71v-.47h-.62v-.42h.62v-.47h.48v.47h.75v-.47h.48v.47h.64v.42h-.64v.47h.77v.42h-1.41v.36h1.2v1.86h-2.81v-1.86h1.14v-.36h-1.37v-.17h-.54v.34c.15.19.55.79.64.93l-.28.4ZM18.36,66c-.3.26-.79.54-1.19.69-.08-.09-.23-.25-.34-.34.4-.14.86-.41,1.09-.63l.43.28ZM17.67,64.54h.69v-.39h-.69v.39ZM17.67,65.29h.69v-.4h-.69v.4ZM18.24,63.01h.75v-.47h-.75v.47ZM18.83,64.15v.39h.74v-.39h-.74ZM19.57,64.89h-.74v.4h.74v-.4ZM19.25,65.74c.34.18.8.45,1.04.64l-.38.32c-.22-.19-.68-.48-1.02-.68l.36-.28Z"/><path class="cls-3" d="M20.11,68.96h-1.94v3.27c0,.37-.1.54-.36.63-.26.1-.69.1-1.3.1-.04-.17-.15-.43-.25-.59.48.02.97.02,1.12.02.13,0,.19-.04.19-.16v-3.27h-2.27v-.53h4.81v.53Z"/><path class="cls-3" d="M15.12,78.9c.19-.28.26-.76.29-1.24l.29.05c-.03.51-.08,1.03-.3,1.34l-.27-.15ZM17.55,76.98s0,.13-.01.19c-.07,1.33-.13,1.82-.26,1.99-.09.1-.18.15-.31.16-.12.02-.3.02-.5,0,0-.12-.05-.3-.11-.41.17.02.32.02.4.02.07,0,.11-.01.15-.06.05-.07.09-.24.13-.6l-.18.07c-.04-.19-.16-.49-.29-.71l.22-.08c.1.17.2.38.26.55.02-.2.03-.44.04-.74h-1.66v-2.88h2.04v.42h-.74v.41h.64v.4h-.64v.42h.64v.4h-.64v.42h.81ZM16.04,77.75c.05.32.08.72.08.99l-.26.04c.01-.27-.02-.68-.07-1l.25-.03ZM15.87,74.93v.41h.45v-.41h-.45ZM16.32,75.73h-.45v.42h.45v-.42ZM15.87,76.98h.45v-.42h-.45v.42ZM16.38,78.61c-.02-.24-.1-.6-.19-.88l.24-.05c.1.27.19.64.21.88l-.25.05ZM19.2,76.82c.16.95.48,1.74,1.08,2.13-.11.09-.26.28-.33.41-.7-.49-1.02-1.4-1.2-2.54h-.39c-.02.82-.12,1.86-.59,2.53-.09-.08-.3-.21-.41-.26.49-.7.53-1.71.53-2.5v-2.08h2.16v2.31h-.83ZM18.36,74.97v1.37h1.22v-1.37h-1.22Z"/><rect class="cls-1" x="159.45" width="10.6" height="56.93"/><path class="cls-3" d="M162.46,6.96h1.99v2.37h-.5v-.25h-1v.29h-.48v-2.41ZM162.94,7.45v1.14h1v-1.14h-1ZM166.3,6.43h-3.07v-1.87h3.07v1.87ZM165.78,5.05h-2.06v.9h2.06v-.9ZM167.07,6.96v2.38h-.51v-.26h-1.09v.29h-.49v-2.41h2.09ZM166.56,8.6v-1.14h-1.09v1.14h1.09Z"/><path class="cls-3" d="M163.4,10.94v1.86c0,1.05-.08,2.12-.8,2.94-.1-.12-.3-.29-.43-.37.63-.72.71-1.65.71-2.57v-1.86h.52ZM165.1,11.17v4.03h-.52v-4.03h.52ZM166.87,10.93v4.76h-.54v-4.76h.54Z"/><path class="cls-3" d="M164.08,19.14l-.31.48c-.29-.2-.86-.58-1.2-.75l.3-.47c.34.18.96.57,1.21.74ZM164.62,20.4c.91-.51,1.64-1.23,2.07-1.99l.33.57c-.48.74-1.24,1.43-2.11,1.93-.54.31-1.3.58-1.79.67l-.31-.56c.59-.1,1.25-.3,1.82-.62ZM164.89,17.94l-.32.47c-.28-.2-.85-.58-1.19-.77l.31-.46c.33.19.94.58,1.2.76Z"/><path class="cls-3" d="M164.33,27.41c.04-.29.04-.64.04-.84,0-.3,0-2.42,0-2.82,0-.17,0-.47-.04-.67h.69c-.04.2-.04.5-.04.67v2.82c0,.17,0,.55.04.84h-.7Z"/><path class="cls-3" d="M166.51,30.13c.25,0,.43-.01.53-.03v.57c-.08-.01-.28-.02-.53-.02h-.51v.18c0,1.4-.31,2.17-1.58,2.73l-.46-.43c1.01-.37,1.48-.83,1.48-2.26v-.21h-1.42v.81c0,.22.02.45.02.53h-.6c0-.08.03-.3.03-.53v-.81h-.53c-.25,0-.48.01-.56.02v-.58c.07.01.31.04.56.04h.53v-.63c0-.19-.02-.36-.03-.43h.6c-.01.07-.03.23-.03.43v.62h1.42v-.63c0-.22-.02-.4-.03-.47h.61c-.01.08-.03.25-.03.47v.63h.51Z"/><path class="cls-3" d="M165.31,38.66c0,.22.01.52.04.63h-.66c.02-.12.03-.41.03-.63v-1.92c-.57.3-1.28.6-1.95.79l-.31-.52c.92-.21,1.83-.62,2.43-.99.55-.34,1.11-.81,1.41-1.2l.46.41c-.39.39-.9.81-1.44,1.16v2.27Z"/><path class="cls-3" d="M164.22,42.39c.71.21,1.75.61,2.29.87l-.24.58c-.57-.3-1.45-.64-2.04-.84v1.68c0,.17.02.49.04.69h-.66c.03-.19.04-.48.04-.69v-3.12c0-.18-.02-.43-.05-.6h.67c-.02.18-.04.41-.04.6v.83ZM165.76,42.14c-.14-.31-.29-.57-.48-.82l.36-.16c.14.21.37.56.49.82l-.38.17ZM166.46,41.85c-.15-.31-.31-.55-.5-.81l.36-.17c.15.2.38.55.51.8l-.37.18Z"/><path class="cls-3" d="M162.17,51.25c.19-.28.26-.76.29-1.24l.29.05c-.03.51-.08,1.03-.3,1.34l-.27-.15ZM164.59,49.33s0,.13-.01.19c-.07,1.33-.13,1.82-.26,1.99-.09.1-.18.15-.31.16-.12.02-.3.02-.5,0,0-.12-.05-.3-.11-.41.17.02.32.02.4.02.07,0,.11-.01.15-.06.05-.07.09-.24.13-.6l-.18.07c-.04-.19-.16-.49-.29-.71l.22-.08c.1.17.2.38.26.55.02-.2.03-.44.04-.74h-1.66v-2.88h2.04v.42h-.74v.41h.64v.4h-.64v.42h.64v.4h-.64v.42h.81ZM163.09,50.1c.05.32.08.72.08.99l-.26.04c.01-.27-.02-.68-.07-1l.25-.03ZM162.91,47.28v.41h.45v-.41h-.45ZM163.36,48.09h-.45v.42h.45v-.42ZM162.91,49.33h.45v-.42h-.45v.42ZM163.43,50.96c-.02-.24-.1-.6-.19-.88l.24-.05c.1.27.19.64.21.88l-.25.05ZM166.25,49.17c.16.95.48,1.74,1.08,2.13-.11.09-.26.28-.33.41-.7-.49-1.02-1.4-1.2-2.54h-.39c-.02.82-.12,1.86-.59,2.53-.09-.08-.3-.21-.41-.26.49-.7.53-1.71.53-2.5v-2.08h2.16v2.31h-.83ZM165.4,47.33v1.37h1.22v-1.37h-1.22Z"/><rect class="cls-1" x="12.4" y="149.89" width="10.6" height="41.01"/><path class="cls-3" d="M15.46,163.49c-.07-.1-.23-.24-.34-.3.43-.49.69-1.14.83-1.66l.46.07c-.04.14-.09.28-.14.42h.53l.09-.03.29.2c-.09.23-.22.49-.35.71h.6v.87c.27-.24.52-.57.68-.91l.46.13c-.2.42-.52.85-.81,1.13-.07-.07-.21-.19-.32-.28v1.2h-1.94v-1.59l-.02.03ZM15.14,166.39c.24-.25.33-.69.38-1.12l.36.09c-.05.46-.14.94-.4,1.22l-.33-.2ZM16.11,162.43c-.07.17-.15.32-.24.48h.52c.07-.14.15-.31.21-.48h-.48ZM16.25,163.79v-.47h-.37v.47h.37ZM15.88,164.18v.46h.37v-.46h-.37ZM16.34,165.29c.07.32.09.75.08,1.02l-.35.05c.02-.27,0-.69-.05-1.02l.32-.04ZM16.8,165.26c.12.3.21.69.24.96l-.32.07c-.02-.26-.11-.65-.23-.96l.31-.07ZM17.01,163.32h-.4v.47h.4v-.47ZM17.01,164.18h-.4v.46h.4v-.46ZM17.29,165.18c.13.23.27.52.32.71l-.31.13c-.05-.2-.19-.51-.31-.73l.3-.12ZM19.72,163.95c-.14.54-.33,1-.59,1.39.31.36.7.65,1.17.82-.1.1-.26.3-.33.43-.46-.2-.83-.48-1.15-.85-.32.36-.72.64-1.2.86-.05-.11-.21-.33-.31-.42.5-.2.9-.48,1.21-.84-.25-.39-.44-.84-.59-1.33l.44-.1c.1.37.25.71.45,1.02.18-.3.31-.65.4-1.04l.51.08ZM20.21,162.76h-2.77v-.46h1.11v-.76h.49v.76h1.16v.46ZM19.47,162.84c.29.3.61.71.75.98l-.41.25c-.13-.27-.44-.71-.72-1.02l.38-.21Z"/><path class="cls-3" d="M16.08,170.3c-.2-.16-.61-.4-.91-.56l.29-.37c.3.14.71.37.93.52l-.3.42ZM15.27,172.57c.22-.42.52-1.12.74-1.74l.42.27c-.2.58-.46,1.22-.69,1.74l-.46-.26ZM16.28,168.88c-.19-.17-.58-.42-.88-.59l.3-.37c.29.15.69.38.9.55l-.32.41ZM16.31,170.73c.22-.32.36-.85.43-1.31l.38.12c-.08.47-.2,1.04-.43,1.39l-.38-.21ZM19.99,167.99v4.91h-.49v-2.21l-.27.13c-.07-.28-.24-.68-.42-1.03v2.97h-.47v-2.09l-.37.15c-.04-.28-.15-.68-.29-1.02v.05c0,1.07-.08,2.17-.75,3.04-.1-.09-.3-.24-.43-.3.63-.79.7-1.77.7-2.75v-1.86h.48v1.63l.3-.11c.17.33.31.75.37,1.07v-2.5h.47v1.45l.25-.11c.17.26.32.59.44.88v-2.3h.49Z"/><path class="cls-3" d="M15.12,178.79c.19-.28.26-.76.29-1.24l.29.05c-.03.51-.08,1.03-.3,1.34l-.27-.15ZM17.55,176.87s0,.13-.01.19c-.07,1.33-.13,1.82-.26,1.99-.09.1-.18.15-.31.16-.12.02-.3.02-.5,0,0-.12-.05-.3-.11-.41.17.02.32.02.4.02.07,0,.11-.01.15-.06.05-.07.09-.24.13-.6l-.18.07c-.04-.19-.16-.49-.29-.71l.22-.08c.1.17.2.38.26.55.02-.2.03-.44.04-.74h-1.66v-2.88h2.04v.42h-.74v.41h.64v.4h-.64v.42h.64v.4h-.64v.42h.81ZM16.04,177.64c.05.32.08.72.08.99l-.26.04c.01-.27-.02-.68-.07-1l.25-.03ZM15.87,174.82v.41h.45v-.41h-.45ZM16.32,175.63h-.45v.42h.45v-.42ZM15.87,176.87h.45v-.42h-.45v.42ZM16.38,178.5c-.02-.24-.1-.6-.19-.88l.24-.05c.1.27.19.64.21.88l-.25.05ZM19.2,176.71c.16.95.48,1.74,1.08,2.13-.11.09-.26.28-.33.41-.7-.49-1.02-1.4-1.2-2.54h-.39c-.02.82-.12,1.86-.59,2.53-.09-.08-.3-.21-.41-.26.49-.7.53-1.71.53-2.5v-2.08h2.16v2.31h-.83ZM18.36,174.86v1.37h1.22v-1.37h-1.22Z"/><rect class="cls-4" x="42.38" y="102.81" width="11.98" height="5.55"/><path class="cls-1" d="M51.26,83.37c-4.61,0-8.34,3.73-8.34,8.34,0,3.28,1.9,6.11,4.65,7.47l-.26,3.64,2.36-2.92c.51.1,1.04.15,1.58.15,4.61,0,8.34-3.73,8.34-8.34s-3.73-8.34-8.34-8.34Z"/><rect class="cls-2" x="71.67" y="94.74" width="5.11" height="5.12"/><rect class="cls-2" x="81.21" y="80.97" width="37.59" height="12.9"/><path class="cls-5" d="M96.72,86.27c0-.06,0-.13,0-.22h-1.89c-.16,0-.36,0-.48.02v-.45c.12,0,.29.02.46.02h1.92v-1.78h-1.87c-.16,0-.36,0-.46.01v-.44c.14.01.33.02.46.02h1.99c.11,0,.25,0,.32,0,0,.09,0,.23,0,.34v2.07c0,.14,0,.34.02.42h-.46Z"/><path class="cls-5" d="M101.56,84.01c.16,0,.31,0,.38-.02v.43c-.07,0-.25-.01-.39-.01h-.99c-.02.84-.29,1.5-1.12,1.99l-.39-.29c.77-.36,1.06-.94,1.08-1.7h-1.11c-.16,0-.31,0-.41.01v-.43c.1,0,.25.02.4.02h1.12v-.49c0-.13-.02-.33-.04-.43h.5c-.02.1-.03.31-.03.43v.49h.99Z"/><path class="cls-5" d="M105.65,85.96l-.18.39c-.53-.23-1.75-.5-2.4-.6l.16-.39c.68.1,1.87.38,2.41.6ZM105.49,84.69l-.16.39c-.46-.18-1.46-.4-2.04-.49l.15-.38c.56.09,1.55.3,2.05.48ZM105.76,83.61l-.16.39c-.48-.18-1.56-.42-2.12-.49l.15-.37c.52.06,1.63.29,2.13.47Z"/><path class="cls-5" d="M88.49,88.02s-.09.14-.12.21c-.14.33-.38.78-.66,1.14.41.35.9.87,1.14,1.17l-.36.31c-.26-.36-.66-.8-1.06-1.17-.43.46-.96.88-1.54,1.15l-.32-.34c.65-.25,1.25-.73,1.64-1.17.27-.3.54-.74.64-1.06h-1.47c-.16,0-.37.02-.44.02v-.45c.08.01.31.03.44.03h1.48c.15,0,.28-.02.35-.04l.26.19Z"/><path class="cls-5" d="M90.95,89.26c-.18.35-.54.86-.77,1.1l-.34-.24c.26-.25.6-.71.75-1.04l.36.17ZM91.83,88.67v1.9c0,.22-.11.34-.37.34-.19,0-.43,0-.61-.03l-.04-.4c.17.03.35.04.46.04s.15-.04.15-.15v-1.71h-1.07c-.12,0-.25,0-.36.01v-.42c.11.01.23.02.36.02h1.07v-.37c0-.09-.02-.25-.03-.31h.47c-.01.06-.03.22-.03.32v.37h1c.1,0,.25,0,.36-.02v.42c-.12,0-.25,0-.35,0h-1.01ZM92.64,89.09c.21.26.53.76.69,1.05l-.37.21c-.16-.33-.46-.82-.66-1.07l.34-.19ZM92.47,87.74c0-.25.2-.45.45-.45s.45.2.45.45-.2.45-.45.45-.45-.2-.45-.45ZM92.68,87.74c0,.14.1.24.24.24s.24-.1.24-.24-.11-.24-.24-.24-.24.11-.24.24Z"/><path class="cls-5" d="M94.44,88.93c.13.01.38.02.59.02h2.17c.2,0,.35-.02.45-.02v.49c-.09,0-.27-.02-.44-.02h-2.17c-.22,0-.46,0-.59.02v-.49Z"/><path class="cls-5" d="M99.64,89.01l-.4.15c-.08-.26-.35-.92-.45-1.11l.4-.14c.11.24.36.84.46,1.11ZM102.1,87.94c-.04.08-.06.19-.08.26-.12.47-.34,1.07-.67,1.5-.42.55-1,.96-1.57,1.16l-.35-.35c.56-.16,1.17-.54,1.57-1.05.33-.42.56-1.1.63-1.66l.47.13ZM100.71,88.72l-.4.14c-.07-.24-.29-.84-.4-1.07l.39-.13c.1.2.34.82.41,1.06Z"/><path class="cls-5" d="M106.24,88.22c-.04.06-.08.16-.11.24-.11.38-.34.92-.7,1.36-.37.45-.85.82-1.6,1.11l-.37-.33c.77-.23,1.25-.59,1.6-1,.3-.34.54-.84.61-1.18h-1.25c-.26.34-.6.7-1.01.98l-.35-.26c.7-.42,1.07-.97,1.26-1.32.05-.08.12-.24.15-.36l.46.15c-.08.12-.16.28-.21.36-.02.03-.04.07-.06.1h.96c.11,0,.22-.01.3-.04l.33.2Z"/><path class="cls-5" d="M110.27,88.8s-.05.1-.06.14c-.12.39-.29.79-.59,1.12-.41.46-.92.71-1.43.85l-.31-.36c.58-.12,1.07-.38,1.4-.72.23-.24.37-.54.44-.8h-2.03c-.1,0-.27,0-.42.02v-.42c.16.02.31.03.42.03h2.05c.11,0,.2-.02.26-.04l.28.18ZM107.63,87.7c.11.01.25.02.38.02h1.56c.13,0,.29,0,.39-.02v.41c-.1,0-.26-.01-.4-.01h-1.55c-.12,0-.27,0-.38.01v-.41Z"/><path class="cls-5" d="M114.02,87.96l.22.14c-.03.06-.05.15-.07.23-.09.41-.27,1.04-.6,1.47-.36.47-.86.86-1.59,1.08l-.34-.38c.78-.19,1.24-.54,1.56-.95.28-.35.45-.86.5-1.23h-1.96c-.17,0-.33,0-.43.01v-.44c.11.02.3.03.43.03h1.94s.11,0,.18,0c-.08-.15-.18-.32-.26-.44l.27-.11c.1.14.24.38.32.53l-.15.06ZM114.39,87.27c.1.14.24.38.32.53l-.27.12c-.09-.16-.22-.4-.32-.54l.27-.11Z"/><path class="cls-5" d="M30.26,65.3c.11,0,.28-.02.36-.03v.41c-.11,0-.25,0-.35,0h-.57c.01.58.02,1.31.03,1.82,0,.22-.13.35-.39.35-.22,0-.44,0-.65-.02l-.04-.4c.18.03.4.04.54.04.1,0,.14-.05.14-.16,0-.29,0-.79-.01-1.27-.34.46-1,1.06-1.67,1.41l-.28-.32c.78-.38,1.46-.98,1.77-1.45h-1.2c-.14,0-.27,0-.4.01v-.41c.11.01.26.02.39.02h1.38c0-.13,0-.25-.01-.34,0-.1-.01-.24-.04-.36h.45c-.02.11-.02.24-.02.36v.34h.57Z"/><path class="cls-5" d="M28.74,72.17c.03-.21.03-.46.03-.61,0-.22,0-1.76,0-2.05,0-.12,0-.34-.03-.49h.5c-.03.15-.03.36-.03.48v2.05c0,.12,0,.4.03.61h-.51Z"/><path class="cls-5" d="M30.31,74.12c.1,0,.26,0,.38-.03v.42c-.14,0-.3-.01-.38-.01h-.62c-.07,1.09-.5,1.77-1.18,2.2l-.42-.28c.12-.05.25-.12.34-.19.4-.3.78-.81.84-1.73h-.93c-.16.29-.42.64-.65.83l-.39-.24c.28-.2.55-.58.69-.83.11-.19.18-.39.23-.54.03-.1.06-.23.06-.35l.48.1c-.04.09-.08.21-.11.29-.04.1-.08.23-.13.35h1.79Z"/><path class="cls-5" d="M28.74,80.87c.03-.21.03-.46.03-.61,0-.22,0-1.76,0-2.05,0-.12,0-.34-.03-.49h.5c-.03.15-.03.36-.03.48v2.05c0,.12,0,.4.03.61h-.51Z"/><path class="cls-5" d="M30.28,82.46s-.09.14-.12.2c-.13.32-.37.76-.64,1.12.4.34.88.85,1.12,1.15l-.35.3c-.26-.35-.65-.78-1.04-1.14-.42.45-.95.87-1.51,1.13l-.32-.33c.64-.24,1.22-.72,1.62-1.15.26-.3.53-.73.62-1.04h-1.45c-.15,0-.36.02-.42.02v-.44c.08.01.31.03.42.03h1.46c.15,0,.27-.02.34-.04l.25.19Z"/><path class="cls-5" d="M30.28,88.54c-.42-.22-1.05-.47-1.49-.62v1.21c0,.12.02.36.03.5h-.48c.02-.14.03-.35.03-.5v-2.27c0-.12-.01-.31-.04-.44h.48c-.01.13-.03.3-.03.44v.62c.52.16,1.27.44,1.66.63l-.17.43Z"/><path class="cls-5" d="M30.78,91.3s-.1.12-.13.17c-.17.28-.54.78-.96,1.08l-.32-.26c.34-.2.68-.59.8-.81h-2.16c-.15,0-.29,0-.46.02v-.43c.14.02.31.04.46.04h2.2c.09,0,.26-.01.33-.03l.25.23ZM29.2,91.82c0,1.03-.06,1.78-1.1,2.31l-.36-.3c.12-.04.26-.1.38-.19.56-.36.65-.86.65-1.51,0-.1,0-.2-.02-.32h.45Z"/><path class="cls-3" d="M54.02,86.64v.47h-2.76c-1.26,0-2.29,1.02-2.29,2.29v1.07l-.47.43v-1.5c0-1.52,1.24-2.76,2.76-2.76h2.76ZM48.97,93.45c0-1.26,1.02-2.29,2.29-2.29h.85v-.47h-.85c-1.52,0-2.76,1.24-2.76,2.76v1.85h.47v-1.85ZM53.55,92.95v1.07c0,1.26-1.02,2.29-2.29,2.29h-2.76v.47h2.76c1.52,0,2.76-1.24,2.76-2.76v-1.5l-.47.43ZM53.55,89.96c0,1.26-1.02,2.29-2.29,2.29h-.85v.47h.85c1.52,0,2.76-1.24,2.76-2.76v-1.85h-.47v1.85Z"/></g></g></svg>